SplineFontDB: 3.2
FontName: WikiFont-Glyphs
FullName: wikiglyph
FamilyName: wikiglyph
Weight: Book
Copyright: 
Version: 1.0
ItalicAngle: 0
UnderlinePosition: 0
UnderlineWidth: 0
Ascent: 480
Descent: 32
InvalidEm: 0
sfntRevision: 0x00010000
LayerCount: 2
Layer: 0 1 "Back" 1
Layer: 1 1 "Fore" 0
XUID: [1021 852 -1314161271 2386465]
StyleMap: 0x0040
FSType: 8
OS2Version: 1
OS2_WeightWidthSlopeOnly: 0
OS2_UseTypoMetrics: 0
CreationTime: 1454301985
ModificationTime: 1637044976
PfmFamily: 17
TTFWeight: 400
TTFWidth: 5
LineGap: 46
VLineGap: 0
Panose: 2 0 5 9 0 0 0 0 0 0
OS2TypoAscent: 480
OS2TypoAOffset: 0
OS2TypoDescent: -32
OS2TypoDOffset: 0
OS2TypoLinegap: 46
OS2WinAscent: 512
OS2WinAOffset: 0
OS2WinDescent: -21
OS2WinDOffset: 0
HheadAscent: 512
HheadAOffset: 0
HheadDescent: 0
HheadDOffset: 0
OS2SubXSize: 332
OS2SubYSize: 358
OS2SubXOff: 0
OS2SubYOff: 71
OS2SupXSize: 332
OS2SupYSize: 358
OS2SupXOff: 0
OS2SupYOff: 245
OS2StrikeYSize: 25
OS2StrikeYPos: 132
OS2Vendor: 'PfEd'
OS2CodePages: 00000001.00000000
OS2UnicodeRanges: 00000200.10000000.00000000.00000000
MarkAttachClasses: 1
DEI: 91125
ShortTable: maxp 16
  1
  0
  129
  99
  14
  0
  0
  2
  0
  1
  1
  0
  64
  0
  0
  0
EndShort
LangName: 1033 "" "" "Regular" "" "" "Version 1.0"
GaspTable: 1 65535 2 0
Encoding: UnicodeBmp
UnicodeInterp: none
NameList: AGL For New Fonts
DisplaySize: -48
AntiAlias: 1
FitToEm: 0
WinInfo: 57870 15 12
BeginPrivate: 0
EndPrivate
BeginChars: 65538 150

StartChar: move
Encoding: 57363 57363 3
Width: 512
GlyphClass: 2
Flags: W
LayerCount: 2
Fore
SplineSet
427 277 m 1,0,-1
 341 341 l 1,1,-1
 341 299 l 1,2,-1
 277 299 l 1,3,-1
 277 363 l 1,4,-1
 320 363 l 1,5,-1
 256 448 l 1,6,-1
 192 363 l 1,7,-1
 235 363 l 1,8,-1
 235 299 l 1,9,-1
 171 299 l 1,10,-1
 171 341 l 1,11,-1
 85 277 l 1,12,-1
 171 213 l 1,13,-1
 171 256 l 1,14,-1
 235 256 l 1,15,-1
 235 192 l 1,16,-1
 192 192 l 1,17,-1
 256 107 l 1,18,-1
 320 192 l 1,19,-1
 277 192 l 1,20,-1
 277 256 l 1,21,-1
 341 256 l 1,22,-1
 341 213 l 1,23,-1
 427 277 l 1,0,-1
EndSplineSet
Validated: 9
EndChar

StartChar: cog
Encoding: 57364 57364 4
Width: 512
GlyphClass: 2
Flags: W
LayerCount: 2
Fore
SplineSet
427 203 m 1,0,-1
 427 265 l 1,1,-1
 388 271 l 1,2,3
 385 282 385 282 375 301 c 1,4,-1
 399 333 l 1,5,-1
 354 378 l 1,6,-1
 322 354 l 1,7,8
 307 364 307 364 292 367 c 1,9,-1
 288 405 l 1,10,-1
 226 405 l 1,11,-1
 220 367 l 1,12,13
 207 365 207 365 190 354 c 1,14,-1
 158 378 l 1,15,-1
 113 333 l 1,16,-1
 134 301 l 1,17,18
 131 295 131 295 122 271 c 1,19,-1
 85 267 l 1,20,-1
 85 205 l 1,21,-1
 124 198 l 1,22,23
 127 183 127 183 137 169 c 1,24,-1
 115 137 l 1,25,-1
 160 92 l 1,26,-1
 192 113 l 2,27,28
 196 111 196 111 206 107 c 128,-1,29
 216 103 216 103 222 100 c 1,30,-1
 228 62 l 1,31,-1
 292 62 l 1,32,-1
 299 100 l 1,33,34
 309 102 309 102 329 113 c 1,35,-1
 361 90 l 1,36,-1
 405 134 l 1,37,-1
 382 166 l 1,38,39
 392 185 392 185 395 196 c 1,40,-1
 427 203 l 1,0,-1
256 171 m 128,-1,42
 229 171 229 171 210.5 189 c 128,-1,43
 192 207 192 207 192 235 c 0,44,45
 192 262 192 262 210.5 280.5 c 128,-1,46
 229 299 229 299 256 299 c 128,-1,47
 283 299 283 299 301.5 280.5 c 128,-1,48
 320 262 320 262 320 235 c 0,49,50
 320 207 320 207 301.5 189 c 128,-1,41
 283 171 283 171 256 171 c 128,-1,42
EndSplineSet
Validated: 9
EndChar

StartChar: ellipses
Encoding: 57365 57365 5
Width: 512
GlyphClass: 2
Flags: W
LayerCount: 2
Fore
SplineSet
171 235 m 0,0,1
 171 218 171 218 158 205 c 128,-1,2
 145 192 145 192 128 192 c 128,-1,3
 111 192 111 192 98 205 c 128,-1,4
 85 218 85 218 85 235 c 0,5,6
 85 250 85 250 98 265 c 0,7,8
 112 277 112 277 128 277 c 128,-1,9
 144 277 144 277 158 265 c 0,10,11
 171 250 171 250 171 235 c 0,0,1
299 235 m 0,12,13
 299 218 299 218 286 205 c 128,-1,14
 273 192 273 192 256 192 c 128,-1,15
 239 192 239 192 226 205 c 128,-1,16
 213 218 213 218 213 235 c 0,17,18
 213 250 213 250 226 265 c 0,19,20
 240 277 240 277 256 277 c 128,-1,21
 272 277 272 277 286 265 c 0,22,23
 299 250 299 250 299 235 c 0,12,13
427 235 m 0,24,25
 427 218 427 218 414 205 c 128,-1,26
 401 192 401 192 384 192 c 128,-1,27
 367 192 367 192 354 205 c 128,-1,28
 341 218 341 218 341 235 c 0,29,30
 341 250 341 250 354 265 c 0,31,32
 368 277 368 277 384 277 c 128,-1,33
 400 277 400 277 414 265 c 0,34,35
 427 250 427 250 427 235 c 0,24,25
EndSplineSet
Validated: 1
EndChar

StartChar: message
Encoding: 57366 57366 6
Width: 512
GlyphClass: 2
Flags: W
LayerCount: 2
Fore
SplineSet
448 320 m 1,0,1
 448 347 448 347 429.5 365.5 c 128,-1,2
 411 384 411 384 384 384 c 2,3,-1
 64 384 l 1,4,-1
 64 320 l 1,5,-1
 256 235 l 1,6,-1
 448 320 l 1,0,1
64 277 m 1,7,-1
 64 149 l 2,8,9
 64 122 64 122 82.5 103.5 c 128,-1,10
 101 85 101 85 128 85 c 2,11,-1
 448 85 l 1,12,-1
 448 277 l 1,13,-1
 256 192 l 1,14,-1
 64 277 l 1,7,-1
EndSplineSet
Validated: 9
EndChar

StartChar: key
Encoding: 57367 57367 7
Width: 512
GlyphClass: 2
Flags: W
LayerCount: 2
Fore
SplineSet
309 427 m 128,-1,1
 261 427 261 427 226.5 392 c 128,-1,2
 192 357 192 357 192 309 c 0,3,4
 192 282 192 282 207 250 c 1,5,-1
 85 128 l 1,6,-1
 85 85 l 1,7,-1
 171 85 l 1,8,-1
 171 128 l 1,9,-1
 213 128 l 1,10,-1
 213 171 l 1,11,-1
 256 171 l 1,12,-1
 282 196 l 1,13,14
 298 192 298 192 309 192 c 0,15,16
 357 192 357 192 392 226.5 c 128,-1,17
 427 261 427 261 427 309 c 128,-1,18
 427 357 427 357 392 392 c 128,-1,0
 357 427 357 427 309 427 c 128,-1,1
341 320 m 128,-1,20
 328 320 328 320 318.5 329.5 c 128,-1,21
 309 339 309 339 309 352 c 128,-1,22
 309 365 309 365 318.5 374.5 c 128,-1,23
 328 384 328 384 341 384 c 128,-1,24
 354 384 354 384 363.5 374.5 c 128,-1,25
 373 365 373 365 373 352 c 128,-1,26
 373 339 373 339 363.5 329.5 c 128,-1,19
 354 320 354 320 341 320 c 128,-1,20
EndSplineSet
Validated: 9
EndChar

StartChar: lock
Encoding: 57368 57368 8
Width: 512
GlyphClass: 2
Flags: W
LayerCount: 2
Fore
SplineSet
320 341 m 2,0,1
 320 344 320 344 319.5 348 c 128,-1,2
 319 352 319 352 316.5 363 c 128,-1,3
 314 374 314 374 309 382.5 c 128,-1,4
 304 391 304 391 293 398 c 128,-1,5
 282 405 282 405 267 405 c 0,6,7
 243 405 243 405 229.5 389 c 128,-1,8
 216 373 216 373 214 357 c 2,9,-1
 213 341 l 1,10,-1
 213 320 l 1,11,-1
 320 320 l 1,12,-1
 320 341 l 2,0,1
363 341 m 1,13,-1
 363 320 l 1,14,-1
 405 320 l 1,15,-1
 405 107 l 1,16,-1
 192 107 l 2,17,18
 165 107 165 107 146.5 125 c 128,-1,19
 128 143 128 143 128 171 c 2,20,-1
 128 320 l 1,21,-1
 171 320 l 1,22,-1
 171 341 l 2,23,24
 171 345 171 345 171.5 352.5 c 128,-1,25
 172 360 172 360 177.5 378.5 c 128,-1,26
 183 397 183 397 192 411 c 128,-1,27
 201 425 201 425 220.5 436.5 c 128,-1,28
 240 448 240 448 267 448 c 128,-1,29
 294 448 294 448 313.5 437 c 128,-1,30
 333 426 333 426 342 410 c 128,-1,31
 351 394 351 394 356.5 378.5 c 128,-1,32
 362 363 362 363 362 352 c 2,33,-1
 363 341 l 1,13,-1
EndSplineSet
Validated: 1
EndChar

StartChar: unlock
Encoding: 57369 57369 9
Width: 512
GlyphClass: 2
Flags: W
LayerCount: 2
Fore
SplineSet
256 320 m 1,0,-1
 256 363 l 2,1,2
 256 367 256 367 255.5 374.5 c 128,-1,3
 255 382 255 382 249.5 400 c 128,-1,4
 244 418 244 418 235 432 c 128,-1,5
 226 446 226 446 206.5 457.5 c 128,-1,6
 187 469 187 469 160 469 c 128,-1,7
 133 469 133 469 113.5 458 c 128,-1,8
 94 447 94 447 85 431.5 c 128,-1,9
 76 416 76 416 70.5 400.5 c 128,-1,10
 65 385 65 385 64 374 c 2,11,-1
 64 363 l 1,12,-1
 107 363 l 2,13,14
 107 366 107 366 107.5 370 c 128,-1,15
 108 374 108 374 110.5 385 c 128,-1,16
 113 396 113 396 118 404.5 c 128,-1,17
 123 413 123 413 134 420 c 128,-1,18
 145 427 145 427 160 427 c 0,19,20
 184 427 184 427 197 411 c 128,-1,21
 210 395 210 395 212 379 c 2,22,-1
 213 363 l 1,23,-1
 213 320 l 1,24,-1
 149 320 l 1,25,-1
 149 171 l 2,26,27
 149 143 149 143 167.5 125 c 128,-1,28
 186 107 186 107 213 107 c 2,29,-1
 427 107 l 1,30,-1
 427 320 l 1,31,-1
 256 320 l 1,0,-1
EndSplineSet
Validated: 9
EndChar

StartChar: browser
Encoding: 57376 57376 10
Width: 512
GlyphClass: 2
Flags: W
LayerCount: 2
Fore
SplineSet
64 384 m 1,0,-1
 64 149 l 2,1,2
 64 122 64 122 82.5 103.5 c 128,-1,3
 101 85 101 85 128 85 c 2,4,-1
 448 85 l 1,5,-1
 448 384 l 1,6,-1
 64 384 l 1,0,-1
117 363 m 128,-1,8
 130 363 130 363 139.5 353.5 c 128,-1,9
 149 344 149 344 149 331 c 128,-1,10
 149 318 149 318 139.5 308.5 c 128,-1,11
 130 299 130 299 117 299 c 128,-1,12
 104 299 104 299 94.5 308.5 c 128,-1,13
 85 318 85 318 85 331 c 128,-1,14
 85 344 85 344 94.5 353.5 c 128,-1,7
 104 363 104 363 117 363 c 128,-1,8
427 107 m 1,15,-1
 128 107 l 2,16,17
 111 107 111 107 98 119.5 c 128,-1,18
 85 132 85 132 85 149 c 2,19,-1
 85 277 l 1,20,-1
 427 277 l 1,21,-1
 427 107 l 1,15,-1
EndSplineSet
Validated: 9
EndChar

StartChar: keyboard
Encoding: 57378 57378 11
Width: 512
GlyphClass: 2
Flags: W
LayerCount: 2
Fore
SplineSet
64 363 m 1,0,-1
 64 171 l 2,1,2
 64 143 64 143 82.5 125 c 128,-1,3
 101 107 101 107 128 107 c 2,4,-1
 448 107 l 1,5,-1
 448 363 l 1,6,-1
 64 363 l 1,0,-1
235 320 m 1,7,-1
 277 320 l 1,8,-1
 277 277 l 1,9,-1
 235 277 l 1,10,-1
 235 320 l 1,7,-1
235 256 m 1,11,-1
 277 256 l 1,12,-1
 277 213 l 1,13,-1
 235 213 l 1,14,-1
 235 256 l 1,11,-1
171 320 m 1,15,-1
 213 320 l 1,16,-1
 213 277 l 1,17,-1
 171 277 l 1,18,-1
 171 320 l 1,15,-1
171 256 m 1,19,-1
 213 256 l 1,20,-1
 213 213 l 1,21,-1
 171 213 l 1,22,-1
 171 256 l 1,19,-1
149 149 m 1,23,-1
 128 149 l 2,24,25
 107 149 107 149 107 171 c 2,26,-1
 107 192 l 1,27,-1
 149 192 l 1,28,-1
 149 149 l 1,23,-1
149 213 m 1,29,-1
 107 213 l 1,30,-1
 107 256 l 1,31,-1
 149 256 l 1,32,-1
 149 213 l 1,29,-1
149 277 m 1,33,-1
 107 277 l 1,34,-1
 107 320 l 1,35,-1
 149 320 l 1,36,-1
 149 277 l 1,33,-1
341 149 m 1,37,-1
 171 149 l 1,38,-1
 171 192 l 1,39,-1
 341 192 l 1,40,-1
 341 149 l 1,37,-1
341 213 m 1,41,-1
 299 213 l 1,42,-1
 299 256 l 1,43,-1
 341 256 l 1,44,-1
 341 213 l 1,41,-1
341 277 m 1,45,-1
 299 277 l 1,46,-1
 299 320 l 1,47,-1
 341 320 l 1,48,-1
 341 277 l 1,45,-1
405 149 m 1,49,-1
 363 149 l 1,50,-1
 363 192 l 1,51,-1
 405 192 l 1,52,-1
 405 149 l 1,49,-1
405 213 m 1,53,-1
 363 213 l 1,54,-1
 363 256 l 1,55,-1
 405 256 l 1,56,-1
 405 213 l 1,53,-1
405 277 m 1,57,-1
 363 277 l 1,58,-1
 363 320 l 1,59,-1
 405 320 l 1,60,-1
 405 277 l 1,57,-1
EndSplineSet
Validated: 9
EndChar

StartChar: ribbon-prize
Encoding: 57379 57379 12
Width: 512
GlyphClass: 2
Flags: W
LayerCount: 2
Fore
SplineSet
299 331 m 0,0,1
 299 308 299 308 283.5 292.5 c 128,-1,2
 268 277 268 277 245 277 c 0,3,4
 223 277 223 277 207.5 293 c 128,-1,5
 192 309 192 309 192 331 c 128,-1,6
 192 353 192 353 207.5 368.5 c 128,-1,7
 223 384 223 384 245 384 c 128,-1,8
 267 384 267 384 283 368.5 c 128,-1,9
 299 353 299 353 299 331 c 0,0,1
348 326 m 1,10,-1
 363 341 l 1,11,-1
 346 358 l 1,12,-1
 354 375 l 1,13,-1
 331 386 l 1,14,-1
 333 405 l 1,15,-1
 307 410 l 1,16,-1
 305 429 l 1,17,-1
 279 425 l 1,18,-1
 271 442 l 1,19,-1
 247 431 l 1,20,-1
 235 448 l 1,21,-1
 218 431 l 1,22,-1
 198 439 l 1,23,-1
 188 416 l 1,24,-1
 169 420 l 1,25,-1
 164 395 l 1,26,-1
 145 390 l 1,27,-1
 149 365 l 1,28,-1
 130 356 l 1,29,-1
 141 333 l 1,30,-1
 128 320 l 1,31,-1
 145 303 l 1,32,-1
 137 286 l 1,33,-1
 160 275 l 1,34,-1
 158 256 l 1,35,-1
 183 252 l 1,36,-1
 186 233 l 1,37,-1
 211 237 l 1,38,-1
 220 220 l 1,39,-1
 243 230 l 1,40,-1
 256 213 l 1,41,-1
 273 230 l 1,42,-1
 290 222 l 1,43,-1
 301 245 l 1,44,-1
 320 243 l 1,45,-1
 324 269 l 1,46,-1
 343 271 l 1,47,-1
 339 297 l 1,48,-1
 356 305 l 1,49,-1
 348 326 l 1,10,-1
245 256 m 0,50,51
 215 256 215 256 193 278 c 128,-1,52
 171 300 171 300 171 331 c 0,53,54
 171 361 171 361 193 383 c 128,-1,55
 215 405 215 405 245 405 c 0,56,57
 276 405 276 405 298 383 c 128,-1,58
 320 361 320 361 320 331 c 0,59,60
 320 300 320 300 298 278 c 128,-1,61
 276 256 276 256 245 256 c 0,50,51
256 192 m 1,62,-1
 241 207 l 1,63,-1
 218 194 l 1,64,-1
 209 209 l 1,65,-1
 192 203 l 1,66,-1
 192 21 l 1,67,-1
 245 85 l 1,68,-1
 299 21 l 1,69,-1
 299 203 l 1,70,-1
 277 213 l 1,71,-1
 256 192 l 1,62,-1
EndSplineSet
Validated: 521
EndChar

StartChar: play
Encoding: 57380 57380 13
Width: 512
GlyphClass: 2
Flags: W
LayerCount: 2
Fore
SplineSet
256 405 m 128,-1,1
 185 405 185 405 135 355 c 128,-1,2
 85 305 85 305 85 235 c 0,3,4
 85 164 85 164 135.5 114 c 128,-1,5
 186 64 186 64 256 64 c 128,-1,6
 326 64 326 64 376.5 114 c 128,-1,7
 427 164 427 164 427 235 c 0,8,9
 427 305 427 305 377 355 c 128,-1,0
 327 405 327 405 256 405 c 128,-1,1
213 149 m 1,10,-1
 213 320 l 1,11,-1
 341 235 l 1,12,-1
 213 149 l 1,10,-1
EndSplineSet
Validated: 9
EndChar

StartChar: stop
Encoding: 57381 57381 14
Width: 512
GlyphClass: 2
Flags: W
LayerCount: 2
Fore
SplineSet
256 384 m 128,-1,1
 318 384 318 384 361.5 340.5 c 128,-1,2
 405 297 405 297 405 235 c 0,3,4
 405 172 405 172 361.5 128.5 c 128,-1,5
 318 85 318 85 256 85 c 128,-1,6
 194 85 194 85 150.5 128.5 c 128,-1,7
 107 172 107 172 107 235 c 0,8,9
 107 297 107 297 150.5 340.5 c 128,-1,0
 194 384 194 384 256 384 c 128,-1,1
256 405 m 128,-1,11
 185 405 185 405 135 355 c 128,-1,12
 85 305 85 305 85 235 c 0,13,14
 85 164 85 164 135.5 114 c 128,-1,15
 186 64 186 64 256 64 c 128,-1,16
 326 64 326 64 376.5 114 c 128,-1,17
 427 164 427 164 427 235 c 0,18,19
 427 305 427 305 377 355 c 128,-1,10
 327 405 327 405 256 405 c 128,-1,11
192 299 m 1,20,-1
 320 299 l 1,21,-1
 320 171 l 1,22,-1
 192 171 l 1,23,-1
 192 299 l 1,20,-1
EndSplineSet
Validated: 9
EndChar

StartChar: beta
Encoding: 57382 57382 15
Width: 512
GlyphClass: 2
Flags: W
LayerCount: 2
Fore
SplineSet
256 427 m 128,-1,1
 186 427 186 427 135.5 376.5 c 128,-1,2
 85 326 85 326 85 256 c 128,-1,3
 85 186 85 186 135.5 135.5 c 128,-1,4
 186 85 186 85 256 85 c 128,-1,5
 326 85 326 85 376.5 135.5 c 128,-1,6
 427 186 427 186 427 256 c 128,-1,7
 427 326 427 326 376.5 376.5 c 128,-1,0
 326 427 326 427 256 427 c 128,-1,1
341 171 m 1,8,-1
 277 213 l 1,9,-1
 256 128 l 1,10,-1
 235 213 l 1,11,-1
 171 171 l 1,12,-1
 213 235 l 1,13,-1
 128 256 l 1,14,-1
 213 277 l 1,15,-1
 171 341 l 1,16,-1
 235 299 l 1,17,-1
 256 384 l 1,18,-1
 277 299 l 1,19,-1
 341 341 l 1,20,-1
 299 277 l 1,21,-1
 384 256 l 1,22,-1
 299 235 l 1,23,-1
 341 171 l 1,8,-1
EndSplineSet
Validated: 9
EndChar

StartChar: beta-launch
Encoding: 57383 57383 16
Width: 512
GlyphClass: 2
Flags: W
LayerCount: 2
Fore
SplineSet
326 198 m 1,0,1
 340 264 340 264 318.5 345.5 c 128,-1,2
 297 427 297 427 256 427 c 128,-1,3
 215 427 215 427 192 347.5 c 128,-1,4
 169 268 169 268 183 203 c 1,5,-1
 149 128 l 1,6,-1
 207 128 l 1,7,-1
 213 107 l 1,8,-1
 299 107 l 2,9,10
 301 110 301 110 302 116.5 c 128,-1,11
 303 123 303 123 305 128 c 1,12,-1
 363 128 l 1,13,-1
 326 198 l 1,0,1
256 299 m 128,-1,15
 243 299 243 299 233.5 308.5 c 128,-1,16
 224 318 224 318 224 331 c 128,-1,17
 224 344 224 344 233.5 353.5 c 128,-1,18
 243 363 243 363 256 363 c 128,-1,19
 269 363 269 363 278.5 353.5 c 128,-1,20
 288 344 288 344 288 331 c 128,-1,21
 288 318 288 318 278.5 308.5 c 128,-1,14
 269 299 269 299 256 299 c 128,-1,15
299 85 m 1,22,23
 299 75 299 75 288.5 64.5 c 128,-1,24
 278 54 278 54 267 48 c 2,25,-1
 256 43 l 1,26,27
 213 62 213 62 213 85 c 1,28,-1
 299 85 l 1,22,23
EndSplineSet
Validated: 553
EndChar

StartChar: upload
Encoding: 57384 57384 17
Width: 512
GlyphClass: 2
Flags: W
LayerCount: 2
Fore
SplineSet
213 235 m 6,0,1
 213 207 213 207 231.5 189 c 132,-1,2
 250 171 250 171 277 171 c 5,3,-1
 277 320 l 5,4,-1
 341 320 l 5,5,-1
 245 427 l 5,6,-1
 149 320 l 5,7,-1
 213 320 l 5,8,-1
 213 235 l 6,0,1
363 235 m 1,9,-1
 363 128 l 1,10,-1
 149 128 l 2,11,12
 140 128 140 128 134 134 c 128,-1,13
 128 140 128 140 128 149 c 2,14,-1
 128 235 l 1,15,-1
 85 235 l 1,16,-1
 85 149 l 2,17,18
 85 120 85 120 103 102.5 c 128,-1,19
 121 85 121 85 149 85 c 2,20,-1
 405 85 l 1,21,-1
 405 235 l 1,22,-1
 363 235 l 1,9,-1
EndSplineSet
Validated: 9
EndChar

StartChar: download
Encoding: 57385 57385 18
Width: 512
GlyphClass: 2
Flags: W
LayerCount: 2
Fore
SplineSet
341 277 m 1,0,-1
 277 277 l 1,1,-1
 277 427 l 1,2,3
 250 427 250 427 231.5 408.5 c 128,-1,4
 213 390 213 390 213 363 c 2,5,-1
 213 277 l 1,6,-1
 149 277 l 1,7,-1
 245 171 l 1,8,-1
 341 277 l 1,0,-1
363 235 m 1,9,-1
 363 128 l 1,10,-1
 149 128 l 2,11,12
 128 128 128 128 128 149 c 2,13,-1
 128 235 l 1,14,-1
 85 235 l 1,15,-1
 85 149 l 2,16,17
 85 120 85 120 103 102.5 c 128,-1,18
 121 85 121 85 149 85 c 2,19,-1
 405 85 l 1,20,-1
 405 235 l 1,21,-1
 363 235 l 1,9,-1
EndSplineSet
Validated: 9
EndChar

StartChar: new-window
Encoding: 57392 57392 19
Width: 512
GlyphClass: 2
Flags: W
LayerCount: 2
Fore
SplineSet
256 363 m 1,0,-1
 309 309 l 1,1,-1
 235 235 l 2,2,3
 216 216 216 216 216 192 c 128,-1,4
 216 168 216 168 235 149 c 1,5,-1
 352 267 l 1,6,-1
 405 213 l 1,7,-1
 405 363 l 1,8,-1
 256 363 l 1,0,-1
363 107 m 1,9,-1
 171 107 l 2,10,11
 149 107 149 107 149 128 c 2,12,-1
 149 320 l 1,13,-1
 213 320 l 1,14,-1
 171 363 l 1,15,-1
 107 363 l 1,16,-1
 107 128 l 2,17,18
 107 101 107 101 125 82.5 c 128,-1,19
 143 64 143 64 171 64 c 2,20,-1
 405 64 l 1,21,-1
 405 128 l 1,22,-1
 363 171 l 1,23,-1
 363 107 l 1,9,-1
EndSplineSet
Validated: 521
EndChar

StartChar: log-out
Encoding: 57393 57393 20
Width: 512
GlyphClass: 2
Flags: W
LayerCount: 2
Fore
SplineSet
320 213 m 1,0,-1
 320 149 l 1,1,-1
 427 245 l 1,2,-1
 320 341 l 1,3,-1
 320 277 l 1,4,-1
 171 277 l 1,5,6
 171 250 171 250 189 231.5 c 128,-1,7
 207 213 207 213 235 213 c 2,8,-1
 320 213 l 1,0,-1
299 405 m 1,9,-1
 85 405 l 1,10,-1
 85 85 l 1,11,-1
 299 85 l 1,12,-1
 299 128 l 1,13,-1
 128 128 l 1,14,-1
 128 363 l 1,15,-1
 299 363 l 1,16,-1
 299 405 l 1,9,-1
EndSplineSet
Validated: 521
EndChar

StartChar: map
Encoding: 57394 57394 21
Width: 512
GlyphClass: 2
Flags: W
LayerCount: 2
Fore
SplineSet
320 384 m 1,0,-1
 192 427 l 1,1,-1
 64 384 l 1,2,-1
 64 64 l 1,3,-1
 192 107 l 1,4,-1
 320 64 l 1,5,-1
 448 107 l 1,6,-1
 448 427 l 1,7,-1
 320 384 l 1,0,-1
186 126 m 1,8,-1
 85 94 l 1,9,-1
 85 369 l 1,10,-1
 192 405 l 1,11,-1
 192 130 l 1,12,-1
 186 126 l 1,8,-1
427 122 m 1,13,-1
 320 85 l 1,14,-1
 320 361 l 1,15,-1
 326 363 l 1,16,-1
 427 397 l 1,17,-1
 427 122 l 1,13,-1
EndSplineSet
Validated: 9
EndChar

StartChar: bell
Encoding: 57395 57395 22
Width: 512
GlyphClass: 2
Flags: W
LayerCount: 2
Fore
SplineSet
373 213 m 2,0,-1
 373 320 l 2,1,2
 373 368 373 368 340 397.5 c 128,-1,3
 307 427 307 427 256 427 c 128,-1,4
 205 427 205 427 172 397.5 c 128,-1,5
 139 368 139 368 139 320 c 2,6,-1
 139 213 l 2,7,8
 139 187 139 187 137.5 176.5 c 128,-1,9
 136 166 136 166 126.5 157.5 c 128,-1,10
 117 149 117 149 96 149 c 1,11,-1
 96 128 l 1,12,-1
 416 128 l 1,13,-1
 416 149 l 1,14,15
 386 149 386 149 379.5 162.5 c 128,-1,16
 373 176 373 176 373 213 c 2,0,-1
256 85 m 1,17,-1
 192 85 l 1,18,19
 192 69 192 69 212.5 56 c 128,-1,20
 233 43 233 43 256 43 c 128,-1,21
 279 43 279 43 299.5 56 c 128,-1,22
 320 69 320 69 320 85 c 1,23,-1
 256 85 l 1,17,-1
EndSplineSet
Validated: 9
EndChar

StartChar: bell-on
Encoding: 57396 57396 23
Width: 512
GlyphClass: 2
Flags: W
LayerCount: 2
Fore
SplineSet
380 198 m 2,0,-1
 416 299 l 2,1,2
 432 343 432 343 410.5 382.5 c 128,-1,3
 389 422 389 422 341 439 c 0,4,5
 293 457 293 457 251.5 440.5 c 128,-1,6
 210 424 210 424 194 380 c 2,7,-1
 158 279 l 2,8,9
 152 263 152 263 149.5 257 c 128,-1,10
 147 251 147 251 141.5 242.5 c 128,-1,11
 136 234 136 234 131 232 c 128,-1,12
 126 230 126 230 117 230.5 c 128,-1,13
 108 231 108 231 96 235 c 1,14,-1
 90 213 l 1,15,-1
 390 105 l 1,16,-1
 397 124 l 1,17,18
 369 134 369 134 367.5 151.5 c 128,-1,19
 366 169 366 169 380 198 c 2,0,-1
256 90 m 1,20,-1
 196 111 l 1,21,22
 191 97 191 97 205.5 77 c 128,-1,23
 220 57 220 57 241 49 c 128,-1,24
 262 41 262 41 286.5 46.5 c 128,-1,25
 311 52 311 52 316 68 c 1,26,-1
 256 90 l 1,20,-1
EndSplineSet
Validated: 553
EndChar

StartChar: vision-simulator
Encoding: 57397 57397 24
Width: 512
GlyphClass: 2
Flags: W
LayerCount: 2
Fore
SplineSet
256 299 m 1,0,-1
 0 299 l 1,1,-1
 0 128 l 1,2,-1
 49 128 l 1,3,4
 59 107 59 107 85 107 c 2,5,-1
 171 107 l 2,6,7
 195 107 195 107 212.5 118.5 c 128,-1,8
 230 130 230 130 235 149 c 1,9,-1
 277 149 l 1,10,11
 282 130 282 130 299.5 118.5 c 128,-1,12
 317 107 317 107 341 107 c 2,13,-1
 427 107 l 2,14,15
 457 107 457 107 463 128 c 1,16,-1
 512 128 l 1,17,-1
 512 299 l 1,18,-1
 256 299 l 1,0,-1
213 171 m 2,19,20
 213 128 213 128 171 128 c 2,21,-1
 85 128 l 2,22,23
 76 128 76 128 70 134 c 128,-1,24
 64 140 64 140 64 149 c 2,25,-1
 64 213 l 2,26,27
 64 223 64 223 70 229 c 128,-1,28
 76 235 76 235 85 235 c 2,29,-1
 192 235 l 2,30,31
 213 235 213 235 213 213 c 2,32,-1
 213 171 l 2,19,20
448 149 m 2,33,34
 448 140 448 140 442 134 c 128,-1,35
 436 128 436 128 427 128 c 2,36,-1
 341 128 l 2,37,38
 299 128 299 128 299 171 c 2,39,-1
 299 213 l 2,40,41
 299 235 299 235 320 235 c 2,42,-1
 427 235 l 2,43,44
 436 235 436 235 442 229 c 128,-1,45
 448 223 448 223 448 213 c 2,46,-1
 448 149 l 2,33,34
EndSplineSet
Validated: 521
EndChar

StartChar: full-moon
Encoding: 57400 57400 25
Width: 512
GlyphClass: 2
Flags: W
LayerCount: 2
Fore
SplineSet
256 405 m 128,-1,1
 185 405 185 405 135 355 c 128,-1,2
 85 305 85 305 85 235 c 0,3,4
 85 164 85 164 135.5 114 c 128,-1,5
 186 64 186 64 256 64 c 128,-1,6
 326 64 326 64 376.5 114 c 128,-1,7
 427 164 427 164 427 235 c 0,8,9
 427 305 427 305 377 355 c 128,-1,0
 327 405 327 405 256 405 c 128,-1,1
EndSplineSet
Validated: 521
EndChar

StartChar: moon
Encoding: 57401 57401 26
Width: 512
GlyphClass: 2
Flags: W
LayerCount: 2
Fore
SplineSet
407 139 m 0,0,1
 354 117 354 117 301.5 138.5 c 128,-1,2
 249 160 249 160 226 213 c 0,3,4
 204 266 204 266 226 319 c 128,-1,5
 248 372 248 372 301 395 c 2,6,-1
 316 401 l 1,7,8
 265 414 265 414 213 393 c 0,9,10
 149 365 149 365 122 300 c 128,-1,11
 95 235 95 235 122 171 c 0,12,13
 149 105 149 105 214.5 78.5 c 128,-1,14
 280 52 280 52 346 79 c 0,15,16
 401 102 401 102 427 151 c 1,17,18
 425 149 425 149 407 139 c 0,0,1
EndSplineSet
Validated: 41
EndChar

StartChar: large-text
Encoding: 57408 57408 27
Width: 512
GlyphClass: 2
Flags: W
LayerCount: 2
Fore
SplineSet
444 85 m 1,0,-1
 271 85 l 1,1,-1
 271 102 l 2,2,3
 272 102 272 102 299 107 c 0,4,5
 316 110 316 110 316 115 c 2,6,-1
 316 119 l 2,7,8
 316 124 316 124 314 126 c 2,9,-1
 286 192 l 1,10,-1
 177 192 l 1,11,12
 172 177 172 177 169 171 c 0,13,14
 168 167 168 167 164.5 160 c 128,-1,15
 161 153 161 153 160 149 c 0,16,17
 156 133 156 133 156 132 c 2,18,-1
 156 124 l 2,19,20
 156 118 156 118 166 111 c 0,21,22
 176 105 176 105 203 105 c 1,23,-1
 203 85 l 1,24,-1
 73 85 l 1,25,-1
 73 102 l 2,26,27
 75 102 75 102 80.5 103.5 c 128,-1,28
 86 105 86 105 90 105 c 0,29,30
 93 106 93 106 97.5 107 c 128,-1,31
 102 108 102 108 105 109 c 0,32,33
 113 114 113 114 119 122 c 0,34,35
 127 132 127 132 130 141 c 0,36,37
 136 155 136 155 146 180.5 c 128,-1,38
 156 206 156 206 164.5 227 c 128,-1,39
 173 248 173 248 181 267 c 0,40,41
 190 289 190 289 209.5 335 c 128,-1,42
 229 381 229 381 239 405 c 1,43,-1
 284 405 l 1,44,45
 301 366 301 366 323.5 309 c 128,-1,46
 346 252 346 252 352 237 c 0,47,48
 393 137 393 137 395 134 c 2,49,-1
 401 122 l 2,50,51
 403 117 403 117 414 111 c 0,52,53
 422 107 422 107 429 105 c 0,54,55
 435 102 435 102 444 102 c 1,56,-1
 444 85 l 1,0,-1
277 213 m 1,57,-1
 233 326 l 1,58,-1
 188 213 l 1,59,-1
 277 213 l 1,57,-1
EndSplineSet
Validated: 513
EndChar

StartChar: smaller-text
Encoding: 57409 57409 28
Width: 512
GlyphClass: 2
Flags: W
LayerCount: 2
Fore
SplineSet
375 85 m 1,0,-1
 260 85 l 1,1,-1
 260 96 l 2,2,3
 262 96 262 96 268.5 97 c 128,-1,4
 275 98 275 98 279 98 c 0,5,6
 290 101 290 101 290 105 c 2,7,-1
 290 107 l 2,8,9
 290 109 290 109 288 111 c 2,10,-1
 271 154 l 1,11,-1
 198 154 l 2,12,13
 197 152 197 152 196 149.5 c 128,-1,14
 195 147 195 147 194 144.5 c 128,-1,15
 193 142 193 142 192 139 c 0,16,17
 188 125 188 125 188 124 c 0,18,19
 185 114 185 114 183 111 c 2,20,-1
 183 107 l 2,21,22
 183 102 183 102 190 98 c 0,23,24
 198 94 198 94 213 94 c 1,25,-1
 213 85 l 1,26,-1
 128 85 l 1,27,-1
 128 96 l 1,28,29
 134 96 134 96 139 98 c 0,30,31
 141 98 141 98 149 102 c 0,32,33
 158 108 158 108 160 111 c 0,34,35
 164 119 164 119 166 124 c 0,36,37
 171 135 171 135 183 163.5 c 128,-1,38
 195 192 195 192 201 207 c 0,39,40
 212 238 212 238 239 299 c 1,41,-1
 269 299 l 1,42,43
 279 274 279 274 294 236 c 128,-1,44
 309 198 309 198 314 186 c 0,45,46
 319 171 319 171 328.5 147.5 c 128,-1,47
 338 124 338 124 341 117 c 0,48,49
 342 116 342 116 343 113 c 128,-1,50
 344 110 344 110 346 109 c 0,51,52
 350 105 350 105 354 102 c 0,53,54
 355 101 355 101 359 100 c 128,-1,55
 363 99 363 99 365 98 c 0,56,57
 369 96 369 96 375 96 c 1,58,-1
 375 85 l 1,0,-1
265 171 m 1,59,-1
 235 247 l 1,60,-1
 205 171 l 1,61,-1
 265 171 l 1,59,-1
EndSplineSet
Validated: 513
EndChar

StartChar: close-input
Encoding: 57424 57424 29
Width: 512
GlyphClass: 2
Flags: W
LayerCount: 2
Fore
SplineSet
256 405 m 128,-1,1
 185 405 185 405 135 355 c 128,-1,2
 85 305 85 305 85 235 c 0,3,4
 85 164 85 164 135.5 114 c 128,-1,5
 186 64 186 64 256 64 c 128,-1,6
 326 64 326 64 376.5 114 c 128,-1,7
 427 164 427 164 427 235 c 0,8,9
 427 305 427 305 377 355 c 128,-1,0
 327 405 327 405 256 405 c 128,-1,1
341 171 m 1,10,-1
 320 149 l 1,11,-1
 256 213 l 1,12,-1
 192 149 l 1,13,-1
 171 171 l 1,14,-1
 235 235 l 1,15,-1
 171 299 l 1,16,-1
 192 320 l 1,17,-1
 256 256 l 1,18,-1
 320 320 l 1,19,-1
 341 299 l 1,20,-1
 277 235 l 1,21,-1
 341 171 l 1,10,-1
EndSplineSet
Validated: 521
EndChar

StartChar: cross
Encoding: 57425 57425 30
Width: 512
GlyphClass: 2
Flags: W
LayerCount: 2
Fore
SplineSet
393 339 m 2,0,1
 406 352 406 352 406 369 c 128,-1,2
 406 386 406 386 393 399 c 1,3,-1
 256 260 l 1,4,-1
 137 380 l 1,5,-1
 107 350 l 1,6,-1
 226 230 l 1,7,-1
 119 124 l 2,8,9
 106 111 106 111 106 94 c 128,-1,10
 106 77 106 77 119 64 c 1,11,-1
 256 201 l 1,12,-1
 375 81 l 1,13,-1
 405 111 l 1,14,-1
 286 230 l 1,15,-1
 393 339 l 2,0,1
EndSplineSet
Validated: 9
EndChar

StartChar: check
Encoding: 57426 57426 31
Width: 512
GlyphClass: 2
Flags: W
LayerCount: 2
Fore
SplineSet
395 384 m 2,0,-1
 181 171 l 1,1,-1
 75 277 l 1,2,-1
 43 245 l 1,3,-1
 181 107 l 1,4,-1
 459 384 l 1,5,6
 446 397 446 397 427 397 c 128,-1,7
 408 397 408 397 395 384 c 2,0,-1
EndSplineSet
Validated: 9
EndChar

StartChar: caret-down
Encoding: 57427 57427 32
Width: 512
GlyphClass: 2
Flags: W
LayerCount: 2
Fore
SplineSet
256 85 m 1,0,-1
 446 275 l 1,1,2
 433 288 433 288 416 288 c 128,-1,3
 399 288 399 288 386 275 c 2,4,-1
 256 145 l 1,5,-1
 126 273 l 2,6,7
 113 286 113 286 96 286 c 128,-1,8
 79 286 79 286 66 273 c 1,9,-1
 256 85 l 1,0,-1
EndSplineSet
Validated: 521
EndChar

StartChar: caret-up
Encoding: 57428 57428 33
Width: 512
GlyphClass: 2
Flags: W
LayerCount: 2
Fore
SplineSet
256 299 m 1,0,-1
 64 107 l 1,1,2
 77 94 77 94 96 94 c 128,-1,3
 115 94 115 94 128 107 c 2,4,-1
 256 235 l 1,5,-1
 384 107 l 2,6,7
 397 94 397 94 416 94 c 128,-1,8
 435 94 435 94 448 107 c 1,9,-1
 256 299 l 1,0,-1
EndSplineSet
Validated: 521
EndChar

StartChar: caret-left
Encoding: 57429 57429 34
Width: 512
GlyphClass: 2
Flags: W
LayerCount: 2
Fore
SplineSet
149 233 m 1,0,-1
 339 43 l 1,1,2
 352 56 352 56 352 72.5 c 128,-1,3
 352 89 352 89 339 102 c 2,4,-1
 209 233 l 1,5,-1
 337 363 l 2,6,7
 350 376 350 376 350 392.5 c 128,-1,8
 350 409 350 409 337 422 c 1,9,-1
 149 233 l 1,0,-1
EndSplineSet
Validated: 521
EndChar

StartChar: arrow-left
Encoding: 57431 57431 35
Width: 512
GlyphClass: 2
Flags: W
LayerCount: 2
Fore
SplineSet
171 256 m 1,0,-1
 384 256 l 2,1,2
 411 256 411 256 429.5 237.5 c 128,-1,3
 448 219 448 219 448 192 c 1,4,-1
 171 192 l 1,5,-1
 171 128 l 1,6,-1
 64 224 l 1,7,-1
 171 320 l 1,8,-1
 171 256 l 1,0,-1
EndSplineSet
Validated: 513
EndChar

StartChar: triangle-down
Encoding: 57441 57441 36
Width: 512
GlyphClass: 2
Flags: W
LayerCount: 2
Fore
SplineSet
256 128 m 1,0,-1
 427 341 l 1,1,-1
 85 341 l 1,2,-1
 256 128 l 1,0,-1
EndSplineSet
Validated: 521
EndChar

StartChar: plus
Encoding: 57445 57445 37
Width: 512
GlyphClass: 2
Flags: W
LayerCount: 2
Fore
SplineSet
405 256 m 2,0,-1
 277 256 l 1,1,-1
 277 405 l 1,2,-1
 235 405 l 1,3,-1
 235 256 l 1,4,-1
 85 256 l 1,5,-1
 85 235 l 2,6,7
 85 213 85 213 107 213 c 2,8,-1
 235 213 l 1,9,-1
 235 64 l 1,10,-1
 277 64 l 1,11,-1
 277 213 l 1,12,-1
 427 213 l 1,13,-1
 427 235 l 2,14,15
 427 244 427 244 421 250 c 128,-1,16
 415 256 415 256 405 256 c 2,0,-1
EndSplineSet
Validated: 9
EndChar

StartChar: minus
Encoding: 57446 57446 38
Width: 512
GlyphClass: 2
Flags: W
LayerCount: 2
Fore
SplineSet
427 213 m 5,0,-1
 427 235 l 6,1,2
 427 244 427 244 421 250 c 132,-1,3
 415 256 415 256 405 256 c 6,4,-1
 85 256 l 5,5,-1
 85 235 l 6,6,7
 85 213 85 213 107 213 c 6,8,-1
 427 213 l 5,0,-1
EndSplineSet
Validated: 9
EndChar

StartChar: article
Encoding: 57600 57600 39
Width: 512
GlyphClass: 2
Flags: W
LayerCount: 2
Fore
SplineSet
256 299 m 1,0,-1
 341 299 l 1,1,-1
 341 405 l 1,2,-1
 256 405 l 1,3,-1
 256 299 l 1,0,-1
149 256 m 1,4,-1
 341 256 l 1,5,-1
 341 277 l 1,6,-1
 149 277 l 1,7,-1
 149 256 l 1,4,-1
149 213 m 1,8,-1
 341 213 l 1,9,-1
 341 235 l 1,10,-1
 149 235 l 1,11,-1
 149 213 l 1,8,-1
149 171 m 1,12,-1
 341 171 l 1,13,-1
 341 192 l 1,14,-1
 149 192 l 1,15,-1
 149 171 l 1,12,-1
235 363 m 1,16,-1
 149 363 l 1,17,-1
 149 341 l 1,18,-1
 235 341 l 1,19,-1
 235 363 l 1,16,-1
235 320 m 1,20,-1
 149 320 l 1,21,-1
 149 299 l 1,22,-1
 235 299 l 1,23,-1
 235 320 l 1,20,-1
235 405 m 1,24,-1
 149 405 l 1,25,-1
 149 384 l 1,26,-1
 235 384 l 1,27,-1
 235 405 l 1,24,-1
107 448 m 1,28,-1
 384 448 l 1,29,-1
 384 107 l 1,30,-1
 171 107 l 2,31,32
 143 107 143 107 125 125 c 128,-1,33
 107 143 107 143 107 171 c 2,34,-1
 107 448 l 1,28,-1
EndSplineSet
Validated: 1
EndChar

StartChar: article-check
Encoding: 57601 57601 40
Width: 512
GlyphClass: 2
Flags: W
LayerCount: 2
Fore
SplineSet
448 277 m 1,0,-1
 320 128 l 1,1,-1
 235 213 l 1,2,-1
 213 192 l 1,3,-1
 320 85 l 1,4,-1
 469 256 l 1,5,-1
 448 277 l 1,0,-1
363 213 m 1,6,-1
 363 448 l 1,7,-1
 85 448 l 1,8,-1
 85 171 l 2,9,10
 85 143 85 143 103.5 125 c 128,-1,11
 122 107 122 107 149 107 c 2,12,-1
 256 107 l 1,13,-1
 192 171 l 1,14,-1
 128 171 l 1,15,-1
 128 192 l 1,16,-1
 183 192 l 1,17,-1
 205 213 l 1,18,-1
 128 213 l 1,19,-1
 128 235 l 1,20,-1
 320 235 l 1,21,-1
 320 213 l 1,22,-1
 277 213 l 1,23,-1
 299 192 l 1,24,-1
 341 192 l 1,25,-1
 363 213 l 1,6,-1
128 405 m 1,26,-1
 213 405 l 1,27,-1
 213 384 l 1,28,-1
 128 384 l 1,29,-1
 128 405 l 1,26,-1
128 363 m 1,30,-1
 213 363 l 1,31,-1
 213 341 l 1,32,-1
 128 341 l 1,33,-1
 128 363 l 1,30,-1
128 320 m 1,34,-1
 213 320 l 1,35,-1
 213 299 l 1,36,-1
 128 299 l 1,37,-1
 128 320 l 1,34,-1
320 256 m 1,38,-1
 128 256 l 1,39,-1
 128 277 l 1,40,-1
 320 277 l 1,41,-1
 320 256 l 1,38,-1
235 299 m 1,42,-1
 235 405 l 1,43,-1
 320 405 l 1,44,-1
 320 299 l 1,45,-1
 235 299 l 1,42,-1
EndSplineSet
Validated: 521
EndChar

StartChar: article-search
Encoding: 57602 57602 41
Width: 512
GlyphClass: 2
Flags: W
LayerCount: 2
Fore
SplineSet
407 117 m 1,0,1
 427 140 427 140 427 171 c 0,2,3
 427 206 427 206 401.5 231 c 128,-1,4
 376 256 376 256 341 256 c 128,-1,5
 306 256 306 256 281 231 c 128,-1,6
 256 206 256 206 256 171 c 128,-1,7
 256 136 256 136 281 110.5 c 128,-1,8
 306 85 306 85 341 85 c 0,9,10
 366 85 366 85 380 94 c 1,11,-1
 437 36 l 1,12,-1
 461 60 l 1,13,-1
 407 117 l 1,0,1
341 124 m 128,-1,15
 322 124 322 124 308 138 c 128,-1,16
 294 152 294 152 294 173 c 0,17,18
 294 192 294 192 308 206 c 128,-1,19
 322 220 322 220 341 220 c 0,20,21
 361 220 361 220 375.5 206 c 128,-1,22
 390 192 390 192 390 173 c 0,23,24
 388 152 388 152 374 138 c 128,-1,14
 360 124 360 124 341 124 c 128,-1,15
252 235 m 1,25,26
 261 247 261 247 273 256 c 1,27,-1
 149 256 l 1,28,-1
 149 277 l 1,29,-1
 341 277 l 2,30,31
 367 277 367 277 384 265 c 1,32,-1
 384 448 l 1,33,-1
 107 448 l 1,34,-1
 107 171 l 2,35,36
 107 143 107 143 125 125 c 128,-1,37
 143 107 143 107 171 107 c 2,38,-1
 252 107 l 1,39,40
 230 136 230 136 230 171 c 1,41,-1
 149 171 l 1,42,-1
 149 192 l 1,43,-1
 233 192 l 2,44,45
 234 195 234 195 236 202.5 c 128,-1,46
 238 210 238 210 239 213 c 2,47,-1
 149 213 l 1,48,-1
 149 235 l 1,49,-1
 252 235 l 1,25,26
256 405 m 1,50,-1
 341 405 l 1,51,-1
 341 299 l 1,52,-1
 256 299 l 1,53,-1
 256 405 l 1,50,-1
149 405 m 1,54,-1
 235 405 l 1,55,-1
 235 384 l 1,56,-1
 149 384 l 1,57,-1
 149 405 l 1,54,-1
149 363 m 1,58,-1
 235 363 l 1,59,-1
 235 341 l 1,60,-1
 149 341 l 1,61,-1
 149 363 l 1,58,-1
149 320 m 1,62,-1
 235 320 l 1,63,-1
 235 299 l 1,64,-1
 149 299 l 1,65,-1
 149 320 l 1,62,-1
EndSplineSet
Validated: 521
EndChar

StartChar: stripe-menu
Encoding: 57616 57616 42
Width: 512
GlyphClass: 2
Flags: W
LayerCount: 2
Fore
SplineSet
427 107 m 1,0,-1
 85 107 l 1,1,-1
 85 149 l 1,2,-1
 427 149 l 1,3,-1
 427 107 l 1,0,-1
427 192 m 1,4,-1
 85 192 l 1,5,-1
 85 235 l 1,6,-1
 427 235 l 1,7,-1
 427 192 l 1,4,-1
427 277 m 1,8,-1
 85 277 l 1,9,-1
 85 320 l 1,10,-1
 427 320 l 1,11,-1
 427 277 l 1,8,-1
EndSplineSet
Validated: 513
EndChar

StartChar: stripe-toc
Encoding: 57617 57617 43
Width: 512
GlyphClass: 2
Flags: W
LayerCount: 2
Fore
SplineSet
363 235 m 1,0,-1
 85 235 l 1,1,-1
 85 299 l 1,2,-1
 363 299 l 1,3,-1
 363 235 l 1,0,-1
256 107 m 1,4,-1
 85 107 l 1,5,-1
 85 171 l 1,6,-1
 256 171 l 1,7,-1
 256 107 l 1,4,-1
85 363 m 1,8,-1
 85 427 l 1,9,-1
 427 427 l 1,10,-1
 427 363 l 1,11,-1
 85 363 l 1,8,-1
EndSplineSet
Validated: 513
EndChar

StartChar: stripe-flow
Encoding: 57618 57618 44
Width: 512
GlyphClass: 2
Flags: W
LayerCount: 2
Fore
SplineSet
85 320 m 1,0,-1
 341 320 l 1,1,-1
 341 277 l 1,2,-1
 85 277 l 1,3,-1
 85 320 l 1,0,-1
85 256 m 1,4,-1
 256 256 l 1,5,-1
 256 213 l 1,6,-1
 85 213 l 1,7,-1
 85 256 l 1,4,-1
85 405 m 1,8,-1
 427 405 l 1,9,-1
 427 341 l 1,10,-1
 85 341 l 1,11,-1
 85 405 l 1,8,-1
427 107 m 1,12,-1
 85 107 l 1,13,-1
 85 171 l 1,14,-1
 427 171 l 1,15,-1
 427 107 l 1,12,-1
EndSplineSet
Validated: 513
EndChar

StartChar: stripe-summary
Encoding: 57619 57619 45
Width: 512
GlyphClass: 2
Flags: W
LayerCount: 2
Fore
SplineSet
427 277 m 1,0,-1
 85 277 l 1,1,-1
 85 320 l 1,2,-1
 427 320 l 1,3,-1
 427 277 l 1,0,-1
85 256 m 1,4,-1
 256 256 l 1,5,-1
 256 213 l 1,6,-1
 85 213 l 1,7,-1
 85 256 l 1,4,-1
EndSplineSet
Validated: 513
EndChar

StartChar: view-compact
Encoding: 57620 57620 46
Width: 512
GlyphClass: 2
Flags: W
LayerCount: 2
Fore
SplineSet
171 384 m 128,-1,1
 171 366 171 366 158.5 353.5 c 128,-1,2
 146 341 146 341 128 341 c 128,-1,3
 110 341 110 341 97.5 353.5 c 128,-1,4
 85 366 85 366 85 384 c 128,-1,5
 85 402 85 402 97.5 414.5 c 128,-1,6
 110 427 110 427 128 427 c 128,-1,7
 146 427 146 427 158.5 414.5 c 128,-1,0
 171 402 171 402 171 384 c 128,-1,1
299 384 m 128,-1,9
 299 366 299 366 286.5 353.5 c 128,-1,10
 274 341 274 341 256 341 c 128,-1,11
 238 341 238 341 225.5 353.5 c 128,-1,12
 213 366 213 366 213 384 c 128,-1,13
 213 402 213 402 225.5 414.5 c 128,-1,14
 238 427 238 427 256 427 c 128,-1,15
 274 427 274 427 286.5 414.5 c 128,-1,8
 299 402 299 402 299 384 c 128,-1,9
427 384 m 128,-1,17
 427 366 427 366 414.5 353.5 c 128,-1,18
 402 341 402 341 384 341 c 128,-1,19
 366 341 366 341 353.5 353.5 c 128,-1,20
 341 366 341 366 341 384 c 128,-1,21
 341 402 341 402 353.5 414.5 c 128,-1,22
 366 427 366 427 384 427 c 128,-1,23
 402 427 402 427 414.5 414.5 c 128,-1,16
 427 402 427 402 427 384 c 128,-1,17
171 256 m 128,-1,25
 171 238 171 238 158.5 225.5 c 128,-1,26
 146 213 146 213 128 213 c 128,-1,27
 110 213 110 213 97.5 225.5 c 128,-1,28
 85 238 85 238 85 256 c 128,-1,29
 85 274 85 274 97.5 286.5 c 128,-1,30
 110 299 110 299 128 299 c 128,-1,31
 146 299 146 299 158.5 286.5 c 128,-1,24
 171 274 171 274 171 256 c 128,-1,25
299 256 m 128,-1,33
 299 238 299 238 286.5 225.5 c 128,-1,34
 274 213 274 213 256 213 c 128,-1,35
 238 213 238 213 225.5 225.5 c 128,-1,36
 213 238 213 238 213 256 c 128,-1,37
 213 274 213 274 225.5 286.5 c 128,-1,38
 238 299 238 299 256 299 c 128,-1,39
 274 299 274 299 286.5 286.5 c 128,-1,32
 299 274 299 274 299 256 c 128,-1,33
427 256 m 128,-1,41
 427 238 427 238 414.5 225.5 c 128,-1,42
 402 213 402 213 384 213 c 128,-1,43
 366 213 366 213 353.5 225.5 c 128,-1,44
 341 238 341 238 341 256 c 128,-1,45
 341 274 341 274 353.5 286.5 c 128,-1,46
 366 299 366 299 384 299 c 128,-1,47
 402 299 402 299 414.5 286.5 c 128,-1,40
 427 274 427 274 427 256 c 128,-1,41
171 128 m 128,-1,49
 171 110 171 110 158.5 97.5 c 128,-1,50
 146 85 146 85 128 85 c 128,-1,51
 110 85 110 85 97.5 97.5 c 128,-1,52
 85 110 85 110 85 128 c 128,-1,53
 85 146 85 146 97.5 158.5 c 128,-1,54
 110 171 110 171 128 171 c 128,-1,55
 146 171 146 171 158.5 158.5 c 128,-1,48
 171 146 171 146 171 128 c 128,-1,49
299 128 m 128,-1,57
 299 110 299 110 286.5 97.5 c 128,-1,58
 274 85 274 85 256 85 c 128,-1,59
 238 85 238 85 225.5 97.5 c 128,-1,60
 213 110 213 110 213 128 c 128,-1,61
 213 146 213 146 225.5 158.5 c 128,-1,62
 238 171 238 171 256 171 c 128,-1,63
 274 171 274 171 286.5 158.5 c 128,-1,56
 299 146 299 146 299 128 c 128,-1,57
427 128 m 128,-1,65
 427 110 427 110 414.5 97.5 c 128,-1,66
 402 85 402 85 384 85 c 128,-1,67
 366 85 366 85 353.5 97.5 c 128,-1,68
 341 110 341 110 341 128 c 128,-1,69
 341 146 341 146 353.5 158.5 c 128,-1,70
 366 171 366 171 384 171 c 128,-1,71
 402 171 402 171 414.5 158.5 c 128,-1,64
 427 146 427 146 427 128 c 128,-1,65
EndSplineSet
Validated: 513
EndChar

StartChar: view-details
Encoding: 57621 57621 47
Width: 512
GlyphClass: 2
Flags: W
LayerCount: 2
Fore
SplineSet
171 331 m 0,0,1
 171 308 171 308 155.5 292.5 c 128,-1,2
 140 277 140 277 117 277 c 0,3,4
 95 277 95 277 79.5 293 c 128,-1,5
 64 309 64 309 64 331 c 128,-1,6
 64 353 64 353 79.5 368.5 c 128,-1,7
 95 384 95 384 117 384 c 128,-1,8
 139 384 139 384 155 368.5 c 128,-1,9
 171 353 171 353 171 331 c 0,0,1
213 384 m 1,10,-1
 469 384 l 1,11,-1
 469 363 l 1,12,-1
 213 363 l 1,13,-1
 213 384 l 1,10,-1
213 341 m 1,14,-1
 405 341 l 1,15,-1
 405 320 l 1,16,-1
 213 320 l 1,17,-1
 213 341 l 1,14,-1
213 299 m 1,18,-1
 299 299 l 1,19,-1
 299 277 l 1,20,-1
 213 277 l 1,21,-1
 213 299 l 1,18,-1
171 160 m 128,-1,23
 171 138 171 138 155 122.5 c 128,-1,24
 139 107 139 107 117 107 c 128,-1,25
 95 107 95 107 79.5 122.5 c 128,-1,26
 64 138 64 138 64 160 c 128,-1,27
 64 182 64 182 79.5 197.5 c 128,-1,28
 95 213 95 213 117 213 c 128,-1,29
 139 213 139 213 155 197.5 c 128,-1,22
 171 182 171 182 171 160 c 128,-1,23
213 213 m 1,30,-1
 469 213 l 1,31,-1
 469 192 l 1,32,-1
 213 192 l 1,33,-1
 213 213 l 1,30,-1
213 171 m 1,34,-1
 405 171 l 1,35,-1
 405 149 l 1,36,-1
 213 149 l 1,37,-1
 213 171 l 1,34,-1
213 128 m 1,38,-1
 299 128 l 1,39,-1
 299 107 l 1,40,-1
 213 107 l 1,41,-1
 213 128 l 1,38,-1
EndSplineSet
Validated: 513
EndChar

StartChar: flag
Encoding: 57652 57652 48
Width: 512
GlyphClass: 2
Flags: W
LayerCount: 2
Fore
SplineSet
277 352 m 1,0,-1
 277 384 l 1,1,2
 254 407 254 407 208 405.5 c 128,-1,3
 162 404 162 404 149 384 c 1,4,-1
 149 405 l 1,5,-1
 128 405 l 1,6,-1
 128 85 l 1,7,-1
 149 85 l 1,8,-1
 149 235 l 1,9,10
 161 247 161 247 196 249.5 c 128,-1,11
 231 252 231 252 256 245 c 1,12,-1
 256 213 l 1,13,14
 276 190 276 190 313.5 191.5 c 128,-1,15
 351 193 351 193 363 213 c 1,16,-1
 363 363 l 1,17,18
 352 352 352 352 325 348.5 c 128,-1,19
 298 345 298 345 277 352 c 1,0,-1
EndSplineSet
Validated: 41
EndChar

StartChar: flag-undo
Encoding: 57653 57653 49
Width: 512
GlyphClass: 2
Flags: W
LayerCount: 2
Fore
SplineSet
171 384 m 1,0,-1
 171 405 l 1,1,-1
 149 405 l 1,2,-1
 149 256 l 1,3,-1
 286 393 l 1,4,5
 260 408 260 408 221 405 c 128,-1,6
 182 402 182 402 171 384 c 1,0,-1
326 348 m 1,7,-1
 405 427 l 1,8,-1
 384 448 l 1,9,-1
 43 107 l 1,10,-1
 64 85 l 1,11,-1
 149 171 l 1,12,-1
 149 85 l 1,13,-1
 171 85 l 1,14,-1
 171 192 l 1,15,-1
 228 250 l 1,16,17
 240 250 240 250 277 245 c 1,18,-1
 277 213 l 1,19,20
 297 190 297 190 334.5 191.5 c 128,-1,21
 372 193 372 193 384 213 c 1,22,-1
 384 363 l 1,23,24
 369 348 369 348 326 348 c 1,7,-1
EndSplineSet
Validated: 553
EndChar

StartChar: user-avatar
Encoding: 57696 57696 50
Width: 512
GlyphClass: 2
Flags: W
LayerCount: 2
Fore
SplineSet
254.280273438 174.405273438 m 132,-1,1
 296.481445312 174.405273438 296.481445312 174.405273438 332.328125 162.908203125 c 132,-1,2
 368.173828125 151.411132812 368.173828125 151.411132812 389.727539062 134.092773438 c 132,-1,3
 411.280273438 116.774414062 411.280273438 116.774414062 423.211914062 98.2236328125 c 132,-1,4
 435.14453125 79.673828125 435.14453125 79.673828125 435.14453125 63.876953125 c 6,5,-1
 435.14453125 43.7802734375 l 5,6,-1
 73.416015625 43.7802734375 l 5,7,-1
 73.416015625 63.876953125 l 6,8,9
 73.416015625 79.673828125 73.416015625 79.673828125 85.34765625 98.2236328125 c 132,-1,10
 97.2802734375 116.774414062 97.2802734375 116.774414062 118.833007812 134.092773438 c 132,-1,11
 140.385742188 151.411132812 140.385742188 151.411132812 176.232421875 162.908203125 c 132,-1,0
 212.078125 174.405273438 212.078125 174.405273438 254.280273438 174.405273438 c 132,-1,1
153.799804688 305.029296875 m 132,-1,13
 153.799804688 346.649414062 153.799804688 346.649414062 183.229492188 376.079101562 c 132,-1,14
 212.66015625 405.509765625 212.66015625 405.509765625 254.280273438 405.509765625 c 132,-1,15
 295.900390625 405.509765625 295.900390625 405.509765625 325.330078125 376.079101562 c 132,-1,16
 354.759765625 346.649414062 354.759765625 346.649414062 354.759765625 305.029296875 c 132,-1,17
 354.759765625 263.409179688 354.759765625 263.409179688 325.330078125 233.979492188 c 132,-1,18
 295.900390625 204.548828125 295.900390625 204.548828125 254.280273438 204.548828125 c 132,-1,19
 212.66015625 204.548828125 212.66015625 204.548828125 183.229492188 233.979492188 c 132,-1,12
 153.799804688 263.409179688 153.799804688 263.409179688 153.799804688 305.029296875 c 132,-1,13
EndSplineSet
Validated: 513
EndChar

StartChar: user-active
Encoding: 57697 57697 51
Width: 512
GlyphClass: 2
Flags: W
LayerCount: 2
Fore
SplineSet
341 405 m 2,0,-1
 85 405 l 1,1,-1
 85 149 l 2,2,3
 85 122 85 122 103.5 103.5 c 128,-1,4
 122 85 122 85 149 85 c 2,5,-1
 405 85 l 1,6,-1
 405 341 l 2,7,8
 405 369 405 369 387 387 c 128,-1,9
 369 405 369 405 341 405 c 2,0,-1
299 320 m 128,-1,11
 310 320 310 320 317 312 c 128,-1,12
 324 304 324 304 324 294 c 0,13,14
 324 285 324 285 316 277 c 128,-1,15
 308 269 308 269 299 269 c 0,16,17
 289 269 289 269 281 277 c 128,-1,18
 273 285 273 285 273 294 c 0,19,20
 273 304 273 304 280.5 312 c 128,-1,10
 288 320 288 320 299 320 c 128,-1,11
192 320 m 128,-1,22
 203 320 203 320 210.5 312 c 128,-1,23
 218 304 218 304 218 294 c 128,-1,24
 218 284 218 284 210.5 275.5 c 128,-1,25
 203 267 203 267 192 267 c 128,-1,26
 181 267 181 267 173.5 274.5 c 128,-1,27
 166 282 166 282 166 292 c 128,-1,28
 166 302 166 302 173.5 311 c 128,-1,21
 181 320 181 320 192 320 c 128,-1,22
341 205 m 0,29,30
 341 200 341 200 335 194 c 0,31,32
 316 178 316 178 279 166 c 0,33,34
 253 159 253 159 213 166 c 0,35,36
 189 172 189 172 156 198 c 0,37,38
 151 206 151 206 151 207 c 0,39,40
 151 210 151 210 156 215 c 0,41,42
 159 220 159 220 164 220 c 0,43,44
 170 220 170 220 173 215 c 0,45,46
 190 198 190 198 218 192 c 128,-1,47
 246 186 246 186 273 192 c 0,48,49
 302 198 302 198 318 213 c 0,50,51
 323 218 323 218 326 218 c 0,52,53
 327 218 327 218 337 213 c 0,54,55
 341 211 341 211 341 205 c 0,29,30
EndSplineSet
Validated: 553
EndChar

StartChar: user-inactive
Encoding: 57698 57698 52
Width: 512
GlyphClass: 2
Flags: W
LayerCount: 2
Fore
SplineSet
341 405 m 2,0,-1
 85 405 l 1,1,-1
 85 149 l 2,2,3
 85 122 85 122 103.5 103.5 c 128,-1,4
 122 85 122 85 149 85 c 2,5,-1
 405 85 l 1,6,-1
 405 341 l 2,7,8
 405 369 405 369 387 387 c 128,-1,9
 369 405 369 405 341 405 c 2,0,-1
143 290 m 0,10,11
 128 302 128 302 128 320 c 1,12,13
 147 301 147 301 181 301 c 0,14,15
 216 301 216 301 235 320 c 1,16,17
 235 304 235 304 220 290 c 0,18,19
 202 277 202 277 181 277 c 0,20,21
 161 277 161 277 143 290 c 0,10,11
322 198 m 0,22,23
 322 193 322 193 316 190 c 0,24,25
 284 171 284 171 241 171 c 0,26,27
 200 171 200 171 171 192 c 0,28,29
 167 194 167 194 164 201 c 0,30,31
 162 204 162 204 166 211 c 0,32,33
 166 212 166 212 175 218 c 0,34,35
 178 220 178 220 186 215 c 0,36,37
 215 198 215 198 245 198 c 0,38,39
 280 198 280 198 305 213 c 0,40,41
 307 215 307 215 316 215 c 0,42,43
 321 215 321 215 324 209 c 0,44,45
 323 207 323 207 323 203.5 c 128,-1,46
 323 200 323 200 322 198 c 0,22,23
348 290 m 0,47,48
 330 277 330 277 309 277 c 0,49,50
 289 277 289 277 271 290 c 0,51,52
 256 302 256 302 256 320 c 1,53,54
 275 301 275 301 309 301 c 0,55,56
 344 301 344 301 363 320 c 1,57,58
 363 304 363 304 348 290 c 0,47,48
EndSplineSet
Validated: 521
EndChar

StartChar: edit-lock
Encoding: 57890 57890 53
Width: 512
GlyphClass: 2
Flags: W
LayerCount: 2
Fore
SplineSet
448 427 m 1,0,-1
 448 448 l 2,1,2
 448 451 448 451 447.5 455 c 128,-1,3
 447 459 447 459 443.5 470 c 128,-1,4
 440 481 440 481 434 489.5 c 128,-1,5
 428 498 428 498 415 505 c 128,-1,6
 402 512 402 512 384 512 c 0,7,8
 356 512 356 512 340 496 c 128,-1,9
 324 480 324 480 322 464 c 2,10,-1
 320 448 l 1,11,-1
 320 427 l 1,12,-1
 299 427 l 1,13,-1
 299 299 l 1,14,-1
 469 299 l 1,15,-1
 469 427 l 1,16,-1
 448 427 l 1,0,-1
416 427 m 1,17,-1
 352 427 l 1,18,-1
 352 448 l 2,19,20
 352 452 352 452 353 457 c 128,-1,21
 354 462 354 462 362 471 c 128,-1,22
 370 480 370 480 384 480 c 128,-1,23
 398 480 398 480 406 472 c 128,-1,24
 414 464 414 464 415 456 c 2,25,-1
 416 448 l 1,26,-1
 416 427 l 1,17,-1
277 307 m 1,27,-1
 132 160 l 1,28,29
 123 169 123 169 111 177 c 1,30,31
 218 284 218 284 277 346 c 1,32,-1
 277 384 l 1,33,-1
 85 192 l 1,34,-1
 64 85 l 1,35,-1
 171 107 l 1,36,-1
 341 277 l 1,37,-1
 277 277 l 1,38,-1
 277 307 l 1,27,-1
EndSplineSet
Validated: 521
EndChar

StartChar: quotes
Encoding: 57891 57891 54
Width: 512
GlyphClass: 2
Flags: W
LayerCount: 2
Fore
SplineSet
425 326 m 0,0,1
 436 331 436 331 442 339 c 0,2,3
 448 350 448 350 448 363 c 2,4,-1
 448 384 l 1,5,6
 401 377 401 377 378 367 c 0,7,8
 351 352 351 352 331 329 c 0,9,10
 321 318 321 318 310.5 300.5 c 128,-1,11
 300 283 300 283 288.5 246.5 c 128,-1,12
 277 210 277 210 277 171 c 2,13,-1
 277 85 l 1,14,-1
 405 85 l 2,15,16
 423 85 423 85 435.5 98 c 128,-1,17
 448 111 448 111 448 128 c 2,18,-1
 448 256 l 1,19,-1
 363 256 l 1,20,21
 365 275 365 275 380 294 c 0,22,23
 401 318 401 318 425 326 c 0,0,1
117 329 m 0,24,25
 64 263 64 263 64 171 c 2,26,-1
 64 85 l 1,27,-1
 192 85 l 2,28,29
 209 85 209 85 222 98 c 128,-1,30
 235 111 235 111 235 128 c 2,31,-1
 235 256 l 1,32,-1
 149 256 l 1,33,34
 151 275 151 275 166 294 c 0,35,36
 186 317 186 317 211 326 c 0,37,38
 223 331 223 331 228 339 c 0,39,40
 235 349 235 349 235 363 c 2,41,-1
 235 384 l 1,42,43
 188 377 188 377 164 367 c 1,44,45
 135 348 135 348 117 329 c 0,24,25
EndSplineSet
Validated: 9
EndChar

StartChar: quotes-add
Encoding: 57892 57892 55
Width: 512
GlyphClass: 2
Flags: W
LayerCount: 2
Fore
SplineSet
96 329 m 0,0,1
 86 318 86 318 76 300.5 c 128,-1,2
 66 283 66 283 54.5 246.5 c 128,-1,3
 43 210 43 210 43 171 c 2,4,-1
 43 85 l 1,5,-1
 171 85 l 2,6,7
 188 85 188 85 200.5 98 c 128,-1,8
 213 111 213 111 213 128 c 2,9,-1
 213 256 l 1,10,-1
 128 256 l 1,11,12
 130 275 130 275 145 294 c 0,13,14
 165 317 165 317 190 326 c 0,15,16
 202 332 202 332 207 339 c 0,17,18
 213 350 213 350 213 363 c 2,19,-1
 213 384 l 1,20,21
 166 377 166 377 143 367 c 1,22,23
 114 348 114 348 96 329 c 0,0,1
427 405 m 1,24,-1
 427 491 l 1,25,-1
 384 491 l 1,26,-1
 384 405 l 1,27,-1
 299 405 l 1,28,-1
 299 363 l 1,29,-1
 384 363 l 1,30,-1
 384 277 l 1,31,-1
 427 277 l 1,32,-1
 427 363 l 1,33,-1
 512 363 l 1,34,-1
 512 405 l 1,35,-1
 427 405 l 1,24,-1
341 256 m 1,36,37
 343 275 343 275 358 294 c 2,38,-1
 363 299 l 1,39,-1
 363 341 l 1,40,-1
 322 341 l 1,41,42
 314 333 314 333 309 329 c 0,43,44
 256 263 256 263 256 171 c 2,45,-1
 256 85 l 1,46,-1
 384 85 l 2,47,48
 401 85 401 85 414 98 c 128,-1,49
 427 111 427 111 427 128 c 2,50,-1
 427 256 l 1,51,-1
 341 256 l 1,36,37
EndSplineSet
Validated: 521
EndChar

StartChar: speech-bubble
Encoding: 57893 57893 56
Width: 512
GlyphClass: 2
Flags: W
LayerCount: 2
Fore
SplineSet
405 85 m 2,0,-1
 43 85 l 1,1,-1
 107 149 l 1,2,-1
 107 384 l 1,3,-1
 469 384 l 1,4,-1
 469 149 l 2,5,6
 469 122 469 122 451 103.5 c 128,-1,7
 433 85 433 85 405 85 c 2,0,-1
EndSplineSet
Validated: 513
EndChar

StartChar: speech-bubbles
Encoding: 57895 57895 57
Width: 512
GlyphClass: 2
Flags: W
LayerCount: 2
Fore
SplineSet
427 320 m 1,0,-1
 427 128 l 1,1,-1
 469 85 l 1,2,-1
 171 85 l 1,3,-1
 171 320 l 1,4,-1
 427 320 l 1,0,-1
64 427 m 1,5,-1
 320 427 l 1,6,-1
 320 341 l 1,7,-1
 149 341 l 1,8,-1
 149 192 l 1,9,-1
 21 192 l 1,10,-1
 64 235 l 1,11,-1
 64 427 l 1,5,-1
EndSplineSet
Validated: 513
EndChar

StartChar: user-talk
Encoding: 57896 57896 58
Width: 512
GlyphClass: 2
Flags: W
LayerCount: 2
Fore
SplineSet
107 384 m 1,0,-1
 107 149 l 1,1,-1
 43 85 l 1,2,-1
 405 85 l 2,3,4
 433 85 433 85 451 103.5 c 128,-1,5
 469 122 469 122 469 149 c 2,6,-1
 469 384 l 1,7,-1
 107 384 l 1,0,-1
346 331 m 0,8,9
 357 331 357 331 364 323 c 128,-1,10
 371 315 371 315 371 305 c 128,-1,11
 371 295 371 295 364 286 c 128,-1,12
 357 277 357 277 346 277 c 128,-1,13
 335 277 335 277 327.5 285 c 128,-1,14
 320 293 320 293 320 303 c 128,-1,15
 320 313 320 313 328 322 c 128,-1,16
 336 331 336 331 346 331 c 0,8,9
230 331 m 128,-1,18
 241 331 241 331 248.5 323 c 128,-1,19
 256 315 256 315 256 305 c 128,-1,20
 256 295 256 295 248 286 c 128,-1,21
 240 277 240 277 230 277 c 0,22,23
 221 277 221 277 213 285 c 128,-1,24
 205 293 205 293 205 303 c 128,-1,25
 205 313 205 313 212 322 c 128,-1,17
 219 331 219 331 230 331 c 128,-1,18
288 149 m 0,26,27
 257 149 257 149 233 160 c 128,-1,28
 209 171 209 171 196 186.5 c 128,-1,29
 183 202 183 202 174 218 c 128,-1,30
 165 234 165 234 162 245 c 2,31,-1
 160 256 l 1,32,33
 203 235 203 235 288 235 c 0,34,35
 326 235 326 235 358 240.5 c 128,-1,36
 390 246 390 246 403 251 c 2,37,-1
 416 256 l 2,38,39
 415 252 415 252 413 244.5 c 128,-1,40
 411 237 411 237 401.5 218.5 c 128,-1,41
 392 200 392 200 379.5 186 c 128,-1,42
 367 172 367 172 342.5 160.5 c 128,-1,43
 318 149 318 149 288 149 c 0,26,27
EndSplineSet
Validated: 521
EndChar

StartChar: image
Encoding: 57897 57897 59
Width: 512
GlyphClass: 2
Flags: W
LayerCount: 2
Fore
SplineSet
427 128 m 1,0,-1
 341 213 l 1,1,-1
 299 171 l 1,2,-1
 213 256 l 1,3,-1
 171 235 l 1,4,-1
 85 128 l 1,5,-1
 427 128 l 1,0,-1
469 405 m 1,6,-1
 469 85 l 1,7,-1
 43 85 l 1,8,-1
 43 405 l 1,9,-1
 469 405 l 1,6,-1
EndSplineSet
Validated: 1
EndChar

StartChar: image-add
Encoding: 57904 57904 60
Width: 512
GlyphClass: 2
Flags: W
LayerCount: 2
Fore
SplineSet
363 256 m 1,0,-1
 363 341 l 1,1,-1
 277 341 l 1,2,-1
 277 405 l 1,3,-1
 0 405 l 1,4,-1
 0 85 l 1,5,-1
 427 85 l 1,6,-1
 427 256 l 1,7,-1
 363 256 l 1,0,-1
43 128 m 1,8,-1
 128 235 l 1,9,-1
 171 256 l 1,10,-1
 256 171 l 1,11,-1
 299 213 l 1,12,-1
 384 128 l 1,13,-1
 43 128 l 1,8,-1
512 405 m 1,14,-1
 427 405 l 1,15,-1
 427 491 l 1,16,-1
 384 491 l 1,17,-1
 384 405 l 1,18,-1
 299 405 l 1,19,-1
 299 363 l 1,20,-1
 384 363 l 1,21,-1
 384 277 l 1,22,-1
 427 277 l 1,23,-1
 427 363 l 1,24,-1
 512 363 l 1,25,-1
 512 405 l 1,14,-1
EndSplineSet
Validated: 521
EndChar

StartChar: image-lock
Encoding: 57905 57905 61
Width: 512
GlyphClass: 2
Flags: W
LayerCount: 2
Fore
SplineSet
469 427 m 1,0,-1
 469 448 l 2,1,2
 469 451 469 451 468.5 455 c 128,-1,3
 468 459 468 459 464.5 470 c 128,-1,4
 461 481 461 481 455 489.5 c 128,-1,5
 449 498 449 498 436 505 c 128,-1,6
 423 512 423 512 405 512 c 0,7,8
 377 512 377 512 361 496 c 128,-1,9
 345 480 345 480 343 464 c 2,10,-1
 341 448 l 1,11,-1
 341 427 l 1,12,-1
 320 427 l 1,13,-1
 320 299 l 1,14,-1
 491 299 l 1,15,-1
 491 427 l 1,16,-1
 469 427 l 1,0,-1
437 427 m 1,17,-1
 373 427 l 1,18,-1
 373 448 l 2,19,20
 373 452 373 452 374 457 c 128,-1,21
 375 462 375 462 383 471 c 128,-1,22
 391 480 391 480 405 480 c 128,-1,23
 419 480 419 480 427 472 c 128,-1,24
 435 464 435 464 436 456 c 2,25,-1
 437 448 l 1,26,-1
 437 427 l 1,17,-1
299 405 m 1,27,-1
 21 405 l 1,28,-1
 21 85 l 1,29,-1
 448 85 l 1,30,-1
 448 277 l 1,31,-1
 299 277 l 1,32,-1
 299 405 l 1,27,-1
320 213 m 1,33,-1
 405 128 l 1,34,-1
 64 128 l 1,35,-1
 149 235 l 1,36,-1
 192 256 l 1,37,-1
 277 171 l 1,38,-1
 320 213 l 1,33,-1
EndSplineSet
Validated: 521
EndChar

StartChar: photo-gallery
Encoding: 57906 57906 62
Width: 512
GlyphClass: 2
Flags: W
LayerCount: 2
Fore
SplineSet
43 448 m 1,0,-1
 427 448 l 1,1,-1
 427 405 l 1,2,-1
 85 405 l 1,3,-1
 85 149 l 1,4,-1
 43 149 l 1,5,-1
 43 448 l 1,0,-1
320 171 m 1,6,-1
 235 256 l 1,7,-1
 149 149 l 1,8,-1
 427 149 l 1,9,-1
 363 213 l 1,10,-1
 320 171 l 1,6,-1
107 384 m 1,11,-1
 469 384 l 1,12,-1
 469 107 l 1,13,-1
 107 107 l 1,14,-1
 107 384 l 1,11,-1
EndSplineSet
Validated: 513
EndChar

StartChar: map-pin
Encoding: 57907 57907 63
Width: 512
GlyphClass: 2
Flags: W
LayerCount: 2
Fore
SplineSet
405 299 m 0,0,1
 405 361 405 361 361.5 404.5 c 128,-1,2
 318 448 318 448 256 448 c 128,-1,3
 194 448 194 448 150.5 404.5 c 128,-1,4
 107 361 107 361 107 299 c 0,5,6
 107 255 107 255 130 220 c 1,7,-1
 256 64 l 1,8,-1
 382 220 l 1,9,10
 405 255 405 255 405 299 c 0,0,1
256 213 m 128,-1,12
 221 213 221 213 196 238.5 c 128,-1,13
 171 264 171 264 171 299 c 128,-1,14
 171 334 171 334 196 359 c 128,-1,15
 221 384 221 384 256 384 c 128,-1,16
 291 384 291 384 316 359 c 128,-1,17
 341 334 341 334 341 299 c 128,-1,18
 341 264 341 264 316 238.5 c 128,-1,11
 291 213 291 213 256 213 c 128,-1,12
EndSplineSet
Validated: 521
EndChar

StartChar: map-pin-add
Encoding: 57908 57908 64
Width: 512
GlyphClass: 2
Flags: W
LayerCount: 2
Fore
SplineSet
512 427 m 1,0,-1
 427 427 l 1,1,-1
 427 512 l 1,2,-1
 384 512 l 1,3,-1
 384 427 l 1,4,-1
 299 427 l 1,5,-1
 299 384 l 1,6,-1
 384 384 l 1,7,-1
 384 299 l 1,8,-1
 427 299 l 1,9,-1
 427 384 l 1,10,-1
 512 384 l 1,11,-1
 512 427 l 1,0,-1
384 277 m 1,12,-1
 363 277 l 1,13,-1
 363 361 l 1,14,-1
 361 363 l 1,15,-1
 277 363 l 1,16,-1
 277 403 l 1,17,18
 271 405 271 405 256 405 c 0,19,20
 194 405 194 405 150.5 361.5 c 128,-1,21
 107 318 107 318 107 256 c 0,22,23
 107 214 107 214 130 177 c 1,24,-1
 256 21 l 1,25,-1
 382 177 l 1,26,27
 405 214 405 214 405 256 c 0,28,29
 405 271 405 271 403 277 c 1,30,-1
 384 277 l 1,12,-1
256 171 m 128,-1,32
 221 171 221 171 196 196 c 128,-1,33
 171 221 171 221 171 256 c 128,-1,34
 171 291 171 291 196 316 c 128,-1,35
 221 341 221 341 256 341 c 128,-1,36
 291 341 291 341 316 316 c 128,-1,37
 341 291 341 291 341 256 c 128,-1,38
 341 221 341 221 316 196 c 128,-1,31
 291 171 291 171 256 171 c 128,-1,32
EndSplineSet
Validated: 521
EndChar

StartChar: template-add
Encoding: 57909 57909 65
Width: 512
GlyphClass: 2
Flags: W
LayerCount: 2
Fore
SplineSet
512 384 m 1,0,-1
 427 384 l 1,1,-1
 427 469 l 1,2,-1
 384 469 l 1,3,-1
 384 384 l 1,4,-1
 299 384 l 1,5,-1
 299 341 l 1,6,-1
 384 341 l 1,7,-1
 384 256 l 1,8,-1
 427 256 l 1,9,-1
 427 341 l 1,10,-1
 512 341 l 1,11,-1
 512 384 l 1,0,-1
405 235 m 1,12,-1
 405 85 l 1,13,-1
 64 85 l 2,14,15
 47 85 47 85 34 98 c 128,-1,16
 21 111 21 111 21 128 c 2,17,-1
 21 363 l 1,18,-1
 277 363 l 1,19,-1
 277 384 l 1,20,-1
 0 384 l 1,21,-1
 0 128 l 2,22,23
 0 101 0 101 18.5 82.5 c 128,-1,24
 37 64 37 64 64 64 c 2,25,-1
 427 64 l 1,26,-1
 427 235 l 1,27,-1
 405 235 l 1,12,-1
EndSplineSet
Validated: 521
EndChar

StartChar: cite-article
Encoding: 57912 57912 66
Width: 512
GlyphClass: 2
Flags: W
LayerCount: 2
Fore
SplineSet
149 256 m 1,0,-1
 341 256 l 1,1,-1
 341 277 l 1,2,-1
 149 277 l 1,3,-1
 149 256 l 1,0,-1
149 213 m 1,4,-1
 341 213 l 1,5,-1
 341 235 l 1,6,-1
 149 235 l 1,7,-1
 149 213 l 1,4,-1
149 171 m 1,8,-1
 341 171 l 1,9,-1
 341 192 l 1,10,-1
 149 192 l 1,11,-1
 149 171 l 1,8,-1
235 363 m 1,12,-1
 149 363 l 1,13,-1
 149 341 l 1,14,-1
 235 341 l 1,15,-1
 235 363 l 1,12,-1
235 320 m 1,16,-1
 149 320 l 1,17,-1
 149 299 l 1,18,-1
 235 299 l 1,19,-1
 235 320 l 1,16,-1
235 405 m 1,20,-1
 149 405 l 1,21,-1
 149 384 l 1,22,-1
 235 384 l 1,23,-1
 235 405 l 1,20,-1
341 448 m 1,24,-1
 384 448 l 1,25,-1
 384 107 l 1,26,-1
 171 107 l 2,27,28
 143 107 143 107 125 125 c 128,-1,29
 107 143 107 143 107 171 c 2,30,-1
 107 448 l 1,31,-1
 277 448 l 1,32,-1
 277 299 l 1,33,-1
 309 341 l 1,34,-1
 341 299 l 1,35,-1
 341 448 l 1,24,-1
EndSplineSet
Validated: 513
EndChar

StartChar: book
Encoding: 57913 57913 67
Width: 512
GlyphClass: 2
Flags: W
LayerCount: 2
Fore
SplineSet
320 363 m 2,0,1
 293 363 293 363 274.5 344.5 c 128,-1,2
 256 326 256 326 256 299 c 1,3,4
 256 326 256 326 237.5 344.5 c 128,-1,5
 219 363 219 363 192 363 c 2,6,-1
 64 363 l 1,7,-1
 64 85 l 1,8,-1
 192 85 l 2,9,10
 218 85 218 85 237 72 c 128,-1,11
 256 59 256 59 256 43 c 1,12,13
 256 59 256 59 275 72 c 128,-1,14
 294 85 294 85 320 85 c 2,15,-1
 448 85 l 1,16,-1
 448 363 l 1,17,-1
 320 363 l 2,0,1
427 107 m 1,18,-1
 320 107 l 2,19,20
 310 107 310 107 302 106 c 128,-1,21
 294 105 294 105 289.5 103.5 c 128,-1,22
 285 102 285 102 282 101 c 128,-1,23
 279 100 279 100 278 99 c 2,24,-1
 277 98 l 1,25,-1
 277 288 l 2,26,27
 277 310 277 310 292.5 325.5 c 128,-1,28
 308 341 308 341 331 341 c 2,29,-1
 427 341 l 1,30,-1
 427 107 l 1,18,-1
EndSplineSet
Validated: 9
EndChar

StartChar: journal
Encoding: 57920 57920 68
Width: 512
GlyphClass: 2
Flags: W
LayerCount: 2
Fore
SplineSet
341 320 m 1,0,-1
 341 341 l 1,1,-1
 213 341 l 1,2,-1
 213 320 l 1,3,-1
 341 320 l 1,0,-1
299 277 m 1,4,-1
 299 299 l 1,5,-1
 213 299 l 1,6,-1
 213 277 l 1,7,-1
 299 277 l 1,4,-1
128 405 m 1,8,-1
 149 405 l 1,9,-1
 149 64 l 1,10,-1
 128 64 l 1,11,-1
 128 405 l 1,8,-1
171 405 m 1,12,-1
 384 405 l 1,13,-1
 384 128 l 2,14,15
 384 101 384 101 365.5 82.5 c 128,-1,16
 347 64 347 64 320 64 c 2,17,-1
 171 64 l 1,18,-1
 171 405 l 1,12,-1
EndSplineSet
Validated: 1
EndChar

StartChar: newspaper
Encoding: 57921 57921 69
Width: 512
GlyphClass: 2
Flags: W
LayerCount: 2
Fore
SplineSet
128 363 m 1,0,-1
 128 107 l 1,1,2
 107 107 107 107 107 128 c 2,3,-1
 107 320 l 1,4,-1
 85 320 l 1,5,-1
 85 128 l 2,6,7
 85 111 85 111 98 98 c 128,-1,8
 111 85 111 85 128 85 c 2,9,-1
 448 85 l 1,10,-1
 448 363 l 1,11,-1
 128 363 l 1,0,-1
320 128 m 1,12,-1
 171 128 l 1,13,-1
 171 149 l 1,14,-1
 320 149 l 1,15,-1
 320 128 l 1,12,-1
320 171 m 1,16,-1
 171 171 l 1,17,-1
 171 192 l 1,18,-1
 320 192 l 1,19,-1
 320 171 l 1,16,-1
320 213 m 1,20,-1
 171 213 l 1,21,-1
 171 235 l 1,22,-1
 320 235 l 1,23,-1
 320 213 l 1,20,-1
405 128 m 1,24,-1
 341 128 l 1,25,-1
 341 235 l 1,26,-1
 405 235 l 1,27,-1
 405 128 l 1,24,-1
405 277 m 1,28,-1
 171 277 l 1,29,-1
 171 320 l 1,30,-1
 405 320 l 1,31,-1
 405 277 l 1,28,-1
EndSplineSet
Validated: 9
EndChar

StartChar: link
Encoding: 57922 57922 70
Width: 512
GlyphClass: 2
Flags: W
LayerCount: 2
Fore
SplineSet
337 435 m 0,0,1
 324 435 324 435 312 431.5 c 128,-1,2
 300 428 300 428 287.5 418.5 c 128,-1,3
 275 409 275 409 268 403 c 128,-1,4
 261 397 261 397 246.5 383 c 128,-1,5
 232 369 232 369 228 365 c 1,6,7
 230 365 230 365 236 366 c 128,-1,8
 242 367 242 367 245 367 c 0,9,10
 262 367 262 367 277 361 c 1,11,12
 290 374 290 374 295 379 c 128,-1,13
 300 384 300 384 312.5 390.5 c 128,-1,14
 325 397 325 397 337 397 c 0,15,16
 356 397 356 397 375 382 c 0,17,18
 392 366 392 366 392 343.5 c 128,-1,19
 392 321 392 321 375 305 c 2,20,-1
 320 250 l 2,21,22
 305 235 305 235 282 235 c 0,23,24
 246 235 246 235 226 277 c 1,25,-1
 198 250 l 1,26,27
 228 194 228 194 279 194 c 0,28,29
 320 194 320 194 343 222 c 2,30,-1
 399 277 l 2,31,32
 431 311 431 311 431 348 c 0,33,34
 428 383 428 383 400 409 c 128,-1,35
 372 435 372 435 337 435 c 0,0,1
245 177 m 1,36,-1
 226 158 l 2,37,38
 213 143 213 143 188 143 c 0,39,40
 167 143 167 143 149 158 c 0,41,42
 133 174 133 174 133 197 c 128,-1,43
 133 220 133 220 149 235 c 2,44,-1
 205 290 l 2,45,46
 218 305 218 305 243 305 c 0,47,48
 278 305 278 305 299 262 c 1,49,-1
 326 290 l 1,50,51
 296 346 296 346 245 346 c 0,52,53
 206 346 206 346 181 318 c 2,54,-1
 126 262 l 2,55,56
 99 235 99 235 99 197.5 c 128,-1,57
 99 160 99 160 126 134 c 0,58,59
 152 108 152 108 190 107.5 c 128,-1,60
 228 107 228 107 252 134 c 2,61,-1
 292 175 l 2,62,63
 286 173 286 173 273 173 c 0,64,65
 254 173 254 173 245 177 c 1,36,-1
EndSplineSet
Validated: 41
EndChar

StartChar: signature
Encoding: 57923 57923 71
Width: 512
GlyphClass: 2
Flags: W
LayerCount: 2
Fore
SplineSet
0 85 m 1,0,-1
 512 85 l 1,1,-1
 512 64 l 1,2,-1
 0 64 l 1,3,-1
 0 85 l 1,0,-1
128 256 m 1,4,-1
 107 277 l 1,5,-1
 64 235 l 1,6,-1
 21 277 l 1,7,-1
 0 256 l 1,8,-1
 43 213 l 1,9,-1
 0 171 l 1,10,-1
 21 149 l 1,11,-1
 64 192 l 1,12,-1
 107 149 l 1,13,-1
 128 171 l 1,14,-1
 85 213 l 1,15,-1
 128 256 l 1,4,-1
461 177 m 0,16,17
 430 195 430 195 403 177 c 0,18,19
 389 169 389 169 372.5 167 c 128,-1,20
 356 165 356 165 346 167 c 2,21,-1
 337 169 l 1,22,23
 317 179 317 179 314 181 c 1,24,25
 394 203 394 203 442 265 c 0,26,27
 456 280 456 280 465 299.5 c 128,-1,28
 474 319 474 319 472.5 345.5 c 128,-1,29
 471 372 471 372 450 393 c 0,30,31
 425 417 425 417 393 414 c 0,32,33
 348 411 348 411 309 369 c 0,34,35
 286 342 286 342 267.5 296.5 c 128,-1,36
 249 251 249 251 260 209 c 0,37,38
 260 205 260 205 262 203 c 1,39,40
 182 192 182 192 169 201 c 1,41,-1
 169 169 l 1,42,43
 208 161 208 161 277 173 c 1,44,45
 293 152 293 152 326 139 c 1,46,-1
 331 138 l 2,47,48
 336 137 336 137 342.5 135.5 c 128,-1,49
 349 134 349 134 358.5 134 c 128,-1,50
 368 134 368 134 378 135 c 128,-1,51
 388 136 388 136 400 140 c 128,-1,52
 412 144 412 144 422 151 c 0,53,54
 435 159 435 159 446 151 c 0,55,56
 461 144 461 144 461 130 c 1,57,-1
 491 130 l 1,58,59
 491 158 491 158 461 177 c 0,16,17
290 213 m 0,60,61
 283 244 283 244 298.5 282.5 c 128,-1,62
 314 321 314 321 333 346 c 0,63,64
 361 377 361 377 393 380 c 2,65,-1
 395 380 l 2,66,67
 412 380 412 380 427 367 c 0,68,69
 437 357 437 357 439 345 c 128,-1,70
 441 333 441 333 438.5 323 c 128,-1,71
 436 313 436 313 430.5 303 c 128,-1,72
 425 293 425 293 421.5 288.5 c 128,-1,73
 418 284 418 284 416 282 c 0,74,75
 375 227 375 227 292 207 c 1,76,77
 292 208 292 208 291 210 c 128,-1,78
 290 212 290 212 290 213 c 0,60,61
EndSplineSet
Validated: 41
EndChar

StartChar: list-numbered
Encoding: 57924 57924 72
Width: 512
GlyphClass: 2
Flags: W
LayerCount: 2
Fore
SplineSet
448 363 m 1,0,-1
 171 363 l 1,1,-1
 171 405 l 1,2,-1
 448 405 l 1,3,-1
 448 363 l 1,0,-1
448 235 m 1,4,-1
 171 235 l 1,5,-1
 171 277 l 1,6,-1
 448 277 l 1,7,-1
 448 235 l 1,4,-1
448 107 m 1,8,-1
 171 107 l 1,9,-1
 171 149 l 1,10,-1
 448 149 l 1,11,-1
 448 107 l 1,8,-1
85 427 m 1,12,-1
 128 427 l 1,13,-1
 128 341 l 1,14,-1
 107 341 l 1,15,-1
 107 405 l 1,16,-1
 85 405 l 1,17,-1
 85 427 l 1,12,-1
64 299 m 1,18,-1
 64 320 l 1,19,-1
 128 320 l 1,20,-1
 128 256 l 1,21,-1
 85 256 l 1,22,-1
 85 235 l 1,23,-1
 128 235 l 1,24,-1
 128 213 l 1,25,-1
 64 213 l 1,26,-1
 64 277 l 1,27,-1
 107 277 l 1,28,-1
 107 299 l 1,29,-1
 64 299 l 1,18,-1
128 85 m 1,30,-1
 64 85 l 1,31,-1
 64 107 l 1,32,-1
 107 107 l 1,33,-1
 107 128 l 1,34,-1
 85 128 l 1,35,-1
 85 149 l 1,36,-1
 107 149 l 1,37,-1
 107 171 l 1,38,-1
 64 171 l 1,39,-1
 64 192 l 1,40,-1
 128 192 l 1,41,-1
 128 85 l 1,30,-1
EndSplineSet
Validated: 513
EndChar

StartChar: list-bullet
Encoding: 57925 57925 73
Width: 512
GlyphClass: 2
Flags: W
LayerCount: 2
Fore
SplineSet
448 363 m 1,0,-1
 192 363 l 1,1,-1
 192 405 l 1,2,-1
 448 405 l 1,3,-1
 448 363 l 1,0,-1
149 384 m 128,-1,5
 149 367 149 367 136.5 354 c 128,-1,6
 124 341 124 341 107 341 c 0,7,8
 89 341 89 341 76.5 354 c 128,-1,9
 64 367 64 367 64 384 c 128,-1,10
 64 401 64 401 76.5 414 c 128,-1,11
 89 427 89 427 107 427 c 0,12,13
 124 427 124 427 136.5 414 c 128,-1,4
 149 401 149 401 149 384 c 128,-1,5
448 235 m 1,14,-1
 192 235 l 1,15,-1
 192 277 l 1,16,-1
 448 277 l 1,17,-1
 448 235 l 1,14,-1
149 256 m 128,-1,19
 149 239 149 239 136.5 226 c 128,-1,20
 124 213 124 213 107 213 c 0,21,22
 89 213 89 213 76.5 226 c 128,-1,23
 64 239 64 239 64 256 c 128,-1,24
 64 273 64 273 76.5 286 c 128,-1,25
 89 299 89 299 107 299 c 0,26,27
 124 299 124 299 136.5 286 c 128,-1,18
 149 273 149 273 149 256 c 128,-1,19
448 107 m 1,28,-1
 192 107 l 1,29,-1
 192 149 l 1,30,-1
 448 149 l 1,31,-1
 448 107 l 1,28,-1
149 128 m 128,-1,33
 149 111 149 111 136.5 98 c 128,-1,34
 124 85 124 85 107 85 c 0,35,36
 89 85 89 85 76.5 98 c 128,-1,37
 64 111 64 111 64 128 c 128,-1,38
 64 145 64 145 76.5 158 c 128,-1,39
 89 171 89 171 107 171 c 0,40,41
 124 171 124 171 136.5 158 c 128,-1,32
 149 145 149 145 149 128 c 128,-1,33
EndSplineSet
Validated: 513
EndChar

StartChar: indent-left
Encoding: 57926 57926 74
Width: 512
GlyphClass: 2
Flags: W
LayerCount: 2
Fore
SplineSet
213 341 m 1,0,-1
 405 341 l 1,1,-1
 405 299 l 1,2,-1
 213 299 l 1,3,-1
 213 341 l 1,0,-1
213 277 m 1,4,-1
 405 277 l 1,5,-1
 405 235 l 1,6,-1
 213 235 l 1,7,-1
 213 277 l 1,4,-1
213 213 m 1,8,-1
 341 213 l 1,9,-1
 341 171 l 1,10,-1
 213 171 l 1,11,-1
 213 213 l 1,8,-1
448 384 m 1,12,-1
 64 384 l 1,13,-1
 64 427 l 1,14,-1
 448 427 l 1,15,-1
 448 384 l 1,12,-1
448 85 m 1,16,-1
 64 85 l 1,17,-1
 64 128 l 1,18,-1
 448 128 l 1,19,-1
 448 85 l 1,16,-1
64 256 m 1,20,-1
 171 171 l 1,21,-1
 171 341 l 1,22,-1
 64 256 l 1,20,-1
EndSplineSet
Validated: 521
EndChar

StartChar: indent-right
Encoding: 57927 57927 75
Width: 512
GlyphClass: 2
Flags: W
LayerCount: 2
Fore
SplineSet
213 341 m 1,0,-1
 405 341 l 1,1,-1
 405 299 l 1,2,-1
 213 299 l 1,3,-1
 213 341 l 1,0,-1
213 277 m 1,4,-1
 405 277 l 1,5,-1
 405 235 l 1,6,-1
 213 235 l 1,7,-1
 213 277 l 1,4,-1
213 213 m 1,8,-1
 341 213 l 1,9,-1
 341 171 l 1,10,-1
 213 171 l 1,11,-1
 213 213 l 1,8,-1
448 384 m 1,12,-1
 64 384 l 1,13,-1
 64 427 l 1,14,-1
 448 427 l 1,15,-1
 448 384 l 1,12,-1
448 85 m 1,16,-1
 64 85 l 1,17,-1
 64 128 l 1,18,-1
 448 128 l 1,19,-1
 448 85 l 1,16,-1
64 341 m 1,20,-1
 64 171 l 1,21,-1
 171 256 l 1,22,-1
 64 341 l 1,20,-1
EndSplineSet
Validated: 521
EndChar

StartChar: wikitext-no
Encoding: 57928 57928 76
Width: 512
GlyphClass: 2
Flags: W
LayerCount: 2
Fore
SplineSet
341 213 m 1,0,-1
 384 171 l 1,1,-1
 384 405 l 1,2,-1
 299 405 l 1,3,-1
 299 363 l 1,4,-1
 341 363 l 1,5,-1
 341 213 l 1,0,-1
341 171 m 1,6,-1
 43 469 l 1,7,-1
 21 448 l 1,8,-1
 64 405 l 1,9,-1
 43 405 l 1,10,-1
 43 107 l 1,11,-1
 128 107 l 1,12,-1
 128 149 l 1,13,-1
 85 149 l 1,14,-1
 85 363 l 1,15,-1
 107 363 l 1,16,-1
 149 320 l 1,17,-1
 149 107 l 1,18,-1
 235 107 l 1,19,-1
 235 149 l 1,20,-1
 192 149 l 1,21,-1
 192 277 l 1,22,-1
 320 149 l 1,23,-1
 299 149 l 1,24,-1
 299 107 l 1,25,-1
 363 107 l 1,26,-1
 448 21 l 1,27,-1
 469 43 l 1,28,-1
 341 171 l 1,6,-1
235 363 m 1,29,-1
 235 405 l 1,30,-1
 149 405 l 1,31,-1
 192 363 l 1,32,-1
 235 363 l 1,29,-1
405 405 m 1,33,-1
 405 363 l 1,34,-1
 448 363 l 1,35,-1
 448 149 l 1,36,-1
 405 149 l 1,37,-1
 448 107 l 1,38,-1
 491 107 l 1,39,-1
 491 405 l 1,40,-1
 405 405 l 1,33,-1
EndSplineSet
Validated: 521
EndChar

StartChar: wikitext
Encoding: 57929 57929 77
Width: 512
GlyphClass: 2
Flags: W
LayerCount: 2
Fore
SplineSet
491 405 m 1,0,-1
 405 405 l 1,1,-1
 405 363 l 1,2,-1
 448 363 l 1,3,-1
 448 149 l 1,4,-1
 405 149 l 1,5,-1
 405 107 l 1,6,-1
 491 107 l 1,7,-1
 491 405 l 1,0,-1
384 405 m 1,8,-1
 299 405 l 1,9,-1
 299 363 l 1,10,-1
 341 363 l 1,11,-1
 341 149 l 1,12,-1
 299 149 l 1,13,-1
 299 107 l 1,14,-1
 384 107 l 1,15,-1
 384 405 l 1,8,-1
43 405 m 1,16,-1
 128 405 l 1,17,-1
 128 363 l 1,18,-1
 85 363 l 1,19,-1
 85 149 l 1,20,-1
 128 149 l 1,21,-1
 128 107 l 1,22,-1
 43 107 l 1,23,-1
 43 405 l 1,16,-1
149 405 m 1,24,-1
 235 405 l 1,25,-1
 235 363 l 1,26,-1
 192 363 l 1,27,-1
 192 149 l 1,28,-1
 235 149 l 1,29,-1
 235 107 l 1,30,-1
 149 107 l 1,31,-1
 149 405 l 1,24,-1
EndSplineSet
Validated: 9
EndChar

StartChar: folder-placeholder
Encoding: 57936 57936 78
Width: 512
GlyphClass: 2
Flags: W
LayerCount: 2
Fore
SplineSet
43 405 m 1,0,-1
 43 85 l 1,1,-1
 469 85 l 1,2,-1
 469 405 l 1,3,-1
 43 405 l 1,0,-1
363 171 m 1,4,-1
 171 171 l 2,5,6
 149 171 149 171 149 192 c 2,7,-1
 149 320 l 1,8,-1
 213 320 l 1,9,-1
 256 299 l 1,10,-1
 363 299 l 1,11,-1
 363 171 l 1,4,-1
EndSplineSet
Validated: 521
EndChar

StartChar: edit-lock-1
Encoding: 58114 58114 79
Width: 512
GlyphClass: 2
Flags: W
LayerCount: 2
Fore
SplineSet
277 307 m 1,0,-1
 132 160 l 1,1,2
 123 169 123 169 111 177 c 1,3,4
 218 284 218 284 277 346 c 1,5,-1
 277 384 l 1,6,-1
 85 192 l 1,7,-1
 64 85 l 1,8,-1
 171 107 l 1,9,-1
 341 277 l 1,10,-1
 277 277 l 1,11,-1
 277 307 l 1,0,-1
EndSplineSet
Validated: 521
EndChar

StartChar: edit-lock-2
Encoding: 58115 58115 80
Width: 512
GlyphClass: 2
Flags: W
LayerCount: 2
Fore
SplineSet
448 427 m 1,0,-1
 448 448 l 2,1,2
 448 451 448 451 447.5 455 c 128,-1,3
 447 459 447 459 443.5 470 c 128,-1,4
 440 481 440 481 434 489.5 c 128,-1,5
 428 498 428 498 415 505 c 128,-1,6
 402 512 402 512 384 512 c 0,7,8
 356 512 356 512 340 496 c 128,-1,9
 324 480 324 480 322 464 c 2,10,-1
 320 448 l 1,11,-1
 320 427 l 1,12,-1
 299 427 l 1,13,-1
 299 299 l 1,14,-1
 469 299 l 1,15,-1
 469 427 l 1,16,-1
 448 427 l 1,0,-1
416 427 m 1,17,-1
 352 427 l 1,18,-1
 352 448 l 2,19,20
 352 452 352 452 353 457 c 128,-1,21
 354 462 354 462 362 471 c 128,-1,22
 370 480 370 480 384 480 c 128,-1,23
 398 480 398 480 406 472 c 128,-1,24
 414 464 414 464 415 456 c 2,25,-1
 416 448 l 1,26,-1
 416 427 l 1,17,-1
EndSplineSet
Validated: 521
EndChar

StartChar: quotes-add-1
Encoding: 58116 58116 81
Width: 512
GlyphClass: 2
Flags: W
LayerCount: 2
Fore
SplineSet
96 329 m 0,0,1
 86 318 86 318 76 300.5 c 128,-1,2
 66 283 66 283 54.5 246.5 c 128,-1,3
 43 210 43 210 43 171 c 2,4,-1
 43 85 l 1,5,-1
 171 85 l 2,6,7
 188 85 188 85 200.5 98 c 128,-1,8
 213 111 213 111 213 128 c 2,9,-1
 213 256 l 1,10,-1
 128 256 l 1,11,12
 130 275 130 275 145 294 c 0,13,14
 165 317 165 317 190 326 c 0,15,16
 202 332 202 332 207 339 c 0,17,18
 213 350 213 350 213 363 c 2,19,-1
 213 384 l 1,20,21
 166 377 166 377 143 367 c 1,22,23
 114 348 114 348 96 329 c 0,0,1
341 256 m 1,24,25
 343 275 343 275 358 294 c 2,26,-1
 363 299 l 1,27,-1
 363 341 l 1,28,-1
 322 341 l 1,29,30
 314 333 314 333 309 329 c 0,31,32
 256 263 256 263 256 171 c 2,33,-1
 256 85 l 1,34,-1
 384 85 l 2,35,36
 401 85 401 85 414 98 c 128,-1,37
 427 111 427 111 427 128 c 2,38,-1
 427 256 l 1,39,-1
 341 256 l 1,24,25
EndSplineSet
Validated: 521
EndChar

StartChar: quotes-add-2
Encoding: 58117 58117 82
Width: 512
GlyphClass: 2
Flags: W
LayerCount: 2
Fore
SplineSet
427 405 m 1,0,-1
 427 491 l 1,1,-1
 384 491 l 1,2,-1
 384 405 l 1,3,-1
 299 405 l 1,4,-1
 299 363 l 1,5,-1
 384 363 l 1,6,-1
 384 277 l 1,7,-1
 427 277 l 1,8,-1
 427 363 l 1,9,-1
 512 363 l 1,10,-1
 512 405 l 1,11,-1
 427 405 l 1,0,-1
EndSplineSet
Validated: 521
EndChar

StartChar: image-add-1
Encoding: 58118 58118 83
Width: 512
GlyphClass: 2
Flags: W
LayerCount: 2
Fore
SplineSet
363 256 m 1,0,-1
 363 341 l 1,1,-1
 277 341 l 1,2,-1
 277 405 l 1,3,-1
 0 405 l 1,4,-1
 0 85 l 1,5,-1
 427 85 l 1,6,-1
 427 256 l 1,7,-1
 363 256 l 1,0,-1
43 128 m 1,8,-1
 128 235 l 1,9,-1
 171 256 l 1,10,-1
 256 171 l 1,11,-1
 299 213 l 1,12,-1
 384 128 l 1,13,-1
 43 128 l 1,8,-1
EndSplineSet
Validated: 521
EndChar

StartChar: image-add-2
Encoding: 58119 58119 84
Width: 512
GlyphClass: 2
Flags: W
LayerCount: 2
Fore
SplineSet
512 405 m 1,0,-1
 427 405 l 1,1,-1
 427 491 l 1,2,-1
 384 491 l 1,3,-1
 384 405 l 1,4,-1
 299 405 l 1,5,-1
 299 363 l 1,6,-1
 384 363 l 1,7,-1
 384 277 l 1,8,-1
 427 277 l 1,9,-1
 427 363 l 1,10,-1
 512 363 l 1,11,-1
 512 405 l 1,0,-1
EndSplineSet
Validated: 521
EndChar

StartChar: image-lock-1
Encoding: 58120 58120 85
Width: 512
GlyphClass: 2
Flags: W
LayerCount: 2
Fore
SplineSet
299 405 m 1,0,-1
 21 405 l 1,1,-1
 21 85 l 1,2,-1
 448 85 l 1,3,-1
 448 277 l 1,4,-1
 299 277 l 1,5,-1
 299 405 l 1,0,-1
320 213 m 1,6,-1
 405 128 l 1,7,-1
 64 128 l 1,8,-1
 149 235 l 1,9,-1
 192 256 l 1,10,-1
 277 171 l 1,11,-1
 320 213 l 1,6,-1
EndSplineSet
Validated: 521
EndChar

StartChar: image-lock-2
Encoding: 58121 58121 86
Width: 512
GlyphClass: 2
Flags: W
LayerCount: 2
Fore
SplineSet
469 427 m 1,0,-1
 469 448 l 2,1,2
 469 451 469 451 468.5 455 c 128,-1,3
 468 459 468 459 464.5 470 c 128,-1,4
 461 481 461 481 455 489.5 c 128,-1,5
 449 498 449 498 436 505 c 128,-1,6
 423 512 423 512 405 512 c 0,7,8
 377 512 377 512 361 496 c 128,-1,9
 345 480 345 480 343 464 c 2,10,-1
 341 448 l 1,11,-1
 341 427 l 1,12,-1
 320 427 l 1,13,-1
 320 299 l 1,14,-1
 491 299 l 1,15,-1
 491 427 l 1,16,-1
 469 427 l 1,0,-1
437 427 m 1,17,-1
 373 427 l 1,18,-1
 373 448 l 2,19,20
 373 452 373 452 374 457 c 128,-1,21
 375 462 375 462 383 471 c 128,-1,22
 391 480 391 480 405 480 c 128,-1,23
 419 480 419 480 427 472 c 128,-1,24
 435 464 435 464 436 456 c 2,25,-1
 437 448 l 1,26,-1
 437 427 l 1,17,-1
EndSplineSet
Validated: 521
EndChar

StartChar: map-pin-add-1
Encoding: 58128 58128 87
Width: 512
GlyphClass: 2
Flags: W
LayerCount: 2
Fore
SplineSet
384 277 m 1,0,-1
 363 277 l 1,1,-1
 363 361 l 1,2,-1
 361 363 l 1,3,-1
 277 363 l 1,4,-1
 277 403 l 1,5,6
 271 405 271 405 256 405 c 0,7,8
 194 405 194 405 150.5 361.5 c 128,-1,9
 107 318 107 318 107 256 c 0,10,11
 107 214 107 214 130 177 c 1,12,-1
 256 21 l 1,13,-1
 382 177 l 1,14,15
 405 214 405 214 405 256 c 0,16,17
 405 271 405 271 403 277 c 1,18,-1
 384 277 l 1,0,-1
256 171 m 128,-1,20
 221 171 221 171 196 196 c 128,-1,21
 171 221 171 221 171 256 c 128,-1,22
 171 291 171 291 196 316 c 128,-1,23
 221 341 221 341 256 341 c 128,-1,24
 291 341 291 341 316 316 c 128,-1,25
 341 291 341 291 341 256 c 128,-1,26
 341 221 341 221 316 196 c 128,-1,19
 291 171 291 171 256 171 c 128,-1,20
EndSplineSet
Validated: 521
EndChar

StartChar: map-pin-add-2
Encoding: 58129 58129 88
Width: 512
GlyphClass: 2
Flags: W
LayerCount: 2
Fore
SplineSet
512 427 m 1,0,-1
 427 427 l 1,1,-1
 427 512 l 1,2,-1
 384 512 l 1,3,-1
 384 427 l 1,4,-1
 299 427 l 1,5,-1
 299 384 l 1,6,-1
 384 384 l 1,7,-1
 384 299 l 1,8,-1
 427 299 l 1,9,-1
 427 384 l 1,10,-1
 512 384 l 1,11,-1
 512 427 l 1,0,-1
EndSplineSet
Validated: 521
EndChar

StartChar: template-add-1
Encoding: 58130 58130 89
Width: 512
GlyphClass: 2
Flags: W
LayerCount: 2
Fore
SplineSet
405 235 m 1,0,-1
 405 85 l 1,1,-1
 64 85 l 2,2,3
 47 85 47 85 34 98 c 128,-1,4
 21 111 21 111 21 128 c 2,5,-1
 21 363 l 1,6,-1
 277 363 l 1,7,-1
 277 384 l 1,8,-1
 0 384 l 1,9,-1
 0 128 l 2,10,11
 0 101 0 101 18.5 82.5 c 128,-1,12
 37 64 37 64 64 64 c 2,13,-1
 427 64 l 1,14,-1
 427 235 l 1,15,-1
 405 235 l 1,0,-1
EndSplineSet
Validated: 521
EndChar

StartChar: template-add-2
Encoding: 58131 58131 90
Width: 512
GlyphClass: 2
Flags: W
LayerCount: 2
Fore
SplineSet
512 384 m 1,0,-1
 427 384 l 1,1,-1
 427 469 l 1,2,-1
 384 469 l 1,3,-1
 384 384 l 1,4,-1
 299 384 l 1,5,-1
 299 341 l 1,6,-1
 384 341 l 1,7,-1
 384 256 l 1,8,-1
 427 256 l 1,9,-1
 427 341 l 1,10,-1
 512 341 l 1,11,-1
 512 384 l 1,0,-1
EndSplineSet
Validated: 521
EndChar

StartChar: wikimedia-commons
Encoding: 58624 58624 91
Width: 512
GlyphClass: 2
Flags: W
LayerCount: 2
Fore
SplineSet
329 346 m 0,0,1
 291 363 291 363 277 405 c 1,2,-1
 320 384 l 1,3,-1
 256 491 l 1,4,-1
 192 384 l 1,5,-1
 235 405 l 1,6,7
 235 388 235 388 247 361 c 0,8,9
 255 347 255 347 266.5 335 c 128,-1,10
 278 323 278 323 286 318 c 2,11,-1
 294 314 l 2,12,13
 329 299 329 299 341 286 c 1,14,-1
 326 271 l 1,15,-1
 316 282 l 1,16,-1
 307 243 l 1,17,-1
 346 252 l 1,18,-1
 335 262 l 1,19,-1
 350 277 l 1,20,21
 381 243 381 243 384 196 c 1,22,-1
 363 196 l 1,23,-1
 363 213 l 1,24,-1
 331 192 l 1,25,-1
 363 171 l 1,26,-1
 363 188 l 1,27,-1
 384 188 l 1,28,29
 381 138 381 138 350 107 c 1,30,-1
 335 122 l 1,31,-1
 346 132 l 1,32,-1
 307 141 l 1,33,-1
 316 102 l 1,34,-1
 326 113 l 1,35,-1
 341 98 l 1,36,37
 307 67 307 67 260 64 c 1,38,-1
 260 85 l 1,39,-1
 277 85 l 1,40,-1
 256 117 l 1,41,-1
 235 85 l 1,42,-1
 252 85 l 1,43,-1
 252 64 l 1,44,45
 202 67 202 67 171 98 c 1,46,-1
 186 113 l 1,47,-1
 196 102 l 1,48,-1
 205 141 l 1,49,-1
 166 132 l 1,50,-1
 177 122 l 1,51,-1
 162 107 l 1,52,53
 131 141 131 141 128 188 c 1,54,-1
 149 188 l 1,55,-1
 149 171 l 1,56,-1
 181 192 l 1,57,-1
 149 213 l 1,58,-1
 149 196 l 1,59,-1
 128 196 l 1,60,61
 131 246 131 246 162 277 c 1,62,-1
 177 262 l 1,63,-1
 166 252 l 1,64,-1
 205 243 l 1,65,-1
 196 282 l 1,66,-1
 186 271 l 1,67,-1
 171 286 l 1,68,-1
 139 316 l 1,69,70
 85 265 85 265 85 192 c 0,71,72
 85 122 85 122 135.5 71.5 c 128,-1,73
 186 21 186 21 256 21 c 128,-1,74
 326 21 326 21 376.5 71.5 c 128,-1,75
 427 122 427 122 427 192 c 0,76,77
 427 242 427 242 400 283 c 128,-1,78
 373 324 373 324 329 346 c 0,0,1
320 192 m 128,-1,80
 320 166 320 166 301 147 c 128,-1,81
 282 128 282 128 256 128 c 128,-1,82
 230 128 230 128 211 147 c 128,-1,83
 192 166 192 166 192 192 c 128,-1,84
 192 218 192 218 211 237 c 128,-1,85
 230 256 230 256 256 256 c 128,-1,86
 282 256 282 256 301 237 c 128,-1,79
 320 218 320 218 320 192 c 128,-1,80
EndSplineSet
Validated: 521
EndChar

StartChar: wikipedia
Encoding: 58625 58625 92
Width: 512
GlyphClass: 2
Flags: W
LayerCount: 2
Fore
SplineSet
476 378 m 0,0,1
 476 371 476 371 474 371 c 0,2,3
 453 368 453 368 439 348 c 0,4,5
 438 346 438 346 437 343.5 c 128,-1,6
 436 341 436 341 435 338.5 c 128,-1,7
 434 336 434 336 433 333 c 2,8,-1
 335 117 l 1,9,-1
 331 111 l 2,10,11
 329 109 329 109 326 109 c 0,12,13
 319 109 319 109 316 117 c 2,14,-1
 260 235 l 1,15,-1
 201 117 l 2,16,17
 197 109 197 109 190 109 c 0,18,19
 182 109 182 109 179 117 c 2,20,-1
 87 333 l 2,21,22
 80 353 80 353 70 363 c 0,23,24
 65 368 65 368 49 371 c 0,25,26
 47 373 47 373 47 378 c 0,27,28
 47 384 47 384 49 384 c 2,29,-1
 94 384 l 1,30,-1
 141 384 l 2,31,32
 143 382 143 382 143 378 c 0,33,34
 143 371 143 371 141 371 c 0,35,36
 119 368 119 368 117 363 c 0,37,38
 114 356 114 356 124 337 c 2,39,-1
 201 162 l 1,40,-1
 203 162 l 1,41,-1
 250 256 l 1,42,-1
 213 333 l 2,43,44
 204 355 204 355 196 363 c 0,45,46
 191 368 191 368 177 371 c 0,47,48
 175 373 175 373 175 378 c 0,49,50
 175 384 175 384 177 384 c 2,51,-1
 215 384 l 1,52,-1
 254 384 l 2,53,54
 256 382 256 382 256 378 c 0,55,56
 256 371 256 371 254 371 c 0,57,58
 241 368 241 368 241 363 c 0,59,60
 241 354 241 354 250 337 c 2,61,-1
 271 297 l 1,62,-1
 292 337 l 2,63,64
 303 357 303 357 303 361 c 0,65,66
 303 367 303 367 301 369 c 128,-1,67
 299 371 299 371 290 371 c 1,68,69
 290 372 290 372 289 374 c 128,-1,70
 288 376 288 376 288 378 c 0,71,72
 288 384 288 384 290 384 c 2,73,-1
 322 384 l 1,74,-1
 354 384 l 2,75,76
 356 382 356 382 356 378 c 0,77,78
 356 371 356 371 354 371 c 0,79,80
 338 368 338 368 331 361 c 0,81,82
 319 349 319 349 314 333 c 2,83,-1
 286 273 l 1,84,-1
 339 162 l 1,85,-1
 341 162 l 1,86,-1
 420 335 l 2,87,88
 429 348 429 348 425 361 c 0,89,90
 422 368 422 368 401 371 c 0,91,92
 399 373 399 373 399 378 c 0,93,94
 399 384 399 384 401 384 c 2,95,-1
 442 384 l 1,96,-1
 480 384 l 2,97,98
 476 382 476 382 476 378 c 0,0,1
EndSplineSet
Validated: 33
EndChar

StartChar: wikitrail
Encoding: 1284 1284 93
Width: 512
GlyphClass: 2
Flags: W
LayerCount: 2
Fore
SplineSet
320 320 m 1,0,-1
 335 358 l 1,1,2
 364 346 364 346 386 339 c 1,3,-1
 373 303 l 1,4,-1
 373 299 l 1,5,-1
 320 320 l 1,0,-1
228 361 m 1,6,-1
 245 399 l 1,7,8
 300 376 300 376 309 369 c 1,9,-1
 292 331 l 1,10,-1
 228 361 l 1,6,-1
102 382 m 1,11,12
 79 382 79 382 60 369 c 1,13,-1
 36 405 l 1,14,15
 65 425 65 425 102 425 c 1,16,-1
 102 382 l 1,11,12
11 367 m 1,17,-1
 49 350 l 1,18,19
 41 329 41 329 47 311 c 1,20,-1
 6 297 l 1,21,22
 -4 338 -4 338 11 367 c 1,17,-1
100 252 m 1,23,-1
 73 220 l 1,24,25
 33 259 33 259 30 262 c 1,26,-1
 62 290 l 1,27,28
 85 264 85 264 100 252 c 1,23,-1
256 160 m 128,-1,30
 256 129 256 129 234 107 c 128,-1,31
 212 85 212 85 181 85 c 0,32,33
 151 85 151 85 129 107 c 128,-1,34
 107 129 107 129 107 160 c 128,-1,35
 107 191 107 191 129 213 c 128,-1,36
 151 235 151 235 181 235 c 0,37,38
 212 235 212 235 234 213 c 128,-1,29
 256 191 256 191 256 160 c 128,-1,30
512 341 m 1,39,-1
 491 363 l 1,40,-1
 459 331 l 1,41,-1
 427 363 l 1,42,-1
 405 341 l 1,43,-1
 437 309 l 1,44,-1
 405 277 l 1,45,-1
 427 256 l 1,46,-1
 459 288 l 1,47,-1
 491 256 l 1,48,-1
 512 277 l 1,49,-1
 480 309 l 1,50,-1
 512 341 l 1,39,-1
213 405 m 0,51,52
 213 388 213 388 200.5 375.5 c 128,-1,53
 188 363 188 363 171 363 c 0,54,55
 153 363 153 363 140.5 375.5 c 128,-1,56
 128 388 128 388 128 405 c 0,57,58
 128 423 128 423 140.5 435.5 c 128,-1,59
 153 448 153 448 171 448 c 0,60,61
 188 448 188 448 200.5 435.5 c 128,-1,62
 213 423 213 423 213 405 c 0,51,52
EndSplineSet
Validated: 41
EndChar

StartChar: heart
Encoding: 57345 57345 94
Width: 512
GlyphClass: 2
Flags: W
LayerCount: 2
Fore
SplineSet
320 384 m 0,0,1
 301 384 301 384 285 373 c 128,-1,2
 269 362 269 362 262 352 c 2,3,-1
 256 341 l 1,4,5
 254 346 254 346 249 353 c 128,-1,6
 244 360 244 360 227.5 372 c 128,-1,7
 211 384 211 384 192 384 c 0,8,9
 154 384 154 384 130.5 358 c 128,-1,10
 107 332 107 332 107 299 c 0,11,12
 107 261 107 261 134 233.5 c 128,-1,13
 161 206 161 206 200.5 179 c 128,-1,14
 240 152 240 152 256 128 c 1,15,16
 272 152 272 152 311.5 179 c 128,-1,17
 351 206 351 206 378 233.5 c 128,-1,18
 405 261 405 261 405 299 c 0,19,20
 405 332 405 332 381.5 358 c 128,-1,21
 358 384 358 384 320 384 c 0,0,1
EndSplineSet
Validated: 9
EndChar

StartChar: star
Encoding: 57346 57346 95
Width: 512
GlyphClass: 2
Flags: W
LayerCount: 2
Fore
SplineSet
256 354 m 1,0,-1
 292 277 l 1,1,-1
 378 267 l 1,2,-1
 320 207 l 1,3,-1
 331 124 l 1,4,-1
 256 160 l 1,5,-1
 179 124 l 1,6,-1
 192 207 l 1,7,-1
 132 267 l 1,8,-1
 215 277 l 1,9,-1
 256 354 l 1,0,-1
256 427 m 1,10,-1
 196 307 l 1,11,-1
 64 288 l 1,12,-1
 160 194 l 1,13,-1
 137 64 l 1,14,-1
 256 128 l 1,15,-1
 373 64 l 1,16,-1
 352 196 l 1,17,-1
 448 290 l 1,18,-1
 314 309 l 1,19,-1
 256 427 l 1,10,-1
EndSplineSet
Validated: 9
EndChar

StartChar: unstar
Encoding: 57347 57347 96
Width: 512
GlyphClass: 2
Flags: W
LayerCount: 2
Fore
SplineSet
448 277 m 1,0,-1
 320 299 l 1,1,-1
 256 427 l 1,2,-1
 192 299 l 1,3,-1
 64 277 l 1,4,-1
 149 192 l 1,5,-1
 128 64 l 1,6,-1
 256 128 l 1,7,-1
 384 64 l 1,8,-1
 363 192 l 1,9,-1
 448 277 l 1,0,-1
EndSplineSet
Validated: 9
EndChar

StartChar: watchlist
Encoding: 57348 57348 97
Width: 512
GlyphClass: 2
Flags: W
LayerCount: 2
Fore
SplineSet
277 213 m 1,0,-1
 384 213 l 1,1,-1
 384 192 l 1,2,-1
 277 192 l 1,3,-1
 277 213 l 1,0,-1
277 149 m 1,4,-1
 384 149 l 1,5,-1
 384 171 l 1,6,-1
 277 171 l 1,7,-1
 277 149 l 1,4,-1
277 128 m 1,8,-1
 384 128 l 1,9,-1
 384 107 l 1,10,-1
 277 107 l 1,11,-1
 277 128 l 1,8,-1
256 235 m 1,12,-1
 256 171 l 1,13,-1
 149 107 l 1,14,-1
 171 235 l 1,15,-1
 85 299 l 1,16,-1
 213 320 l 1,17,-1
 256 427 l 1,18,19
 297 320 297 320 299 320 c 2,20,-1
 427 299 l 1,21,-1
 341 235 l 1,22,-1
 256 235 l 1,12,-1
EndSplineSet
Validated: 9
EndChar

StartChar: sun
Encoding: 57349 57349 98
Width: 512
GlyphClass: 2
Flags: W
LayerCount: 2
Fore
SplineSet
386 403 m 0,0,1
 386 393 386 393 380 384 c 2,2,-1
 350 354 l 1,3,-1
 331 371 l 1,4,-1
 378 418 l 1,5,6
 386 415 386 415 386 403 c 0,0,1
376 290 m 1,7,-1
 444 290 l 1,8,9
 444 279 444 279 435 271 c 0,10,11
 426 262 426 262 418 262 c 2,12,-1
 376 262 l 1,13,-1
 376 290 l 1,7,-1
243 397 m 1,14,-1
 243 465 l 1,15,16
 254 465 254 465 262 457 c 0,17,18
 271 448 271 448 271 439 c 2,19,-1
 271 397 l 1,20,-1
 243 397 l 1,14,-1
380 147 m 128,-1,22
 369 147 369 147 363 153 c 2,23,-1
 333 183 l 1,24,-1
 350 201 l 1,25,-1
 397 154 l 1,26,21
 391 147 391 147 380 147 c 128,-1,22
132 407 m 0,27,28
 143 407 143 407 149 401 c 2,29,-1
 179 371 l 1,30,-1
 162 352 l 1,31,-1
 115 401 l 1,32,33
 122 407 122 407 132 407 c 0,27,28
243 158 m 1,34,-1
 269 158 l 1,35,-1
 269 90 l 1,36,37
 258 90 258 90 250 98 c 0,38,39
 241 106 241 106 241 115 c 2,40,-1
 243 158 l 1,34,-1
94 290 m 2,41,-1
 137 290 l 1,42,-1
 137 264 l 1,43,-1
 68 264 l 1,44,45
 68 275 68 275 77 284 c 0,46,47
 83 290 83 290 94 290 c 2,41,-1
132 171 m 2,48,-1
 162 201 l 1,49,-1
 179 183 l 1,50,-1
 132 137 l 1,51,52
 126 143 126 143 126 154 c 0,53,54
 126 164 126 164 132 171 c 2,48,-1
341 277 m 128,-1,56
 341 242 341 242 316 217 c 128,-1,57
 291 192 291 192 256 192 c 128,-1,58
 221 192 221 192 196 217 c 128,-1,59
 171 242 171 242 171 277 c 128,-1,60
 171 312 171 312 196 337.5 c 128,-1,61
 221 363 221 363 256 363 c 128,-1,62
 291 363 291 363 316 337.5 c 128,-1,55
 341 312 341 312 341 277 c 128,-1,56
EndSplineSet
Validated: 1
EndChar

StartChar: funnel
Encoding: 57350 57350 99
Width: 512
GlyphClass: 2
Flags: W
LayerCount: 2
Fore
SplineSet
235 235 m 1,0,-1
 107 384 l 1,1,-1
 427 384 l 1,2,-1
 299 235 l 1,3,-1
 299 85 l 1,4,5
 271 85 271 85 253 103.5 c 128,-1,6
 235 122 235 122 235 149 c 2,7,-1
 235 235 l 1,0,-1
EndSplineSet
Validated: 1
EndChar

StartChar: eye-closed
Encoding: 57352 57352 100
Width: 512
GlyphClass: 2
Flags: W
LayerCount: 2
Fore
SplineSet
414 241 m 1,0,1
 437 267 437 267 444 299 c 1,2,-1
 410 299 l 1,3,4
 395 258 395 258 350 231 c 128,-1,5
 305 204 305 204 245 201 c 2,6,-1
 243 201 l 2,7,8
 184 204 184 204 138.5 231 c 128,-1,9
 93 258 93 258 79 299 c 1,10,-1
 47 299 l 1,11,12
 51 274 51 274 77 241 c 1,13,-1
 34 198 l 1,14,-1
 49 183 l 1,15,-1
 92 226 l 1,16,17
 118 206 118 206 149 190 c 1,18,-1
 128 130 l 1,19,-1
 147 124 l 1,20,-1
 169 183 l 1,21,22
 211 171 211 171 235 171 c 1,23,-1
 235 107 l 1,24,-1
 256 107 l 1,25,-1
 256 171 l 1,26,27
 295 174 295 174 322 183 c 1,28,-1
 343 124 l 1,29,-1
 363 130 l 1,30,-1
 341 190 l 1,31,32
 372 201 372 201 397 226 c 1,33,-1
 439 183 l 1,34,-1
 454 198 l 1,35,-1
 414 241 l 1,0,1
EndSplineSet
Validated: 521
EndChar

StartChar: printer
Encoding: 57353 57353 101
Width: 512
GlyphClass: 2
Flags: W
LayerCount: 2
Fore
SplineSet
384 341 m 2,0,-1
 363 341 l 1,1,-1
 363 427 l 1,2,-1
 149 427 l 1,3,-1
 149 341 l 1,4,-1
 64 341 l 1,5,-1
 64 213 l 2,6,7
 64 186 64 186 82.5 167.5 c 128,-1,8
 101 149 101 149 128 149 c 2,9,-1
 149 149 l 1,10,-1
 149 85 l 1,11,-1
 363 85 l 1,12,-1
 363 149 l 1,13,-1
 448 149 l 1,14,-1
 448 277 l 2,15,16
 448 305 448 305 429.5 323 c 128,-1,17
 411 341 411 341 384 341 c 2,0,-1
171 405 m 1,18,-1
 341 405 l 1,19,-1
 341 341 l 1,20,-1
 171 341 l 1,21,-1
 171 405 l 1,18,-1
341 107 m 1,22,-1
 171 107 l 1,23,-1
 171 235 l 1,24,-1
 341 235 l 1,25,-1
 341 107 l 1,22,-1
EndSplineSet
Validated: 9
EndChar

StartChar: puzzle
Encoding: 57360 57360 102
Width: 512
GlyphClass: 2
Flags: W
LayerCount: 2
Fore
SplineSet
403 279 m 0,0,1
 377 279 377 279 365 260 c 1,2,-1
 365 363 l 1,3,-1
 279 363 l 1,4,5
 288 377 288 377 288 388 c 0,6,7
 288 408 288 408 274 421.5 c 128,-1,8
 260 435 260 435 241 435 c 0,9,10
 220 436 220 436 206 422.5 c 128,-1,11
 192 409 192 409 192 388 c 0,12,13
 192 377 192 377 201 363 c 1,14,-1
 107 363 l 1,15,-1
 107 286 l 2,16,17
 109 286 109 286 113 287 c 128,-1,18
 117 288 117 288 119 288 c 0,19,20
 142 288 142 288 157.5 272.5 c 128,-1,21
 173 257 173 257 173 235 c 0,22,23
 173 212 173 212 157.5 196.5 c 128,-1,24
 142 181 142 181 119 181 c 0,25,26
 111 181 111 181 107 183 c 1,27,-1
 107 107 l 1,28,-1
 211 107 l 1,29,30
 192 90 192 90 192 68 c 0,31,32
 192 49 192 49 206 35 c 128,-1,33
 220 21 220 21 241 21 c 0,34,35
 260 21 260 21 274 35 c 128,-1,36
 288 49 288 49 288 68 c 0,37,38
 288 94 288 94 269 107 c 1,39,-1
 365 107 l 1,40,-1
 365 203 l 1,41,42
 380 183 380 183 403 183 c 0,43,44
 422 183 422 183 436 197 c 128,-1,45
 450 211 450 211 450 230 c 0,46,47
 450 251 450 251 436.5 265 c 128,-1,48
 423 279 423 279 403 279 c 0,0,1
EndSplineSet
Validated: 41
EndChar

StartChar: clock
Encoding: 57361 57361 103
Width: 512
GlyphClass: 2
Flags: W
LayerCount: 2
Fore
SplineSet
256 405 m 128,-1,1
 186 405 186 405 135.5 355 c 128,-1,2
 85 305 85 305 85 235 c 0,3,4
 85 164 85 164 135.5 114 c 128,-1,5
 186 64 186 64 256 64 c 128,-1,6
 326 64 326 64 376.5 114 c 128,-1,7
 427 164 427 164 427 235 c 0,8,9
 427 305 427 305 376.5 355 c 128,-1,0
 326 405 326 405 256 405 c 128,-1,1
320 149 m 1,10,-1
 235 213 l 1,11,-1
 235 341 l 1,12,-1
 277 341 l 1,13,-1
 277 235 l 1,14,-1
 314 209 l 2,15,16
 347 186 347 186 320 149 c 1,10,-1
EndSplineSet
Validated: 41
EndChar

StartChar: dice
Encoding: 57362 57362 104
Width: 512
GlyphClass: 2
Flags: W
LayerCount: 2
Fore
SplineSet
341 405 m 2,0,-1
 85 405 l 1,1,-1
 85 149 l 2,2,3
 85 123 85 123 103.5 104 c 128,-1,4
 122 85 122 85 149 85 c 2,5,-1
 405 85 l 1,6,-1
 405 341 l 2,7,8
 405 368 405 368 386 386.5 c 128,-1,9
 367 405 367 405 341 405 c 2,0,-1
160 149 m 128,-1,11
 147 149 147 149 137.5 158.5 c 128,-1,12
 128 168 128 168 128 181 c 128,-1,13
 128 194 128 194 137.5 203.5 c 128,-1,14
 147 213 147 213 160 213 c 128,-1,15
 173 213 173 213 182.5 203.5 c 128,-1,16
 192 194 192 194 192 181 c 128,-1,17
 192 168 192 168 182.5 158.5 c 128,-1,10
 173 149 173 149 160 149 c 128,-1,11
160 277 m 128,-1,19
 147 277 147 277 137.5 286.5 c 128,-1,20
 128 296 128 296 128 309 c 128,-1,21
 128 322 128 322 137.5 331.5 c 128,-1,22
 147 341 147 341 160 341 c 128,-1,23
 173 341 173 341 182.5 331.5 c 128,-1,24
 192 322 192 322 192 309 c 128,-1,25
 192 296 192 296 182.5 286.5 c 128,-1,18
 173 277 173 277 160 277 c 128,-1,19
245 213 m 128,-1,27
 232 213 232 213 222.5 222.5 c 128,-1,28
 213 232 213 232 213 245 c 128,-1,29
 213 258 213 258 222.5 267.5 c 128,-1,30
 232 277 232 277 245 277 c 128,-1,31
 258 277 258 277 267.5 267.5 c 128,-1,32
 277 258 277 258 277 245 c 128,-1,33
 277 232 277 232 267.5 222.5 c 128,-1,26
 258 213 258 213 245 213 c 128,-1,27
331 149 m 128,-1,35
 318 149 318 149 308.5 158.5 c 128,-1,36
 299 168 299 168 299 181 c 128,-1,37
 299 194 299 194 308.5 203.5 c 128,-1,38
 318 213 318 213 331 213 c 128,-1,39
 344 213 344 213 353.5 203.5 c 128,-1,40
 363 194 363 194 363 181 c 128,-1,41
 363 168 363 168 353.5 158.5 c 128,-1,34
 344 149 344 149 331 149 c 128,-1,35
331 277 m 128,-1,43
 318 277 318 277 308.5 286.5 c 128,-1,44
 299 296 299 296 299 309 c 128,-1,45
 299 322 299 322 308.5 331.5 c 128,-1,46
 318 341 318 341 331 341 c 128,-1,47
 344 341 344 341 353.5 331.5 c 128,-1,48
 363 322 363 322 363 309 c 128,-1,49
 363 296 363 296 353.5 286.5 c 128,-1,42
 344 277 344 277 331 277 c 128,-1,43
EndSplineSet
Validated: 9
EndChar

StartChar: magnifying-glass
Encoding: 57344 57344 105
Width: 512
GlyphClass: 2
Flags: W
LayerCount: 2
Fore
SplineSet
350 162 m 1,0,1
 384 204 384 204 384 256 c 0,2,3
 384 318 384 318 340.5 361.5 c 128,-1,4
 297 405 297 405 235 405 c 0,5,6
 172 405 172 405 128.5 361.5 c 128,-1,7
 85 318 85 318 85 256 c 128,-1,8
 85 194 85 194 128.5 150.5 c 128,-1,9
 172 107 172 107 235 107 c 0,10,11
 274 107 274 107 303 124 c 1,12,-1
 363 64 l 2,13,14
 386 41 386 41 405 40.5 c 128,-1,15
 424 40 424 40 448 64 c 1,16,-1
 350 162 l 1,0,1
128 256 m 0,17,18
 128 301 128 301 159 332 c 128,-1,19
 190 363 190 363 235 363 c 0,20,21
 279 363 279 363 310 332 c 128,-1,22
 341 301 341 301 341 256 c 128,-1,23
 341 211 341 211 310 180 c 128,-1,24
 279 149 279 149 235 149 c 0,25,26
 190 149 190 149 159 180.5 c 128,-1,27
 128 212 128 212 128 256 c 0,17,18
EndSplineSet
Validated: 553
EndChar

StartChar: caret-right
Encoding: 57430 57430 106
Width: 512
GlyphClass: 2
Flags: W
LayerCount: 2
Fore
SplineSet
149 427 m 1,0,1
 136 414 136 414 136 395 c 128,-1,2
 136 376 136 376 149 363 c 2,3,-1
 277 235 l 1,4,-1
 149 107 l 2,5,6
 136 94 136 94 136 75 c 128,-1,7
 136 56 136 56 149 43 c 1,8,-1
 341 235 l 1,9,-1
 149 427 l 1,0,1
EndSplineSet
Validated: 521
EndChar

StartChar: eye
Encoding: 57351 57351 107
Width: 512
GlyphClass: 2
Flags: W
LayerCount: 2
Fore
SplineSet
256 384 m 0,0,1
 208 384 208 384 149.5 352 c 128,-1,2
 91 320 91 320 56 288 c 2,3,-1
 21 256 l 1,4,5
 26 251 26 251 35.5 242.5 c 128,-1,6
 45 234 45 234 72.5 211.5 c 128,-1,7
 100 189 100 189 127 172.5 c 128,-1,8
 154 156 154 156 190 142 c 128,-1,9
 226 128 226 128 256 128 c 0,10,11
 304 128 304 128 362.5 160 c 128,-1,12
 421 192 421 192 456 224 c 2,13,-1
 491 256 l 1,14,15
 486 261 486 261 476.5 269.5 c 128,-1,16
 467 278 467 278 439.5 300.5 c 128,-1,17
 412 323 412 323 385 339.5 c 128,-1,18
 358 356 358 356 322 370 c 128,-1,19
 286 384 286 384 256 384 c 0,0,1
256 171 m 128,-1,21
 221 171 221 171 196 196 c 128,-1,22
 171 221 171 221 171 256 c 128,-1,23
 171 291 171 291 196 316 c 128,-1,24
 221 341 221 341 256 341 c 128,-1,25
 291 341 291 341 316 316 c 128,-1,26
 341 291 341 291 341 256 c 128,-1,27
 341 221 341 221 316 196 c 128,-1,20
 291 171 291 171 256 171 c 128,-1,21
256 171 m 1,28,-1
 299 256 l 1,29,30
 299 238 299 238 286.5 225.5 c 128,-1,31
 274 213 274 213 256 213 c 128,-1,32
 238 213 238 213 225.5 225.5 c 128,-1,33
 213 238 213 238 213 256 c 128,-1,34
 213 274 213 274 225.5 286.5 c 128,-1,35
 238 299 238 299 256 299 c 128,-1,36
 274 299 274 299 286.5 286.5 c 128,-1,37
 299 274 299 274 299 256 c 1,38,-1
 256 171 l 1,28,-1
256 171 m 1024,39,-1
EndSplineSet
Validated: 5
EndChar

StartChar: trash
Encoding: 57648 57648 108
Width: 512
GlyphClass: 2
Flags: W
LayerCount: 2
Fore
SplineSet
128 363 m 1,0,1
 128 380 128 380 140.5 392.5 c 128,-1,2
 153 405 153 405 171 405 c 2,3,-1
 213 405 l 1,4,-1
 235 427 l 1,5,-1
 277 427 l 1,6,-1
 299 405 l 1,7,-1
 341 405 l 2,8,9
 359 405 359 405 371.5 392.5 c 128,-1,10
 384 380 384 380 384 363 c 1,11,-1
 128 363 l 1,0,1
149 341 m 1,12,-1
 363 341 l 1,13,-1
 341 107 l 1,14,-1
 171 107 l 1,15,-1
 149 341 l 1,12,-1
EndSplineSet
Validated: 1
EndChar

StartChar: trash-undo
Encoding: 57649 57649 109
Width: 512
GlyphClass: 2
Flags: W
LayerCount: 2
Fore
SplineSet
437 96 m 1,0,-1
 107 427 l 1,1,-1
 85 405 l 1,2,-1
 149 341 l 1,3,-1
 171 107 l 1,4,-1
 341 107 l 1,5,-1
 346 145 l 1,6,-1
 416 75 l 1,7,-1
 437 96 l 1,0,-1
363 341 m 1,8,-1
 235 341 l 1,9,-1
 352 224 l 1,10,-1
 363 341 l 1,8,-1
384 363 m 1,11,12
 384 380 384 380 371.5 392.5 c 128,-1,13
 359 405 359 405 341 405 c 2,14,-1
 299 405 l 1,15,-1
 277 427 l 1,16,-1
 235 427 l 1,17,-1
 213 405 l 1,18,-1
 171 405 l 1,19,-1
 213 363 l 1,20,-1
 384 363 l 1,11,12
EndSplineSet
Validated: 521
EndChar

StartChar: bookmark
Encoding: 57911 57911 110
Width: 512
GlyphClass: 2
Flags: W
LayerCount: 2
Fore
SplineSet
320 405 m 2,0,-1
 171 405 l 2,1,2
 153 405 153 405 140.5 392.5 c 128,-1,3
 128 380 128 380 128 363 c 2,4,-1
 128 299 l 1,5,-1
 192 299 l 1,6,-1
 192 64 l 1,7,-1
 277 128 l 1,8,-1
 363 64 l 1,9,-1
 363 363 l 2,10,11
 363 380 363 380 350 392.5 c 128,-1,12
 337 405 337 405 320 405 c 2,0,-1
192 320 m 1,13,-1
 149 320 l 1,14,-1
 149 363 l 2,15,16
 149 372 149 372 155 378 c 128,-1,17
 161 384 161 384 171 384 c 2,18,-1
 192 384 l 1,19,-1
 192 320 l 1,13,-1
EndSplineSet
Validated: 9
EndChar

StartChar: block
Encoding: 57650 57650 111
Width: 512
GlyphClass: 2
Flags: W
LayerCount: 2
Fore
SplineSet
256 427 m 128,-1,1
 186 427 186 427 135.5 376.5 c 128,-1,2
 85 326 85 326 85 256 c 128,-1,3
 85 186 85 186 135.5 135.5 c 128,-1,4
 186 85 186 85 256 85 c 128,-1,5
 326 85 326 85 376.5 135.5 c 128,-1,6
 427 186 427 186 427 256 c 128,-1,7
 427 326 427 326 376.5 376.5 c 128,-1,0
 326 427 326 427 256 427 c 128,-1,1
363 235 m 1,8,-1
 149 235 l 1,9,-1
 149 277 l 1,10,-1
 363 277 l 1,11,-1
 363 235 l 1,8,-1
EndSplineSet
Validated: 9
EndChar

StartChar: block-undo
Encoding: 57651 57651 112
Width: 512
GlyphClass: 2
Flags: W
LayerCount: 2
Fore
SplineSet
363 277 m 1,0,-1
 363 235 l 1,1,-1
 320 235 l 1,2,-1
 397 158 l 1,3,4
 427 202 427 202 427 256 c 0,5,6
 427 326 427 326 376.5 376.5 c 128,-1,7
 326 427 326 427 256 427 c 0,8,9
 202 427 202 427 158 397 c 1,10,-1
 277 277 l 1,11,-1
 363 277 l 1,0,-1
85 427 m 1,12,-1
 64 405 l 1,13,-1
 115 354 l 1,14,15
 85 310 85 310 85 256 c 0,16,17
 85 186 85 186 135.5 135.5 c 128,-1,18
 186 85 186 85 256 85 c 0,19,20
 310 85 310 85 354 115 c 1,21,-1
 405 64 l 1,22,-1
 427 85 l 1,23,-1
 85 427 l 1,12,-1
149 235 m 1,24,-1
 149 277 l 1,25,-1
 192 277 l 1,26,-1
 235 235 l 1,27,-1
 149 235 l 1,24,-1
EndSplineSet
Validated: 521
EndChar

StartChar: public-domain
Encoding: 58627 58627 113
Width: 512
GlyphClass: 2
Flags: W
LayerCount: 2
Fore
SplineSet
335 228 m 1,0,1
 341 242 341 242 341 256 c 1,2,-1
 305 256 l 1,3,-1
 335 228 l 1,0,1
331 331 m 0,4,5
 313 363 313 363 275 370.5 c 128,-1,6
 237 378 237 378 207 356 c 1,7,-1
 233 331 l 1,8,9
 253 346 253 346 276 334.5 c 128,-1,10
 299 323 299 323 301 299 c 1,11,-1
 339 299 l 1,12,13
 339 321 339 321 331 331 c 0,4,5
256 427 m 128,-1,15
 194 427 194 427 150.5 383.5 c 128,-1,16
 107 340 107 340 107 277 c 0,17,18
 107 215 107 215 150.5 171.5 c 128,-1,19
 194 128 194 128 256 128 c 128,-1,20
 318 128 318 128 361.5 171.5 c 128,-1,21
 405 215 405 215 405 277 c 0,22,23
 405 340 405 340 361.5 383.5 c 128,-1,14
 318 427 318 427 256 427 c 128,-1,15
128 277 m 0,24,25
 128 311 128 311 149 346 c 1,26,-1
 179 316 l 1,27,28
 169 289 169 289 173.5 258 c 128,-1,29
 178 227 178 227 198 205 c 0,30,31
 217 186 217 186 247.5 181.5 c 128,-1,32
 278 177 278 177 303 190 c 1,33,-1
 324 166 l 1,34,35
 294 147 294 147 258 147 c 0,36,37
 204 148 204 148 166 186 c 128,-1,38
 128 224 128 224 128 277 c 0,24,25
211 282 m 1,39,-1
 275 215 l 1,40,41
 242 205 242 205 222 233 c 0,42,43
 211 250 211 250 211 282 c 1,39,-1
348 188 m 1,44,-1
 169 369 l 1,45,46
 200 405 200 405 256 405 c 0,47,48
 309 405 309 405 346.5 367.5 c 128,-1,49
 384 330 384 330 384 277 c 0,50,51
 384 227 384 227 348 188 c 1,44,-1
EndSplineSet
Validated: 553
EndChar

StartChar: edit
Encoding: 57888 57888 114
Width: 512
GlyphClass: 2
Flags: W
LayerCount: 2
Fore
SplineSet
341 448 m 1,0,-1
 85 192 l 1,1,-1
 64 85 l 1,2,-1
 171 107 l 1,3,-1
 427 363 l 1,4,5
 427 395 427 395 400 421.5 c 128,-1,6
 373 448 373 448 341 448 c 1,0,-1
132 160 m 1,7,8
 123 169 123 169 111 177 c 1,9,-1
 352 420 l 1,10,11
 365 417 365 417 373 405 c 1,12,-1
 132 160 l 1,7,8
EndSplineSet
Validated: 9
EndChar

StartChar: edit-undo
Encoding: 57889 57889 115
Width: 512
GlyphClass: 2
Flags: W
LayerCount: 2
Fore
SplineSet
316 448 m 0,0,1
 347 448 347 448 371 437 c 0,2,3
 405 421 405 421 412 401 c 1,4,5
 326 401 326 401 273 335 c 1,6,-1
 299 294 l 1,7,-1
 156 299 l 1,8,-1
 166 442 l 1,9,-1
 203 401 l 1,10,11
 252 448 252 448 316 448 c 0,0,1
299 275 m 1,12,-1
 243 275 l 1,13,-1
 130 158 l 1,14,15
 128 163 128 163 124.5 166.5 c 128,-1,16
 121 170 121 170 116 173.5 c 128,-1,17
 111 177 111 177 109 179 c 1,18,19
 120 190 120 190 155.5 226 c 128,-1,20
 191 262 191 262 211 282 c 1,21,-1
 171 282 l 1,22,-1
 85 192 l 1,23,-1
 64 85 l 1,24,-1
 171 107 l 1,25,-1
 335 275 l 1,26,-1
 299 275 l 1,12,-1
418 382 m 1,27,28
 367 382 367 382 326 352 c 2,29,-1
 305 337 l 1,30,-1
 320 311 l 1,31,-1
 341 282 l 1,32,-1
 427 367 l 1,33,34
 422 378 422 378 418 382 c 1,27,28
EndSplineSet
Validated: 521
EndChar

StartChar: edit-undo-2
Encoding: 58113 58113 116
Width: 512
GlyphClass: 2
Flags: W
LayerCount: 2
Fore
SplineSet
316 448 m 0,0,1
 347 448 347 448 371 437 c 0,2,3
 405 421 405 421 412 401 c 1,4,5
 326 401 326 401 273 335 c 1,6,-1
 299 294 l 1,7,-1
 156 299 l 1,8,-1
 166 442 l 1,9,-1
 203 401 l 1,10,11
 252 448 252 448 316 448 c 0,0,1
EndSplineSet
Validated: 513
EndChar

StartChar: edit-undo-1
Encoding: 58112 58112 117
Width: 512
GlyphClass: 2
Flags: W
LayerCount: 2
Fore
SplineSet
299 275 m 1,0,-1
 243 275 l 1,1,-1
 130 158 l 1,2,3
 128 163 128 163 124.5 166.5 c 128,-1,4
 121 170 121 170 116 173.5 c 128,-1,5
 111 177 111 177 109 179 c 1,6,7
 120 190 120 190 155.5 226 c 128,-1,8
 191 262 191 262 211 282 c 1,9,-1
 171 282 l 1,10,-1
 85 192 l 1,11,-1
 64 85 l 1,12,-1
 171 107 l 1,13,-1
 335 275 l 1,14,-1
 299 275 l 1,0,-1
418 382 m 1,15,16
 367 382 367 382 326 352 c 2,17,-1
 305 337 l 1,18,-1
 320 311 l 1,19,-1
 341 282 l 1,20,-1
 427 367 l 1,21,22
 422 378 422 378 418 382 c 1,15,16
EndSplineSet
Validated: 521
EndChar

StartChar: bright-full
Encoding: 57398 57398 118
Width: 512
GlyphClass: 2
Flags: W
LayerCount: 2
Fore
SplineSet
386 378 m 0,0,1
 386 368 386 368 380 358 c 2,2,-1
 350 329 l 1,3,-1
 331 346 l 1,4,-1
 378 393 l 1,5,6
 386 389 386 389 386 378 c 0,0,1
375 265 m 1,7,-1
 444 265 l 1,8,9
 444 254 444 254 435 245 c 0,10,11
 427 237 427 237 418 237 c 2,12,-1
 375 237 l 1,13,-1
 375 265 l 1,7,-1
243 371 m 1,14,-1
 243 439 l 1,15,16
 254 439 254 439 262 431 c 0,17,18
 271 423 271 423 271 414 c 2,19,-1
 271 371 l 1,20,-1
 243 371 l 1,14,-1
380 122 m 128,-1,22
 369 122 369 122 363 128 c 2,23,-1
 333 158 l 1,24,-1
 350 175 l 1,25,-1
 397 128 l 1,26,21
 391 122 391 122 380 122 c 128,-1,22
132 382 m 128,-1,28
 143 382 143 382 149 375 c 2,29,-1
 179 346 l 1,30,-1
 162 326 l 1,31,-1
 115 375 l 1,32,27
 121 382 121 382 132 382 c 128,-1,28
243 132 m 1,33,-1
 269 132 l 1,34,-1
 269 64 l 1,35,36
 258 64 258 64 250 73 c 0,37,38
 241 81 241 81 241 90 c 2,39,-1
 243 132 l 1,33,-1
94 265 m 2,40,-1
 137 265 l 1,41,-1
 137 239 l 1,42,-1
 68 239 l 1,43,44
 68 250 68 250 77 258 c 0,45,46
 83 265 83 265 94 265 c 2,40,-1
132 145 m 2,47,-1
 162 175 l 1,48,-1
 179 158 l 1,49,-1
 132 111 l 1,50,51
 126 117 126 117 126 128 c 128,-1,52
 126 139 126 139 132 145 c 2,47,-1
256 316 m 128,-1,54
 283 316 283 316 301.5 297.5 c 128,-1,55
 320 279 320 279 320 252 c 0,56,57
 320 224 320 224 301.5 206 c 128,-1,58
 283 188 283 188 256 188 c 128,-1,59
 229 188 229 188 210.5 206 c 128,-1,60
 192 224 192 224 192 252 c 0,61,62
 192 279 192 279 210.5 297.5 c 128,-1,53
 229 316 229 316 256 316 c 128,-1,54
256 337 m 128,-1,64
 221 337 221 337 196 312 c 128,-1,65
 171 287 171 287 171 252 c 128,-1,66
 171 217 171 217 196 191.5 c 128,-1,67
 221 166 221 166 256 166 c 128,-1,68
 291 166 291 166 316 191.5 c 128,-1,69
 341 217 341 217 341 252 c 128,-1,70
 341 287 341 287 316 312 c 128,-1,63
 291 337 291 337 256 337 c 128,-1,64
256 316 m 128,-1,72
 283 316 283 316 301.5 297.5 c 128,-1,73
 320 279 320 279 320 252 c 0,74,75
 320 224 320 224 301.5 206 c 128,-1,76
 283 188 283 188 256 188 c 128,-1,77
 229 188 229 188 210.5 206 c 128,-1,78
 192 224 192 224 192 252 c 0,79,80
 192 279 192 279 210.5 297.5 c 128,-1,71
 229 316 229 316 256 316 c 128,-1,72
256 337 m 128,-1,82
 221 337 221 337 196 312 c 128,-1,83
 171 287 171 287 171 252 c 128,-1,84
 171 217 171 217 196 191.5 c 128,-1,85
 221 166 221 166 256 166 c 128,-1,86
 291 166 291 166 316 191.5 c 128,-1,87
 341 217 341 217 341 252 c 128,-1,88
 341 287 341 287 316 312 c 128,-1,81
 291 337 291 337 256 337 c 128,-1,82
EndSplineSet
Validated: 517
EndChar

StartChar: sun-moon
Encoding: 57399 57399 119
Width: 512
GlyphClass: 2
Flags: W
LayerCount: 2
Fore
SplineSet
243 371 m 1,0,-1
 243 439 l 1,1,2
 254 439 254 439 262 431 c 0,3,4
 271 423 271 423 271 414 c 2,5,-1
 271 371 l 1,6,-1
 243 371 l 1,0,-1
132 382 m 128,-1,8
 143 382 143 382 149 375 c 2,9,-1
 179 346 l 1,10,-1
 162 326 l 1,11,-1
 115 375 l 1,12,7
 121 382 121 382 132 382 c 128,-1,8
243 132 m 1,13,-1
 269 132 l 1,14,-1
 269 64 l 1,15,16
 258 64 258 64 250 73 c 0,17,18
 241 81 241 81 241 90 c 2,19,-1
 243 132 l 1,13,-1
94 265 m 2,20,-1
 137 265 l 1,21,-1
 137 239 l 1,22,-1
 68 239 l 1,23,24
 68 250 68 250 77 258 c 0,25,26
 83 265 83 265 94 265 c 2,20,-1
132 145 m 2,27,-1
 162 175 l 1,28,-1
 179 158 l 1,29,-1
 132 111 l 1,30,31
 126 117 126 117 126 128 c 128,-1,32
 126 139 126 139 132 145 c 2,27,-1
256 337 m 128,-1,34
 221 337 221 337 196 312 c 128,-1,35
 171 287 171 287 171 252 c 128,-1,36
 171 217 171 217 196 191.5 c 128,-1,37
 221 166 221 166 256 166 c 128,-1,38
 291 166 291 166 316 191.5 c 128,-1,39
 341 217 341 217 341 252 c 128,-1,40
 341 287 341 287 316 312 c 128,-1,33
 291 337 291 337 256 337 c 128,-1,34
192 252 m 0,41,42
 192 279 192 279 210.5 297.5 c 128,-1,43
 229 316 229 316 256 316 c 1,44,-1
 256 188 l 1,45,46
 229 188 229 188 210.5 206 c 128,-1,47
 192 224 192 224 192 252 c 0,41,42
EndSplineSet
Validated: 521
EndChar

StartChar: cc
Encoding: 58626 58626 120
Width: 512
GlyphClass: 2
Flags: W
LayerCount: 2
Fore
SplineSet
256 427 m 128,-1,1
 194 427 194 427 150.5 383.5 c 128,-1,2
 107 340 107 340 107 277 c 0,3,4
 107 215 107 215 150.5 171.5 c 128,-1,5
 194 128 194 128 256 128 c 128,-1,6
 318 128 318 128 361.5 171.5 c 128,-1,7
 405 215 405 215 405 277 c 0,8,9
 405 340 405 340 361.5 383.5 c 128,-1,0
 318 427 318 427 256 427 c 128,-1,1
256 149 m 128,-1,11
 204 149 204 149 166 186.5 c 128,-1,12
 128 224 128 224 128 277 c 128,-1,13
 128 330 128 330 165.5 367.5 c 128,-1,14
 203 405 203 405 256 405 c 128,-1,15
 309 405 309 405 346.5 367.5 c 128,-1,16
 384 330 384 330 384 277 c 128,-1,17
 384 224 384 224 346 186.5 c 128,-1,10
 308 149 308 149 256 149 c 128,-1,11
220 247 m 0,18,19
 198 247 198 247 198 273 c 128,-1,20
 198 299 198 299 220 299 c 0,21,22
 230 299 230 299 237 286 c 1,23,-1
 256 297 l 1,24,25
 242 318 242 318 215 318 c 0,26,27
 196 318 196 318 183 305 c 0,28,29
 171 293 171 293 171 273 c 0,30,31
 171 251 171 251 183 239 c 0,32,33
 196 226 196 226 215 226 c 0,34,35
 238 226 238 226 256 250 c 1,36,-1
 237 258 l 1,37,38
 230 247 230 247 220 247 c 0,18,19
305 247 m 0,39,40
 284 247 284 247 284 273 c 128,-1,41
 284 299 284 299 305 299 c 0,42,43
 316 299 316 299 322 286 c 1,44,-1
 341 297 l 1,45,46
 329 318 329 318 301 318 c 0,47,48
 281 318 281 318 269 305 c 0,49,50
 256 293 256 293 256 273 c 0,51,52
 256 251 256 251 269 239 c 0,53,54
 281 226 281 226 301 226 c 0,55,56
 325 226 325 226 341 250 c 1,57,-1
 322 258 l 1,58,59
 315 247 315 247 305 247 c 0,39,40
EndSplineSet
Validated: 9
EndChar

StartChar: cite
Encoding: 57910 57910 121
Width: 512
GlyphClass: 2
Flags: W
LayerCount: 2
Fore
SplineSet
107 427 m 1,0,-1
 107 85 l 1,1,-1
 341 85 l 2,2,3
 369 85 369 85 387 103.5 c 128,-1,4
 405 122 405 122 405 149 c 2,5,-1
 405 427 l 1,6,-1
 107 427 l 1,0,-1
341 107 m 2,7,-1
 149 107 l 1,8,-1
 149 405 l 1,9,-1
 235 405 l 1,10,-1
 235 235 l 1,11,-1
 277 277 l 1,12,-1
 320 235 l 1,13,-1
 320 405 l 1,14,-1
 384 405 l 1,15,-1
 384 149 l 2,16,17
 384 132 384 132 371.5 119.5 c 128,-1,18
 359 107 359 107 341 107 c 2,7,-1
EndSplineSet
Validated: 9
EndChar

StartChar: translation
Encoding: 57377 57377 122
Width: 512
GlyphClass: 2
Flags: W
LayerCount: 2
Fore
SplineSet
427 141 m 1,0,-1
 454 64 l 1,1,-1
 493 64 l 1,2,-1
 403 341 l 1,3,-1
 350 341 l 1,4,-1
 256 64 l 1,5,-1
 294 64 l 1,6,-1
 320 141 l 1,7,-1
 427 141 l 1,0,-1
373 309 m 1,8,-1
 418 177 l 1,9,-1
 329 177 l 1,10,-1
 373 309 l 1,8,-1
173 363 m 2,11,-1
 192 363 l 1,12,-1
 171 405 l 1,13,-1
 128 405 l 1,14,-1
 139 384 l 2,15,16
 149 363 149 363 173 363 c 2,11,-1
254 309 m 1,17,-1
 297 309 l 1,18,-1
 307 341 l 1,19,-1
 43 341 l 1,20,-1
 43 309 l 1,21,-1
 83 309 l 1,22,23
 102 253 102 253 143 209 c 1,24,25
 113 186 113 186 41 160 c 1,26,-1
 51 128 l 1,27,28
 120 149 120 149 169 186 c 1,29,30
 203 159 203 159 243 147 c 1,31,-1
 254 179 l 1,32,33
 220 189 220 189 194 209 c 1,34,35
 208 223 208 223 219.5 239 c 128,-1,36
 231 255 231 255 236.5 265.5 c 128,-1,37
 242 276 242 276 246 284.5 c 128,-1,38
 250 293 250 293 250 294 c 2,39,-1
 254 309 l 1,17,-1
169 230 m 1,40,41
 131 268 131 268 119 309 c 1,42,-1
 220 309 l 1,43,44
 207 273 207 273 169 230 c 1,40,41
EndSplineSet
Validated: 9
EndChar

StartChar: speech-bubble-add
Encoding: 57894 57894 123
Width: 512
GlyphClass: 2
Flags: W
LayerCount: 2
Fore
SplineSet
107 384 m 1,0,-1
 107 149 l 1,1,-1
 43 85 l 1,2,-1
 405 85 l 2,3,4
 433 85 433 85 451 103.5 c 128,-1,5
 469 122 469 122 469 149 c 2,6,-1
 469 384 l 1,7,-1
 107 384 l 1,0,-1
363 235 m 1,8,-1
 299 235 l 1,9,-1
 299 171 l 1,10,-1
 277 171 l 1,11,-1
 277 235 l 1,12,-1
 213 235 l 1,13,-1
 213 256 l 1,14,-1
 277 256 l 1,15,-1
 277 320 l 1,16,-1
 299 320 l 1,17,-1
 299 256 l 1,18,-1
 363 256 l 1,19,-1
 363 235 l 1,8,-1
EndSplineSet
Validated: 521
EndChar

StartChar: clip
Encoding: 57410 57410 124
Width: 512
GlyphClass: 2
Flags: W
LayerCount: 2
Fore
SplineSet
399 386 m 1,0,1
 373 411 373 411 336 410.5 c 128,-1,2
 299 410 299 410 275 384 c 1,3,-1
 279 380 l 2,4,5
 297 362 297 362 324 371 c 0,6,7
 352 383 352 383 375 358 c 0,8,9
 391 343 391 343 390.5 322.5 c 128,-1,10
 390 302 390 302 375 286 c 2,11,-1
 224 134 l 2,12,13
 209 119 209 119 188.5 119 c 128,-1,14
 168 119 168 119 151 134 c 0,15,16
 136 149 136 149 136 170 c 128,-1,17
 136 191 136 191 151 207 c 2,18,-1
 245 301 l 2,19,20
 261 315 261 315 273 303 c 128,-1,21
 285 291 285 291 271 275 c 2,22,-1
 198 203 l 2,23,24
 189 193 189 193 189.5 178 c 128,-1,25
 190 163 190 163 201 154 c 1,26,-1
 292 245 l 2,27,28
 319 272 319 272 311 303 c 0,29,30
 305 332 305 332 275 343 c 0,31,32
 244 351 244 351 220 329 c 2,33,-1
 126 235 l 2,34,35
 100 210 100 210 100.5 172.5 c 128,-1,36
 101 135 101 135 128 111 c 0,37,38
 152 86 152 86 190 86.5 c 128,-1,39
 228 87 228 87 252 113 c 2,40,-1
 401 262 l 2,41,42
 427 288 427 288 427 326 c 0,43,44
 427 361 427 361 399 386 c 1,45,-1
 399 386 l 1,46,-1
 399 386 l 1,47,-1
 399 386 l 1,0,1
EndSplineSet
Validated: 37
EndChar

StartChar: triangle-up
Encoding: 57442 57442 125
Width: 512
GlyphClass: 2
Flags: W
LayerCount: 2
Fore
SplineSet
85 128 m 1,0,-1
 427 128 l 1,1,-1
 256 341 l 1,2,-1
 85 128 l 1,0,-1
EndSplineSet
Validated: 521
EndChar

StartChar: triangle-right
Encoding: 57443 57443 126
Width: 512
GlyphClass: 2
Flags: W
LayerCount: 2
Fore
SplineSet
171 427 m 1,0,-1
 171 85 l 1,1,-1
 384 256 l 1,2,-1
 171 427 l 1,0,-1
EndSplineSet
Validated: 521
EndChar

StartChar: triangle-left
Encoding: 57444 57444 127
Width: 512
GlyphClass: 2
Flags: W
LayerCount: 2
Fore
SplineSet
171 256 m 1,0,-1
 384 85 l 1,1,-1
 384 427 l 1,2,-1
 171 256 l 1,0,-1
EndSplineSet
Validated: 521
EndChar

StartChar: star-half
Encoding: 57411 57411 128
Width: 512
GlyphClass: 2
Flags: W
LayerCount: 2
Fore
SplineSet
256 354 m 1,0,-1
 292 277 l 1,1,-1
 378 267 l 1,2,-1
 320 207 l 1,3,-1
 331 124 l 1,4,-1
 256 160 l 1,5,-1
 256 354 l 1,0,-1
256 427 m 1,6,-1
 196 307 l 1,7,-1
 64 288 l 1,8,-1
 160 194 l 1,9,-1
 137 64 l 1,10,-1
 256 128 l 1,11,-1
 373 64 l 1,12,-1
 352 196 l 1,13,-1
 448 290 l 1,14,-1
 314 309 l 1,15,-1
 256 427 l 1,6,-1
EndSplineSet
Validated: 521
EndChar

StartChar: uniE067
Encoding: 57447 57447 129
Width: 512
Flags: W
LayerCount: 2
Fore
SplineSet
384.5 287 m 6,0,1
 384.5 315 384.5 315 366 333 c 132,-1,2
 347.5 351 347.5 351 320.5 351 c 5,3,-1
 320.5 202 l 5,4,-1
 256.5 202 l 5,5,-1
 352.5 95 l 5,6,-1
 448.5 202 l 5,7,-1
 384.5 202 l 5,8,-1
 384.5 287 l 6,0,1
127.5 187 m 6,9,10
 127.5 159 127.5 159 146 141 c 132,-1,11
 164.5 123 164.5 123 191.5 123 c 5,12,-1
 191.5 272 l 5,13,-1
 255.5 272 l 5,14,-1
 159.5 379 l 5,15,-1
 63.5 272 l 5,16,-1
 127.5 272 l 5,17,-1
 127.5 187 l 6,9,10
EndSplineSet
Validated: 9
EndChar

StartChar: help
Encoding: 57937 57937 130
Width: 512
VWidth: 0
LayerCount: 2
Fore
SplineSet
85.3974609375 232.069335938 m 6,0,-1
 85.3544921875 235.717773438 l 6,1,2
 86.142578125 280.521484375 86.142578125 280.521484375 108.444335938 318.337890625 c 132,-1,3
 130.74609375 356.154296875 130.74609375 356.154296875 167.765625 378.053710938 c 4,4,5
 207.704101562 403.333007812 207.704101562 403.333007812 256 403.333007812 c 132,-1,6
 304.293945312 403.333007812 304.293945312 403.333007812 344.170898438 378.095703125 c 4,7,8
 381.897460938 355.775390625 381.897460938 355.775390625 404.282226562 317.083007812 c 132,-1,9
 426.666992188 278.390625 426.666992188 278.390625 426.666992188 232.666992188 c 5,10,-1
 426.602539062 232.069335938 l 5,11,12
 426.17578125 184.478515625 426.17578125 184.478515625 402.05078125 144.9375 c 132,-1,13
 377.924804688 105.395507812 377.924804688 105.395507812 337.6640625 83.73828125 c 6,14,-1
 337.38671875 83.568359375 l 6,15,16
 300.85546875 62 300.85546875 62 256 62 c 132,-1,17
 211.004882812 62 211.004882812 62 173.631835938 84.123046875 c 4,18,19
 147.47265625 98.19140625 147.47265625 98.19140625 127.75390625 120.451171875 c 132,-1,20
 108.03515625 142.7109375 108.03515625 142.7109375 96.8583984375 171.577148438 c 132,-1,21
 85.6806640625 200.443359375 85.6806640625 200.443359375 85.3974609375 232.069335938 c 6,0,-1
405.26953125 232.069335938 m 5,22,-1
 362.602539062 232.069335938 l 5,23,24
 362.288085938 212.209960938 362.288085938 212.209960938 355.224609375 194.189453125 c 132,-1,25
 348.162109375 176.168945312 348.162109375 176.168945312 335.733398438 162.244140625 c 132,-1,26
 323.303710938 148.3203125 323.303710938 148.3203125 306.751953125 139.440429688 c 5,27,-1
 327.360351562 102.298828125 l 5,28,29
 362.526367188 121.196289062 362.526367188 121.196289062 383.645507812 155.766601562 c 132,-1,30
 404.764648438 190.336914062 404.764648438 190.336914062 405.26953125 232.069335938 c 5,22,-1
106.73046875 232.069335938 m 5,31,32
 107.235351562 190.3671875 107.235351562 190.3671875 128.293945312 155.815429688 c 132,-1,33
 149.353515625 121.263671875 149.353515625 121.263671875 184.255859375 102.51171875 c 5,34,-1
 205.50390625 139.311523438 l 5,35,36
 180.450195312 152.408203125 180.450195312 152.408203125 165.16015625 177.19140625 c 132,-1,37
 149.870117188 201.974609375 149.870117188 201.974609375 149.397460938 232.069335938 c 5,38,-1
 106.73046875 232.069335938 l 5,31,32
170.73046875 232.069335938 m 4,39,40
 170.73046875 199.5546875 170.73046875 199.5546875 197.0625 173.444335938 c 132,-1,41
 223.39453125 147.333007812 223.39453125 147.333007812 256 147.333007812 c 132,-1,42
 288.60546875 147.333007812 288.60546875 147.333007812 314.9375 173.444335938 c 132,-1,43
 341.26953125 199.5546875 341.26953125 199.5546875 341.26953125 232.069335938 c 4,44,45
 341.333007812 232.0703125 341.333007812 232.0703125 341.333007812 232.666992188 c 4,46,47
 341.333007812 253.734375 341.333007812 253.734375 329.877929688 273.42578125 c 132,-1,48
 318.422851562 293.116210938 318.422851562 293.116210938 298.501953125 305.557617188 c 132,-1,49
 278.581054688 318 278.581054688 318 256 318 c 4,50,51
 220.475585938 318 220.475585938 318 195.602539062 292.864257812 c 132,-1,52
 170.73046875 267.729492188 170.73046875 267.729492188 170.73046875 232.069335938 c 4,39,40
333.2265625 359.876953125 m 5,53,54
 298.221679688 382 298.221679688 382 256 382 c 132,-1,55
 213.77734375 382 213.77734375 382 178.708984375 359.834960938 c 5,56,-1
 200.576171875 323.397460938 l 5,57,58
 225.829101562 339.333007812 225.829101562 339.333007812 256 339.333007812 c 132,-1,59
 286.198242188 339.333007812 286.198242188 339.333007812 311.338867188 323.418945312 c 5,60,-1
 333.2265625 359.876953125 l 5,53,54
EndSplineSet
Validated: 1
EndChar

StartChar: game
Encoding: 57938 57938 131
Width: 512
VWidth: 0
LayerCount: 2
Fore
SplineSet
85.3330078125 232.666992188 m 4,0,1
 85.3330078125 304.41015625 85.3330078125 304.41015625 134.794921875 353.872070312 c 132,-1,2
 184.255859375 403.333007812 184.255859375 403.333007812 256 403.333007812 c 4,3,4
 326.751953125 403.333007812 326.751953125 403.333007812 376.709960938 353.375976562 c 132,-1,5
 426.666992188 303.418945312 426.666992188 303.418945312 426.666992188 232.666992188 c 132,-1,6
 426.666992188 161.915039062 426.666992188 161.915039062 376.708984375 111.95703125 c 132,-1,7
 326.751953125 62 326.751953125 62 256 62 c 4,8,9
 179.485351562 62 179.485351562 62 132.409179688 113.431640625 c 132,-1,10
 85.3330078125 164.86328125 85.3330078125 164.86328125 85.3330078125 232.666992188 c 4,0,1
189.568359375 320.069335938 m 5,11,12
 229.920898438 286.170898438 229.920898438 286.170898438 266.666992188 238 c 4,13,14
 313.068359375 177.155273438 313.068359375 177.155273438 343.594726562 111.749023438 c 5,15,16
 372.184570312 132.495117188 372.184570312 132.495117188 388.758789062 164.263671875 c 132,-1,17
 405.333007812 196.032226562 405.333007812 196.032226562 405.333007812 232.666992188 c 4,18,19
 405.333007812 260.375 405.333007812 260.375 395.690429688 283.291015625 c 4,20,21
 386.04296875 297.364257812 386.04296875 297.364257812 371.37109375 304.944335938 c 4,22,23
 324.404296875 329.057617188 324.404296875 329.057617188 254.698242188 328.090820312 c 4,24,25
 220.834960938 327.5859375 220.834960938 327.5859375 189.568359375 320.069335938 c 5,11,12
189.440429688 320.047851562 m 5,26,27
 145.198242188 309.311523438 145.198242188 309.311523438 117.205078125 287.856445312 c 5,28,29
 106.666992188 261.391601562 106.666992188 261.391601562 106.666992188 232.666992188 c 4,30,31
 106.666992188 171.037109375 106.666992188 171.037109375 150.208007812 127.322265625 c 5,32,33
 134.709960938 187.541015625 134.709960938 187.541015625 164.053710938 267.120117188 c 4,34,35
 174.4921875 295.395507812 174.4921875 295.395507812 189.50390625 319.962890625 c 5,36,-1
 189.440429688 320.047851562 l 5,26,27
190.037109375 320.81640625 m 6,37,38
 214.7578125 360.905273438 214.7578125 360.905273438 244.94921875 381.594726562 c 5,39,40
 199.697265625 378.295898438 199.697265625 378.295898438 160 345.349609375 c 5,41,42
 185.8359375 324.012695312 185.8359375 324.012695312 189.291015625 320.197265625 c 6,43,-1
 189.653320312 320.197265625 l 5,44,-1
 190.037109375 320.81640625 l 6,37,38
EndSplineSet
Validated: 33
EndChar

StartChar: id
Encoding: 57939 57939 132
Width: 512
VWidth: 0
LayerCount: 2
Fore
SplineSet
384 352 m 1,0,-1
 384 96 l 1,1,-1
 128 96 l 1,2,-1
 128 352 l 1,3,-1
 384 352 l 1,0,-1
341.333007812 309.333007812 m 1,4,-1
 170.666992188 309.333007812 l 1,5,-1
 170.666992188 138.666992188 l 1,6,-1
 341.333007812 138.666992188 l 1,7,-1
 341.333007812 309.333007812 l 1,4,-1
213.700195312 181.697265625 m 1,8,-1
 213.700195312 266.26171875 l 1,9,-1
 298.265625 266.26171875 l 1,10,-1
 298.265625 181.697265625 l 1,11,-1
 213.700195312 181.697265625 l 1,8,-1
EndSplineSet
Validated: 1
EndChar

StartChar: tag
Encoding: 57940 57940 133
Width: 512
VWidth: 0
LayerCount: 2
Fore
SplineSet
85.3330078125 179.114257812 m 1,0,-1
 309.333007812 393.685546875 l 1,1,2
 347.388193168 348.387454044 347.388193168 348.387454044 377.962890625 311.978515625 c 0,3,4
 394.107991607 292.747640001 394.107991607 292.747640001 393.016235352 267.669189453 c 128,-1,5
 391.924479096 242.590738905 391.924479096 242.590738905 374.165039062 224.83203125 c 2,6,-1
 202.666992188 53.3330078125 l 1,7,-1
 85.3330078125 53.3330078125 l 1,8,-1
 85.3330078125 179.114257812 l 1,0,-1
149.333007812 138.666992188 m 128,-1,10
 140.501389309 138.666992188 140.501389309 138.666992188 134.250694654 132.416099927 c 128,-1,11
 128 126.165207666 128 126.165207666 128 117.333007812 c 128,-1,12
 128 108.501464844 128 108.501464844 134.250732422 102.250732422 c 128,-1,13
 140.501464844 96 140.501464844 96 149.333007812 96 c 0,14,15
 153.670980124 96 153.670980124 96 157.621570214 97.6903899176 c 128,-1,16
 161.572160304 99.3807798352 161.572160304 99.3807798352 164.429165259 102.237710668 c 128,-1,17
 167.286170214 105.094641501 167.286170214 105.094641501 168.976581201 109.045004175 c 128,-1,18
 170.666992188 112.995366849 170.666992188 112.995366849 170.666992188 117.333007812 c 0,19,20
 170.666992188 126.165283203 170.666992188 126.165283203 164.416137695 132.416137695 c 128,-1,9
 158.165283203 138.666992188 158.165283203 138.666992188 149.333007812 138.666992188 c 128,-1,10
EndSplineSet
Validated: 33
EndChar

StartChar: task
Encoding: 57941 57941 134
Width: 512
VWidth: 0
LayerCount: 2
Fore
SplineSet
384 256.426757812 m 1,0,-1
 384 53.3330078125 l 1,1,-1
 171.5625 53.3330078125 l 2,2,3
 144.682710319 53.3330078125 144.682710319 53.3330078125 125.674851253 72.3412620272 c 128,-1,4
 106.666992188 91.3495162419 106.666992188 91.3495162419 106.666992188 118.229492188 c 2,5,-1
 106.666992188 127.573242188 l 1,6,-1
 180.90625 53.3330078125 l 1,7,-1
 384 256.426757812 l 1,0,-1
394.666992188 352 m 2,8,9
 407.466796875 364.799804688 407.466796875 364.799804688 426.666625977 364.799804688 c 128,-1,10
 445.866455078 364.799804688 445.866455078 364.799804688 458.666992188 352 c 1,11,-1
 181.333007812 74.6669921875 l 1,12,-1
 42.6669921875 213.333007812 l 1,13,-1
 74.6669921875 245.333007812 l 1,14,-1
 181.333007812 138.666992188 l 1,15,-1
 394.666992188 352 l 2,8,9
106.666992188 234.708984375 m 1,16,-1
 106.666992188 330.666992188 l 1,17,-1
 320.362304688 330.666992188 l 2,18,19
 334.042758004 330.666992188 334.042758004 330.666992188 346.453125 325.077148438 c 1,20,-1
 181.375976562 160 l 1,21,-1
 106.666992188 234.708984375 l 1,16,-1
EndSplineSet
Validated: 5
EndChar

StartChar: photo
Encoding: 57942 57942 135
Width: 512
VWidth: 0
LayerCount: 2
Fore
SplineSet
434.252929688 352.205078125 m 1,0,-1
 434.252929688 95.232421875 l 1,1,-1
 152.626953125 95.232421875 l 2,2,3
 120.831787109 95.232421875 120.831787109 95.232421875 98.3421630859 117.722045898 c 128,-1,4
 75.8525390625 140.211669922 75.8525390625 140.211669922 75.8525390625 172.006835938 c 2,5,-1
 75.8525390625 352.205078125 l 1,6,-1
 434.252929688 352.205078125 l 1,0,-1
294.400390625 300.799804688 m 128,-1,8
 262.605131539 300.799804688 262.605131539 300.799804688 240.102370457 278.297438817 c 128,-1,9
 217.599609375 255.795072947 217.599609375 255.795072947 217.599609375 224 c 0,10,11
 217.599609375 208.383755175 217.599609375 208.383755175 223.685021686 194.162139331 c 128,-1,12
 229.770433997 179.940523487 229.770433997 179.940523487 240.055533123 169.655624951 c 128,-1,13
 250.340632249 159.370726416 250.340632249 159.370726416 264.56237154 153.285460864 c 128,-1,14
 278.78411083 147.200195312 278.78411083 147.200195312 294.400390625 147.200195312 c 0,15,16
 326.195556641 147.200195312 326.195556641 147.200195312 348.697875977 169.702514648 c 128,-1,17
 371.200195312 192.204833984 371.200195312 192.204833984 371.200195312 224 c 128,-1,18
 371.200195312 255.795166016 371.200195312 255.795166016 348.697875977 278.297485352 c 128,-1,7
 326.195556641 300.799804688 326.195556641 300.799804688 294.400390625 300.799804688 c 128,-1,8
141.798828125 327.193359375 m 0,19,20
 131.311686574 327.193359375 131.311686574 327.193359375 122.417277112 322.022474003 c 128,-1,21
 113.522867651 316.851588632 113.522867651 316.851588632 108.358113513 307.958971309 c 128,-1,22
 103.193359375 299.066353986 103.193359375 299.066353986 103.193359375 288.588867188 c 128,-1,23
 103.193359375 278.111380389 103.193359375 278.111380389 108.358113513 269.218763066 c 128,-1,24
 113.522867651 260.326145743 113.522867651 260.326145743 122.417277112 255.155260372 c 128,-1,25
 131.311686574 249.984375 131.311686574 249.984375 141.798828125 249.984375 c 0,26,27
 157.772949219 249.984375 157.772949219 249.984375 169.088134766 261.299560547 c 128,-1,28
 180.403320312 272.614746094 180.403320312 272.614746094 180.403320312 288.588867188 c 128,-1,29
 180.403320312 304.562988281 180.403320312 304.562988281 169.088134766 315.878173828 c 128,-1,30
 157.772949219 327.193359375 157.772949219 327.193359375 141.798828125 327.193359375 c 0,19,20
EndSplineSet
Validated: 1
EndChar

StartChar: depicted-person
Encoding: 57943 57943 136
Width: 512
LayerCount: 2
Fore
SplineSet
448 373.333007812 m 1,0,-1
 448 74.6669921875 l 1,1,-1
 128.064453125 74.6669921875 l 2,2,3
 101.513353725 74.6669921875 101.513353725 74.6669921875 82.7734375 93.4404296875 c 128,-1,4
 64 112.178822219 64 112.178822219 64 138.73046875 c 2,5,-1
 64 373.333007812 l 1,6,-1
 448 373.333007812 l 1,0,-1
256 194.368164062 m 128,-1,8
 208.169407392 194.368164062 208.169407392 194.368164062 178.751207602 172.454760645 c 128,-1,9
 149.333007812 150.541357227 149.333007812 150.541357227 149.333007812 129.194335938 c 2,10,-1
 149.333007812 117.333007812 l 1,11,-1
 362.666992188 117.333007812 l 1,12,-1
 362.666992188 129.194335938 l 2,13,14
 362.666992188 150.541357227 362.666992188 150.541357227 333.248792398 172.454760645 c 128,-1,7
 303.830592608 194.368164062 303.830592608 194.368164062 256 194.368164062 c 128,-1,8
256 330.666992188 m 128,-1,16
 231.472016859 330.666992188 231.472016859 330.666992188 214.104172492 313.298752571 c 128,-1,17
 196.736328125 295.930512955 196.736328125 295.930512955 196.736328125 271.40234375 c 128,-1,18
 196.736328125 246.874267578 196.736328125 246.874267578 214.104125977 229.506469727 c 128,-1,19
 231.471923828 212.138671875 231.471923828 212.138671875 256 212.138671875 c 128,-1,20
 280.528076172 212.138671875 280.528076172 212.138671875 297.895874023 229.506469727 c 128,-1,21
 315.263671875 246.874267578 315.263671875 246.874267578 315.263671875 271.40234375 c 128,-1,22
 315.263671875 295.930512955 315.263671875 295.930512955 297.895827508 313.298752571 c 128,-1,15
 280.527983141 330.666992188 280.527983141 330.666992188 256 330.666992188 c 128,-1,16
EndSplineSet
Validated: 513
EndChar

StartChar: depicted-place
Encoding: 57944 57944 137
Width: 512
LayerCount: 2
Fore
SplineSet
448 373.333007812 m 1,0,-1
 448 74.6669921875 l 1,1,-1
 127.893554688 74.6669921875 l 2,2,3
 101.45155485 74.6669921875 101.45155485 74.6669921875 82.708984375 93.3759765625 c 128,-1,4
 64 112.118547038 64 112.118547038 64 138.559570312 c 2,5,-1
 64 373.333007812 l 1,6,-1
 448 373.333007812 l 1,0,-1
338.944335938 247.72265625 m 0,7,8
 338.944335938 282.399723414 338.944335938 282.399723414 314.797699895 306.533357801 c 128,-1,9
 290.651063852 330.666992188 290.651063852 330.666992188 256 330.666992188 c 128,-1,10
 221.360107422 330.666992188 221.360107422 330.666992188 197.207885742 306.514770508 c 128,-1,11
 173.055664062 282.362548828 173.055664062 282.362548828 173.055664062 247.72265625 c 0,12,13
 173.055664062 224.283072917 173.055664062 224.283072917 186.090820312 203.861328125 c 2,14,-1
 256 117.333007812 l 1,15,-1
 325.909179688 203.861328125 l 2,16,17
 338.944335938 224.283072917 338.944335938 224.283072917 338.944335938 247.72265625 c 0,7,8
256 200.27734375 m 128,-1,19
 236.464111328 200.27734375 236.464111328 200.27734375 222.541625977 214.199829102 c 128,-1,20
 208.619140625 228.122314453 208.619140625 228.122314453 208.619140625 247.658203125 c 128,-1,21
 208.619140625 267.212609677 208.619140625 267.212609677 222.5428264 281.158062651 c 128,-1,22
 236.466512174 295.103515625 236.466512174 295.103515625 256 295.103515625 c 128,-1,23
 275.535888672 295.103515625 275.535888672 295.103515625 289.458374023 281.181030273 c 128,-1,24
 303.380859375 267.258544922 303.380859375 267.258544922 303.380859375 247.72265625 c 128,-1,25
 303.380859375 228.180659403 303.380859375 228.180659403 289.455325654 214.229001576 c 128,-1,18
 275.529791934 200.27734375 275.529791934 200.27734375 256 200.27734375 c 128,-1,19
EndSplineSet
Validated: 513
EndChar

StartChar: depicted-time
Encoding: 57945 57945 138
Width: 512
LayerCount: 2
Fore
SplineSet
448 373.333007812 m 1,0,-1
 448 74.6669921875 l 1,1,-1
 127.893554688 74.6669921875 l 2,2,3
 101.45155485 74.6669921875 101.45155485 74.6669921875 82.708984375 93.3759765625 c 128,-1,4
 64 112.118547038 64 112.118547038 64 138.559570312 c 2,5,-1
 64 373.333007812 l 1,6,-1
 448 373.333007812 l 1,0,-1
256 288 m 128,-1,8
 230 288 230 288 211 269 c 128,-1,9
 192 250 192 250 192 224 c 128,-1,10
 192 198 192 198 211 179 c 128,-1,11
 230 160 230 160 256 160 c 128,-1,12
 282 160 282 160 301 179 c 128,-1,13
 320 198 320 198 320 224 c 128,-1,14
 320 250 320 250 301 269 c 128,-1,7
 282 288 282 288 256 288 c 128,-1,8
EndSplineSet
Validated: 513
EndChar

StartChar: uniE260
Encoding: 57952 57952 139
Width: 512
LayerCount: 2
Fore
SplineSet
256 74.6669921875 m 1,0,-1
 64 74.6669921875 l 1,1,-1
 64 224 l 1,2,-1
 106.666992188 224 l 1,3,-1
 106.666992188 117.333007812 l 1,4,-1
 256 117.333007812 l 1,5,-1
 256 74.6669921875 l 1,0,-1
448 224 m 1,6,-1
 405.333007812 224 l 1,7,-1
 405.333007812 330.666992188 l 1,8,-1
 256 330.666992188 l 1,9,-1
 256 373.333007812 l 1,10,-1
 448 373.333007812 l 1,11,-1
 448 224 l 1,6,-1
EndSplineSet
Validated: 1
EndChar

StartChar: production-date
Encoding: 57954 57954 140
Width: 512
LayerCount: 2
Fore
SplineSet
384 373.333007812 m 1,0,-1
 448 373.333007812 l 1,1,-1
 448 32 l 1,2,-1
 126.890625 32 l 2,3,4
 100.842773438 32 100.842773438 32 82.4213867188 50.4213867188 c 128,-1,5
 64 68.8427734375 64 68.8427734375 64 94.890625 c 2,6,-1
 64 373.333007812 l 1,7,-1
 128 373.333007812 l 1,8,-1
 128 351.658203125 l 2,9,10
 128 334.123595606 128 334.123595606 140.39453125 321.727539062 c 128,-1,11
 152.790587793 309.333007812 152.790587793 309.333007812 170.325195312 309.333007812 c 0,12,13
 188.158631857 309.333007812 188.158631857 309.333007812 200.747070312 321.919921875 c 128,-1,14
 213.333007812 334.50738365 213.333007812 334.50738365 213.333007812 352.298828125 c 2,15,-1
 213.333007812 373.333007812 l 1,16,-1
 298.666992188 373.333007812 l 1,17,-1
 298.666992188 351.658203125 l 2,18,19
 298.666992188 334.122070312 298.666992188 334.122070312 311.061523438 321.727539062 c 128,-1,20
 323.456054688 309.333007812 323.456054688 309.333007812 340.9921875 309.333007812 c 0,21,22
 358.826171875 309.333007812 358.826171875 309.333007812 371.413085938 321.919921875 c 128,-1,23
 384 334.506835938 384 334.506835938 384 352.298828125 c 2,24,-1
 384 373.333007812 l 1,0,-1
405.333007812 266.666992188 m 1,25,-1
 106.666992188 266.666992188 l 1,26,-1
 106.666992188 101.909179688 l 2,27,28
 106.666992188 90.6576429249 106.666992188 90.6576429249 114.645507812 82.6455078125 c 128,-1,29
 122.657642925 74.6669921875 122.657642925 74.6669921875 133.909179688 74.6669921875 c 2,30,-1
 405.333007812 74.6669921875 l 1,31,-1
 405.333007812 266.666992188 l 1,25,-1
362.666992188 394.453125 m 2,32,-1
 362.666992188 352 l 2,33,34
 362.666992188 343.16781768 362.666992188 343.16781768 356.416184233 336.917404934 c 128,-1,35
 350.165376279 330.666992188 350.165376279 330.666992188 341.333007812 330.666992188 c 128,-1,36
 332.467497137 330.666992188 332.467497137 330.666992188 326.250976562 336.916992188 c 128,-1,37
 320 343.134484093 320 343.134484093 320 351.978515625 c 2,38,-1
 320 394.901367188 l 2,39,40
 320 403.637695312 320 403.637695312 326.181152344 409.818847656 c 128,-1,41
 332.362304688 416 332.362304688 416 341.098632812 416 c 0,42,43
 350.070583584 416 350.070583584 416 356.3515625 409.685546875 c 128,-1,44
 362.666992188 403.403588508 362.666992188 403.403588508 362.666992188 394.453125 c 2,32,-1
192 394.453125 m 2,45,-1
 192 352 l 2,46,47
 192 343.167893212 192 343.167893212 185.749351882 336.9174427 c 128,-1,48
 179.498703765 330.666992188 179.498703765 330.666992188 170.666992188 330.666992188 c 128,-1,49
 161.80050495 330.666992188 161.80050495 330.666992188 155.583984375 336.916992188 c 128,-1,50
 149.333007812 343.134484093 149.333007812 343.134484093 149.333007812 351.978515625 c 2,51,-1
 149.333007812 394.901367188 l 2,52,53
 149.333007812 403.637526701 149.333007812 403.637526701 155.514442059 409.818763351 c 128,-1,54
 161.695876305 416 161.695876305 416 170.431640625 416 c 0,55,56
 179.403046404 416 179.403046404 416 185.685546875 409.685546875 c 128,-1,57
 192 403.403046404 192 403.403046404 192 394.453125 c 2,45,-1
EndSplineSet
EndChar

StartChar: publishing-date
Encoding: 57955 57955 141
Width: 512
LayerCount: 2
Fore
SplineSet
362.666992188 394.453125 m 2,0,-1
 362.666992188 352 l 2,1,2
 362.666992188 343.16781768 362.666992188 343.16781768 356.416184233 336.917404934 c 128,-1,3
 350.165376279 330.666992188 350.165376279 330.666992188 341.333007812 330.666992188 c 128,-1,4
 332.467497137 330.666992188 332.467497137 330.666992188 326.250976562 336.916992188 c 128,-1,5
 320 343.134484093 320 343.134484093 320 351.978515625 c 2,6,-1
 320 394.901367188 l 2,7,8
 320 403.637695312 320 403.637695312 326.181152344 409.818847656 c 128,-1,9
 332.362304688 416 332.362304688 416 341.098632812 416 c 0,10,11
 350.070583584 416 350.070583584 416 356.3515625 409.685546875 c 128,-1,12
 362.666992188 403.403588508 362.666992188 403.403588508 362.666992188 394.453125 c 2,0,-1
192 394.453125 m 2,13,-1
 192 352 l 2,14,15
 192 343.167893212 192 343.167893212 185.749351882 336.9174427 c 128,-1,16
 179.498703765 330.666992188 179.498703765 330.666992188 170.666992188 330.666992188 c 128,-1,17
 161.80050495 330.666992188 161.80050495 330.666992188 155.583984375 336.916992188 c 128,-1,18
 149.333007812 343.134484093 149.333007812 343.134484093 149.333007812 351.978515625 c 2,19,-1
 149.333007812 394.901367188 l 2,20,21
 149.333007812 403.637526701 149.333007812 403.637526701 155.514442059 409.818763351 c 128,-1,22
 161.695876305 416 161.695876305 416 170.431640625 416 c 0,23,24
 179.403046404 416 179.403046404 416 185.685546875 409.685546875 c 128,-1,25
 192 403.403046404 192 403.403046404 192 394.453125 c 2,13,-1
448 32 m 1,26,-1
 126.890625 32 l 2,27,28
 100.842773438 32 100.842773438 32 82.4213867188 50.4213867188 c 128,-1,29
 64 68.8427734375 64 68.8427734375 64 94.890625 c 2,30,-1
 64 373.333007812 l 1,31,-1
 128 373.333007812 l 1,32,-1
 128 351.658203125 l 2,33,34
 128 334.123595606 128 334.123595606 140.39453125 321.727539062 c 128,-1,35
 152.790587793 309.333007812 152.790587793 309.333007812 170.325195312 309.333007812 c 0,36,37
 188.158631857 309.333007812 188.158631857 309.333007812 200.747070312 321.919921875 c 128,-1,38
 213.333007812 334.50738365 213.333007812 334.50738365 213.333007812 352.298828125 c 2,39,-1
 213.333007812 373.333007812 l 1,40,-1
 298.666992188 373.333007812 l 1,41,-1
 298.666992188 351.658203125 l 2,42,43
 298.666992188 334.122070312 298.666992188 334.122070312 311.061523438 321.727539062 c 128,-1,44
 323.456054688 309.333007812 323.456054688 309.333007812 340.9921875 309.333007812 c 0,45,46
 358.826171875 309.333007812 358.826171875 309.333007812 371.413085938 321.919921875 c 128,-1,47
 384 334.506835938 384 334.506835938 384 352.298828125 c 2,48,-1
 384 373.333007812 l 1,49,-1
 448 373.333007812 l 1,50,-1
 448 32 l 1,26,-1
288 74.6669921875 m 1,51,-1
 405.333007812 74.6669921875 l 1,52,-1
 405.333007812 266.666992188 l 1,53,-1
 106.666992188 266.666992188 l 1,54,-1
 106.666992188 101.909179688 l 2,55,56
 106.666992188 90.6576429249 106.666992188 90.6576429249 114.645507812 82.6455078125 c 128,-1,57
 122.657642925 74.6669921875 122.657642925 74.6669921875 133.909179688 74.6669921875 c 2,58,-1
 224 74.6669921875 l 1,59,-1
 224 128 l 1,60,-1
 160 128 l 1,61,-1
 256 234.666992188 l 1,62,-1
 352 128 l 1,63,-1
 288 128 l 1,64,-1
 288 74.6669921875 l 1,51,-1
EndSplineSet
EndChar

StartChar: depicted-date
Encoding: 57956 57956 142
Width: 512
LayerCount: 2
Fore
SplineSet
448 373.333007812 m 1,0,-1
 448 74.6669921875 l 1,1,-1
 127.658203125 74.6669921875 l 2,2,3
 101.290283203 74.6669921875 101.290283203 74.6669921875 82.6451416016 93.3121337891 c 128,-1,4
 64 111.957275391 64 111.957275391 64 138.325195312 c 2,5,-1
 64 373.333007812 l 1,6,-1
 448 373.333007812 l 1,0,-1
362.666992188 288 m 1,7,-1
 362.666992188 266.453125 l 2,8,9
 362.666992188 248.869233754 362.666992188 248.869233754 350.23198016 236.434616877 c 128,-1,10
 337.796968132 224 337.796968132 224 320.212890625 224 c 0,11,12
 302.426589174 224 302.426589174 224 289.879798493 236.546593109 c 128,-1,13
 277.333007812 249.093186218 277.333007812 249.093186218 277.333007812 266.836914062 c 2,14,-1
 277.333007812 288 l 1,15,-1
 234.666992188 288 l 1,16,-1
 234.666992188 266.453125 l 2,17,18
 234.666992188 248.869233754 234.666992188 248.869233754 222.23198016 236.434616877 c 128,-1,19
 209.796968132 224 209.796968132 224 192.212890625 224 c 0,20,21
 174.426589174 224 174.426589174 224 161.879798493 236.546593109 c 128,-1,22
 149.333007812 249.093186218 149.333007812 249.093186218 149.333007812 266.836914062 c 2,23,-1
 149.333007812 288 l 1,24,-1
 128 288 l 1,25,-1
 128 138.666992188 l 1,26,-1
 384 138.666992188 l 1,27,-1
 384 288 l 1,28,-1
 362.666992188 288 l 1,7,-1
341.333007812 309.120117188 m 2,29,30
 341.333007812 318.072096709 341.333007812 318.072096709 335.018554688 324.3515625 c 128,-1,31
 328.736596321 330.666992188 328.736596321 330.666992188 319.787109375 330.666992188 c 128,-1,32
 311.029465486 330.666992188 311.029465486 330.666992188 304.848228837 324.485557941 c 128,-1,33
 298.666992188 318.304123695 298.666992188 318.304123695 298.666992188 309.568359375 c 2,34,-1
 298.666992188 266.645507812 l 2,35,36
 298.666992188 257.80050495 298.666992188 257.80050495 304.916992188 251.583984375 c 128,-1,37
 311.134484093 245.333007812 311.134484093 245.333007812 319.978515625 245.333007812 c 128,-1,38
 328.83218232 245.333007812 328.83218232 245.333007812 335.082595066 251.583815767 c 128,-1,39
 341.333007812 257.834623721 341.333007812 257.834623721 341.333007812 266.666992188 c 2,40,-1
 341.333007812 309.120117188 l 2,29,30
213.333007812 309.120117188 m 2,41,42
 213.333007812 318.072096709 213.333007812 318.072096709 207.018554688 324.3515625 c 128,-1,43
 200.736596321 330.666992188 200.736596321 330.666992188 191.787109375 330.666992188 c 128,-1,44
 183.029465486 330.666992188 183.029465486 330.666992188 176.848228837 324.485557941 c 128,-1,45
 170.666992188 318.304123695 170.666992188 318.304123695 170.666992188 309.568359375 c 2,46,-1
 170.666992188 266.645507812 l 2,47,48
 170.666992188 257.80050495 170.666992188 257.80050495 176.916992188 251.583984375 c 128,-1,49
 183.134484093 245.333007812 183.134484093 245.333007812 191.978515625 245.333007812 c 128,-1,50
 200.83218232 245.333007812 200.83218232 245.333007812 207.082595066 251.583815767 c 128,-1,51
 213.333007812 257.834623721 213.333007812 257.834623721 213.333007812 266.666992188 c 2,52,-1
 213.333007812 309.120117188 l 2,41,42
EndSplineSet
EndChar

StartChar: uniE265
Encoding: 57957 57957 143
Width: 512
LayerCount: 2
Fore
SplineSet
170.666992188 277.333007812 m 1,0,-1
 234.666992188 352 l 1,1,-1
 234.666992188 92.94921875 l 1,2,-1
 170.666992188 170.666992188 l 1,3,-1
 138.026367188 170.666992188 l 2,4,5
 120.618727845 170.666992188 120.618727845 170.666992188 108.309363922 182.976158537 c 128,-1,6
 96 195.285324887 96 195.285324887 96 212.693359375 c 2,7,-1
 96 277.333007812 l 1,8,-1
 170.666992188 277.333007812 l 1,0,-1
301.907226562 296.318359375 m 1,9,10
 330.625976562 266.204113107 330.625976562 266.204113107 330.625976562 223.999023438 c 128,-1,11
 330.625976562 181.793933768 330.625976562 181.793933768 301.907226562 151.6796875 c 1,12,-1
 271.534179688 182.051757812 l 1,13,14
 287.982421875 199.18444621 287.982421875 199.18444621 287.982421875 223.999023438 c 128,-1,15
 287.982421875 248.812624102 287.982421875 248.812624102 271.534179688 265.9453125 c 1,16,-1
 301.907226562 296.318359375 l 1,9,10
360.65625 355.034179688 m 1,17,18
 416 300.644278311 416 300.644278311 416 224.000976562 c 128,-1,19
 416 147.357674814 416 147.357674814 360.65625 92.9677734375 c 1,20,-1
 330.463867188 123.09765625 l 1,21,22
 373.328125 164.889558545 373.328125 164.889558545 373.328125 224.000976562 c 128,-1,23
 373.328125 283.111418017 373.328125 283.111418017 330.463867188 324.903320312 c 1,24,-1
 360.65625 355.034179688 l 1,17,18
EndSplineSet
EndChar

StartChar: uniE266
Encoding: 57958 57958 144
Width: 512
LayerCount: 2
Fore
SplineSet
170.666992188 277.333007812 m 1,0,-1
 234.666992188 352 l 1,1,-1
 234.666992188 92.94921875 l 1,2,-1
 170.666992188 170.666992188 l 1,3,-1
 138.026367188 170.666992188 l 2,4,5
 120.618727845 170.666992188 120.618727845 170.666992188 108.309363922 182.976158537 c 128,-1,6
 96 195.285324887 96 195.285324887 96 212.693359375 c 2,7,-1
 96 277.333007812 l 1,8,-1
 170.666992188 277.333007812 l 1,0,-1
341.333007812 254.165039062 m 1,9,-1
 386.581054688 299.434570312 l 1,10,-1
 416.767578125 269.248046875 l 1,11,-1
 371.499023438 224 l 1,12,-1
 416.767578125 178.751953125 l 1,13,-1
 386.581054688 148.565429688 l 1,14,-1
 341.333007812 193.834960938 l 1,15,-1
 296.084960938 148.565429688 l 1,16,-1
 265.8984375 178.751953125 l 1,17,-1
 311.16796875 224 l 1,18,-1
 265.8984375 269.248046875 l 1,19,-1
 296.084960938 299.434570312 l 1,20,-1
 341.333007812 254.165039062 l 1,9,-1
EndSplineSet
EndChar

StartChar: uniE267
Encoding: 57959 57959 145
Width: 512
LayerCount: 2
Fore
SplineSet
416 384 m 1,0,-1
 416 62.3466796875 l 1,1,-1
 158.879882812 62.3466796875 l 2,2,3
 132.837162949 62.3466796875 132.837162949 62.3466796875 114.418581475 80.7626927356 c 128,-1,4
 96 99.1787057836 96 99.1787057836 96 125.229492188 c 2,5,-1
 96 384 l 1,6,-1
 416 384 l 1,0,-1
149.333007812 106.666992188 m 1,7,-1
 192 106.666992188 l 1,8,-1
 192 202.666992188 l 1,9,-1
 149.333007812 202.666992188 l 1,10,-1
 149.333007812 106.666992188 l 1,7,-1
133.149414062 256.569335938 m 1,11,-1
 172.815429688 240.850585938 l 1,12,-1
 208.18359375 330.09765625 l 1,13,-1
 168.517578125 345.81640625 l 1,14,-1
 133.149414062 256.569335938 l 1,11,-1
234.666992188 106.666992188 m 1,15,-1
 277.333007812 106.666992188 l 1,16,-1
 277.333007812 202.666992188 l 1,17,-1
 234.666992188 202.666992188 l 1,18,-1
 234.666992188 106.666992188 l 1,15,-1
234.666992188 245.333007812 m 1,19,-1
 277.333007812 245.333007812 l 1,20,-1
 277.333007812 341.333007812 l 1,21,-1
 234.666992188 341.333007812 l 1,22,-1
 234.666992188 245.333007812 l 1,19,-1
320 106.666992188 m 1,23,-1
 362.666992188 106.666992188 l 1,24,-1
 362.666992188 202.666992188 l 1,25,-1
 320 202.666992188 l 1,26,-1
 320 106.666992188 l 1,23,-1
320 245.333007812 m 1,27,-1
 362.666992188 245.333007812 l 1,28,-1
 362.666992188 341.333007812 l 1,29,-1
 320 341.333007812 l 1,30,-1
 320 245.333007812 l 1,27,-1
EndSplineSet
Validated: 1
EndChar

StartChar: filesize
Encoding: 57968 57968 146
Width: 512
LayerCount: 2
Fore
SplineSet
96 298.666992188 m 1,0,-1
 330.666992188 298.666992188 l 1,1,-1
 330.666992188 64 l 1,2,-1
 266.666992188 64 l 1,3,-1
 266.666992188 234.666992188 l 1,4,-1
 96 234.666992188 l 1,5,-1
 96 298.666992188 l 1,0,-1
96 384 m 1,6,-1
 416 384 l 1,7,-1
 416 64 l 1,8,-1
 352 64 l 1,9,-1
 352 320 l 1,10,-1
 96 320 l 1,11,-1
 96 384 l 1,6,-1
245.333007812 211.6796875 m 1,12,-1
 245.333007812 62.345703125 l 1,13,-1
 158.944335938 62.345703125 l 2,14,15
 132.848144531 62.345703125 132.848144531 62.345703125 114.424072266 80.7697753906 c 128,-1,16
 96 99.1938476562 96 99.1938476562 96 125.290039062 c 2,17,-1
 96 211.6796875 l 1,18,-1
 245.333007812 211.6796875 l 1,12,-1
EndSplineSet
Validated: 1
EndChar

StartChar: imagesize
Encoding: 57969 57969 147
Width: 512
LayerCount: 2
Fore
SplineSet
266.666992188 320 m 1,0,-1
 266.666992188 384 l 1,1,-1
 330.666992188 384 l 1,2,-1
 330.666992188 320 l 1,3,-1
 266.666992188 320 l 1,0,-1
266.666992188 234.666992188 m 1,4,-1
 266.666992188 298.666992188 l 1,5,-1
 330.666992188 298.666992188 l 1,6,-1
 330.666992188 234.666992188 l 1,7,-1
 266.666992188 234.666992188 l 1,4,-1
266.666992188 148.919921875 m 1,8,-1
 266.666992188 212.919921875 l 1,9,-1
 330.666992188 212.919921875 l 1,10,-1
 330.666992188 148.919921875 l 1,11,-1
 266.666992188 148.919921875 l 1,8,-1
266.666992188 64.4130859375 m 1,12,-1
 266.666992188 128.413085938 l 1,13,-1
 330.666992188 128.413085938 l 1,14,-1
 330.666992188 64.4130859375 l 1,15,-1
 266.666992188 64.4130859375 l 1,12,-1
352 320 m 1,16,-1
 352 384 l 1,17,-1
 416 384 l 1,18,-1
 416 320 l 1,19,-1
 352 320 l 1,16,-1
352 234.666992188 m 1,20,-1
 352 298.666992188 l 1,21,-1
 416 298.666992188 l 1,22,-1
 416 234.666992188 l 1,23,-1
 352 234.666992188 l 1,20,-1
352 148.919921875 m 1,24,-1
 352 212.919921875 l 1,25,-1
 416 212.919921875 l 1,26,-1
 416 148.919921875 l 1,27,-1
 352 148.919921875 l 1,24,-1
352 64.4130859375 m 1,28,-1
 352 128.413085938 l 1,29,-1
 416 128.413085938 l 1,30,-1
 416 64.4130859375 l 1,31,-1
 352 64.4130859375 l 1,28,-1
96 234.666992188 m 1,32,-1
 96 384 l 1,33,-1
 245.333007812 384 l 1,34,-1
 245.333007812 234.666992188 l 1,35,-1
 96 234.666992188 l 1,32,-1
245.333007812 211.6796875 m 1,36,-1
 245.333007812 62.345703125 l 1,37,-1
 158.944335938 62.345703125 l 2,38,39
 132.848144531 62.345703125 132.848144531 62.345703125 114.424072266 80.7697753906 c 128,-1,40
 96 99.1938476562 96 99.1938476562 96 125.290039062 c 2,41,-1
 96 211.6796875 l 1,42,-1
 245.333007812 211.6796875 l 1,36,-1
EndSplineSet
Validated: 1
EndChar

StartChar: uniE272
Encoding: 57970 57970 148
Width: 512
LayerCount: 2
Fore
SplineSet
416 384 m 1,0,-1
 416 62.3359375 l 1,1,-1
 158.955078125 62.3359375 l 2,2,3
 132.875 62.3359375 132.875 62.3359375 114.4375 80.7734375 c 128,-1,4
 96 99.2109375 96 99.2109375 96 125.291015625 c 2,5,-1
 96 384 l 1,6,-1
 416 384 l 1,0,-1
288 138.666992188 m 1,7,-1
 288 96 l 1,8,-1
 384 96 l 1,9,-1
 384 138.666992188 l 1,10,-1
 288 138.666992188 l 1,7,-1
288 202.666992188 m 1,11,-1
 288 160 l 1,12,-1
 384 160 l 1,13,-1
 384 202.666992188 l 1,14,-1
 288 202.666992188 l 1,11,-1
288 266.666992188 m 1,15,-1
 288 224 l 1,16,-1
 384 224 l 1,17,-1
 384 266.666992188 l 1,18,-1
 288 266.666992188 l 1,15,-1
288 330.666992188 m 1,19,-1
 288 288 l 1,20,-1
 384 288 l 1,21,-1
 384 330.666992188 l 1,22,-1
 288 330.666992188 l 1,19,-1
EndSplineSet
EndChar

StartChar: uniE504
Encoding: 58628 58628 149
Width: 512
LayerCount: 2
Fore
SplineSet
85.3330078125 326.400390625 m 1,0,-1
 176.37109375 326.400390625 l 1,1,-1
 176.37109375 104.56640625 l 1,2,-1
 85.3330078125 104.56640625 l 1,3,-1
 85.3330078125 326.400390625 l 1,0,-1
267.454101562 326.366210938 m 1,4,-1
 358.467773438 326.366210938 l 1,5,-1
 358.467773438 104.533203125 l 1,6,-1
 267.454101562 104.533203125 l 1,7,-1
 267.454101562 326.366210938 l 1,4,-1
199.129882812 326.400390625 m 1,8,-1
 244.603515625 326.400390625 l 1,9,-1
 244.603515625 104.56640625 l 1,10,-1
 199.129882812 104.56640625 l 1,11,-1
 199.129882812 326.400390625 l 1,8,-1
381.193359375 326.377929688 m 1,12,-1
 426.666015625 326.377929688 l 1,13,-1
 426.666015625 104.543945312 l 1,14,-1
 381.181640625 104.543945312 l 1,15,-1
 381.193359375 326.377929688 l 1,12,-1
EndSplineSet
Validated: 1
EndChar
